<?xml version="1.0" standalone="no"?>
<!DOCTYPE svg PUBLIC "-//W3C//DTD SVG 1.1//EN" "http://www.w3.org/Graphics/SVG/1.1/DTD/svg11.dtd" >
<svg>
<metadata>
Created by FontForge 20120731 at Wed Jun 26 00:19:03 2019
 By www-data
Copyright (C) 2013 Shinhancard Co.,LTD and YoonDesign Inc. All rights reserved.
</metadata>
<defs>
<font id="ShinhanM" horiz-adv-x="860" >
  <font-face 
    font-family="Shinhan M"
    font-weight="400"
    font-stretch="normal"
    units-per-em="1000"
    panose-1="0 0 0 0 0 0 0 0 0 0"
    ascent="800"
    descent="-200"
    x-height="509"
    cap-height="701"
    bbox="-13.8 -293 1044 913"
    underline-thickness="50"
    underline-position="-50"
    unicode-range="U+000A-FFE6"
  />
<missing-glyph horiz-adv-x="300" 
 />
    <glyph glyph-name=".notdef" horiz-adv-x="300" 
 />
    <glyph glyph-name="uni000A" unicode="&#xa;" horiz-adv-x="0" 
 />
    <glyph glyph-name="space" unicode=" " horiz-adv-x="300" 
 />
    <glyph glyph-name="exclam" unicode="!" horiz-adv-x="316" 
d="M100 747q0 13 14 13h90q8 0 10 -4t2 -9l-15 -560q0 -12 -14 -12h-58q-14 0 -14 12zM104 63q0 10 15 15h78q15 0 15 -14v-115q0 -13 -16 -13h-76q-16 0 -16 13v114z" />
    <glyph glyph-name="quotedbl" unicode="&#x22;" horiz-adv-x="414" 
d="M168 791q7 0 8 -4t1 -7l-6 -193q-1 -8 -6 -11.5t-13 -3.5h-45q-13 0 -13 14l-13 187q-1 11 4 14.5t12 3.5h71zM325 791q7 0 8 -4t1 -7l-12 -193q-1 -8 -6 -11.5t-13 -3.5h-45q-13 0 -13 14l-7 187q-1 11 4 14.5t12 3.5h71z" />
    <glyph glyph-name="numbersign" unicode="#" horiz-adv-x="788" 
d="M689 236q7 0 13 -3t6 -11v-58q0 -5 -4.5 -9.5t-11.5 -4.5h-151l-34 -181q-1 -5 -3 -9t-9 -4h-78q-10 0 -9 10l34 184h-160l-34 -181q-1 -5 -3 -9t-9 -4h-78q-10 0 -9 10l34 184h-117q-7 0 -11.5 4.5t-4.5 9.5v58q0 8 6 11t13 3h130l43 227h-128q-7 0 -11.5 4.5t-4.5 9.5
v58q0 8 6 11t13 3h142l28 149q0 5 3 9.5t10 4.5h77q9 0 9 -9l-29 -154h161l28 149q0 5 3 9.5t10 4.5h77q9 0 9 -9l-29 -154h103q7 0 13 -3t6 -11v-58q0 -5 -4.5 -9.5t-11.5 -4.5h-122l-43 -227h132zM298 236h160l43 227h-160z" />
    <glyph glyph-name="dollar" unicode="$" horiz-adv-x="634" 
d="M277 758q0 13 13 13h61q8 1 11.5 -1.5t3.5 -10.5v-67h45q4 0 22 -1t35 -12l95 -66q4 -2 4 -6.5t-2 -7.5l-35 -53q-2 -3 -5.5 -4t-5.5 0l-94 55q-8 5 -13.5 6.5t-13.5 1.5h-32v-230l95 -22q26 -6 47 -14.5t35.5 -23.5t22 -37.5t7.5 -56.5v-105q0 -5 -1.5 -21t-14.5 -29
l-75 -83q-13 -14 -27.5 -15.5t-22.5 -1.5h-66v-58q0 -12 -15 -12h-59q-15 0 -15 12v58h-60q-4 0 -22.5 1t-35.5 12l-94 60q-4 2 -4 6.5t2 7.5l39 59q2 3 5.5 4t5.5 0l93 -55q8 -5 14 -6.5t14 -1.5h43v253l-89 20q-26 5 -48.5 15.5t-39 27.5t-26 41t-9.5 56v71q0 5 1.5 21.5
t14.5 29.5l83 87q13 14 28 15.5t23 1.5h62v66zM471 215q0 20 -10.5 36.5t-36.5 21.5l-58 13v-233h41q2 0 7 1t8 4l43 45q5 5 5.5 10.5t0.5 6.5v95zM218 600l-45 -49q-5 -5 -5.5 -10.5t-0.5 -6.5v-59q0 -20 13 -39.5t46 -27.5l51 -12v209h-44q-2 0 -7 -1t-8 -4z" />
    <glyph glyph-name="percent" unicode="%" horiz-adv-x="835" 
d="M196 388q-38 0 -68.5 12t-52 33t-33.5 49.5t-12 61.5q0 32 12 60.5t33.5 49.5t52 33.5t68.5 12.5q37 0 68 -12.5t52.5 -33.5t33.5 -49.5t12 -60.5q0 -33 -12 -61.5t-33.5 -49.5t-52.5 -33t-68 -12zM196 459q25 0 41.5 8t26 20.5t13.5 27.5t4 29q0 13 -4 28t-13.5 28
t-26 21t-41.5 8t-41.5 -8t-26 -21t-13 -28t-3.5 -28q0 -14 3.5 -29t13 -27.5t26 -20.5t41.5 -8zM545 691q4 11 14 11h77q6 0 7.5 -3t0.5 -6l-363 -730q-3 -7 -12 -7h-81q-8 0 -6 7zM639 -46q-38 0 -68.5 12t-52 33t-33.5 49.5t-12 61.5q0 32 12 60.5t33.5 49.5t52 33.5
t68.5 12.5q37 0 68 -12.5t52.5 -33.5t33.5 -49.5t12 -60.5q0 -33 -12 -61.5t-33.5 -49.5t-52.5 -33t-68 -12zM639 25q25 0 41.5 8t26 20.5t13.5 27.5t4 29q0 13 -4 28t-13.5 28t-26 21t-41.5 8t-41.5 -8t-26 -21t-13 -28t-3.5 -28q0 -14 3.5 -29t13 -27.5t26 -20.5t41.5 -8z
" />
    <glyph glyph-name="ampersand" unicode="&#x26;" horiz-adv-x="786" 
d="M486 219q-10 0 -10 10v65q0 10 10 10h220q10 0 10 -10v-65q0 -10 -10 -10h-61v-123q0 -32 -14 -59t-37.5 -47.5t-53.5 -32t-61 -11.5h-203q-32 0 -61.5 11.5t-53 32t-37.5 47.5t-14 59v146q0 29 8 50.5t21 37.5t28.5 26.5t30.5 17.5q-11 7 -23.5 19t-23 27.5t-17.5 36
t-7 45.5v54q0 31 14 59t37.5 48t53 32t61.5 12h161q12 0 28 -2t29 -11l99 -64q4 -2 4 -6.5t-2 -7.5l-36 -55q-2 -3 -6 -4.5t-8 0.5l-91 55q-13 8 -27 8h-153q-10 0 -21 -3t-20 -11.5t-15 -22.5t-6 -36v-56q0 -45 23.5 -65t54.5 -20h87q7 0 11.5 -4.5t4.5 -9.5v-57
q0 -8 -6 -11t-13 -3h-101q-13 0 -27 -4t-25 -13t-18.5 -24t-7.5 -37v-145q0 -32 19.5 -48.5t49.5 -16.5h183q30 0 54.5 16.5t24.5 48.5v121h-57z" />
    <glyph glyph-name="quotesingle" unicode="'" horiz-adv-x="257" 
d="M168 791q7 0 8 -4t1 -7l-12 -193q-1 -8 -6 -11.5t-13 -3.5h-45q-13 0 -13 14l-7 187q-1 11 4 14.5t12 3.5h71z" />
    <glyph glyph-name="parenleft" unicode="(" horiz-adv-x="389" 
d="M328 787q11 0 11 -11v-66q0 -5 -1.5 -7.5t-8.5 -2.5h-80q-10 0 -15 -5l-26 -32q-6 -7 -6 -20v-598q0 -13 6 -20l26 -32q5 -5 15 -5h80q7 0 8.5 -2.5t1.5 -7.5v-66q0 -11 -11 -11h-99q-16 0 -28 3.5t-22 13.5l-70 81q-9 12 -9 40v610q0 28 9 40l70 81q10 10 22 13.5
t28 3.5h99z" />
    <glyph glyph-name="parenright" unicode=")" horiz-adv-x="389" 
d="M160 787q16 0 28 -3.5t22 -13.5l70 -81q9 -12 9 -40v-610q0 -28 -9 -40l-70 -81q-10 -10 -22 -13.5t-28 -3.5h-99q-11 0 -11 11v66q0 5 1.5 7.5t8.5 2.5h80q10 0 15 5l26 32q6 7 6 20v598q0 13 -6 20l-26 32q-5 5 -15 5h-80q-7 0 -8.5 2.5t-1.5 7.5v66q0 11 11 11h99z
" />
    <glyph glyph-name="asterisk" unicode="*" horiz-adv-x="557" 
d="M312 600l112 80q9 8 14 -2l36 -61q4 -9 -5 -13l-124 -60l126 -60q8 -4 4 -11l-38 -62q-3 -4 -6 -4t-7 2l-113 77l12 -137q2 -9 -7 -9h-75q-5 0 -6 2t-1 6l9 138q-11 -8 -25 -17.5t-28.5 -20t-28.5 -20.5t-25 -18q-4 -2 -8.5 -2t-7.5 5l-37 57q-4 9 6 14l123 60l-127 61
q-7 4 -3 11l37 62q5 8 13 2l111 -80l-9 142q0 9 8 9h74q9 0 8 -9z" />
    <glyph glyph-name="plus" unicode="+" horiz-adv-x="620" 
d="M265 574q0 13 13 13h62q8 1 11.5 -1.5t3.5 -10.5v-188h175q10 0 10 -10v-67q0 -10 -10 -10h-175v-188q0 -12 -15 -12h-60q-15 0 -15 12v188h-175q-10 0 -10 10v67q0 10 10 10h175v187z" />
    <glyph glyph-name="comma" unicode="," horiz-adv-x="266" 
d="M207 98q6 0 8 -6t0 -9l-77 -197q-6 -15 -19 -15h-63q-7 0 -5 7l53 204q2 6 5 11t16 5h82z" />
    <glyph glyph-name="hyphen" unicode="-" horiz-adv-x="580" 
d="M90 300q-10 0 -10 10v67q0 10 10 10h400q10 0 10 -10v-67q0 -10 -10 -10h-400z" />
    <glyph glyph-name="period" unicode="." horiz-adv-x="228" 
d="M60 53q0 10 15 15h78q15 0 15 -14v-105q0 -13 -16 -13h-76q-16 0 -16 13v104z" />
    <glyph glyph-name="slash" unicode="/" horiz-adv-x="496" 
d="M342 691q4 11 13 11h81q12 0 9 -9l-291 -730q-3 -7 -10 -7h-86q-9 0 -7 6z" />
    <glyph glyph-name="zero" unicode="0" horiz-adv-x="600" 
d="M55 136v386q0 31 15.5 64t41 60t59.5 44t71 17h116q37 0 71 -17t59.5 -44t41 -60t15.5 -64v-386q0 -32 -15 -64.5t-41 -59.5t-60 -44t-71 -17h-116q-37 0 -71 17t-59.5 44t-41 59.5t-15.5 64.5zM443 145v368q0 22 -7 41.5t-18.5 34t-26.5 23t-31 8.5h-120q-16 0 -31 -8.5
t-26.5 -23t-18.5 -34t-7 -41.5v-368q0 -22 7 -41.5t18.5 -34t26.5 -23t31 -8.5h120q16 0 31 8.5t26.5 23t18.5 34t7 41.5z" />
    <glyph glyph-name="one" unicode="1" horiz-adv-x="380" 
d="M167 -34v649h-97q-6 0 -10.5 2.5t-4.5 8.5v64q0 5 4.5 8.5t10.5 3.5h176q15 0 19 -6t4 -15v-715q0 -10 -10 -10h-82q-10 0 -10 10z" />
    <glyph glyph-name="two" unicode="2" horiz-adv-x="600" 
d="M376 620h-149q-14 0 -27 -8l-90 -55q-4 -2 -8 -0.5t-6 4.5l-37 55q-2 3 -2 7.5t4 6.5l99 64q13 9 29 11t28 2h157q31 0 61 -12t53.5 -32t37.5 -48t14 -59v-84q0 -39 -9.5 -66t-26 -45.5t-38.5 -31t-47 -21.5l-193 -61q-31 -11 -44.5 -31t-13.5 -53v-120h365
q7 0 11.5 -4.5t4.5 -9.5v-59q0 -8 -6 -11t-13 -3h-447q-10 0 -13.5 6.5t-3.5 14.5v185q0 60 28 102.5t85 63.5l206 65q32 12 42.5 27t10.5 35v92q0 22 -6 36t-15 22.5t-20 11.5t-21 3z" />
    <glyph glyph-name="three" unicode="3" horiz-adv-x="600" 
d="M376 -49h-176q-12 0 -28 2t-29 11l-97 62q-4 2 -4 6.5t2 7.5l37 55q2 3 6 4.5t8 -0.5l88 -53q13 -8 27 -8h161q30 0 49.5 16.5t19.5 48.5v120q0 22 -7.5 35.5t-18.5 20.5t-25 9.5t-27 2.5h-171q-7 0 -13 3t-6 11v57q0 5 4.5 9.5t11.5 4.5h165q31 0 49.5 20t18.5 65v86
q0 22 -6 36t-15 22.5t-20 11.5t-21 3h-132q-14 0 -27 -8l-90 -55q-4 -2 -8 -0.5t-6 4.5l-37 55q-2 3 -2 7.5t4 6.5l99 64q13 9 29 11t28 2h140q31 0 61 -12t53.5 -32t37.5 -48t14 -59v-84q0 -51 -19.5 -82t-41.5 -46q13 -7 27 -16t26 -23t19.5 -34t7.5 -49v-121
q0 -32 -14 -59t-37.5 -47.5t-53.5 -32t-61 -11.5z" />
    <glyph glyph-name="four" unicode="4" horiz-adv-x="600" 
d="M565 224q14 0 14 -14v-59q0 -8 -5 -11t-12 -3h-74v-171q0 -10 -10 -10h-78q-10 0 -10 10v171h-314q-20 0 -29 9.5t-9 26.5v37q0 14 3.5 27t8.5 27l173 436q3 7 11 7h73q8 0 11.5 -5.5t-0.5 -14.5l-176 -463h248v356q0 10 10 10h78q10 0 10 -10v-356h77z" />
    <glyph glyph-name="five" unicode="5" horiz-adv-x="600" 
d="M544 256v-154q0 -32 -14 -59.5t-37.5 -47.5t-53.5 -32t-61 -12h-176q-12 0 -29 2.5t-28 10.5l-89 58q-4 2 -4 6.5t2 7.5l38 57q5 7 13 2l79 -49q8 -5 14.5 -6.5t12.5 -1.5h169q10 0 21 3t20 11.5t15 22.5t6 36v136q0 22 -6 36t-15 22.5t-20 11.5t-21 3h-266
q-10 0 -14.5 6.5t-4.5 14.5v340q0 8 3.5 14.5t13.5 6.5h397q15 0 15 -14v-59q0 -13 -12 -13h-315v-209h181q31 0 61 -12t53.5 -32t37.5 -48t14 -59z" />
    <glyph glyph-name="six" unicode="6" horiz-adv-x="600" 
d="M379 -49h-152q-32 0 -62 12t-53 32t-37.5 47.5t-14.5 59.5v454q0 31 14 59t37.5 48t53 32t61.5 12h163q17 0 32 -3t24 -10l86 -65q4 -2 4 -6.5t-2 -7.5l-36 -53q-2 -3 -6 -4.5t-8 0.5l-79 54q-8 5 -13.5 6.5t-13.5 1.5h-153q-9 0 -20 -3t-20.5 -11t-15.5 -22t-6 -36v-167
q16 12 36.5 21.5t52.5 9.5h126q31 0 61 -11.5t53.5 -32t37.5 -48t14 -58.5v-160q0 -32 -14 -59.5t-36.5 -47.5t-52.5 -32t-61 -12zM204 326q-10 0 -21.5 -3.5t-20.5 -8.5v-203q0 -22 6 -36t15.5 -22.5t20.5 -11.5t21 -3h156q10 0 20.5 3t19.5 11.5t14.5 22.5t5.5 36v142
q0 22 -6 36t-15 22.5t-20 11.5t-21 3h-175z" />
    <glyph glyph-name="seven" unicode="7" horiz-adv-x="600" 
d="M71 615q-13 0 -13 11v62q0 14 13 14h434q14 0 22.5 -6.5t8.5 -26.5v-33q0 -12 -3 -33t-8 -35l-205 -605q-1 -5 -4 -6t-6 -1h-85q-7 0 -5 9l223 650h-372z" />
    <glyph glyph-name="eight" unicode="8" horiz-adv-x="600" 
d="M54 109v118q0 36 25.5 68t62.5 52q-29 21 -50.5 50.5t-21.5 61.5v92q0 31 16 59.5t41 49.5t56.5 33.5t63.5 12.5h111q31 0 63 -12.5t57 -33.5t41 -49.5t16 -59.5v-92q0 -32 -21.5 -62t-50.5 -50q37 -20 62.5 -52t25.5 -68v-118q0 -32 -15.5 -60.5t-41.5 -50.5t-59.5 -35
t-68.5 -13h-127q-35 0 -68.5 13t-59.5 35t-41.5 50.5t-15.5 60.5zM237 37h131q10 0 24 4.5t26.5 14t21.5 25t9 37.5v100q0 22 -12 37.5t-28.5 25t-33.5 13.5t-27 4h-91q-10 0 -27 -4t-33.5 -13.5t-28.5 -25t-12 -37.5v-100q0 -22 9 -37.5t21.5 -25t26.5 -14t24 -4.5z
M433 542q0 22 -7.5 37t-19 24t-24 12.5t-22.5 3.5h-115q-10 0 -22.5 -3.5t-24 -12.5t-19 -24t-7.5 -37v-74q0 -21 9.5 -37t23.5 -27t29 -16.5t26 -6.5h80q10 0 26 5.5t31 16t25.5 27t10.5 38.5v74z" />
    <glyph glyph-name="nine" unicode="9" horiz-adv-x="600" 
d="M129 43h247q10 0 21 3t20.5 11.5t15.5 22.5t6 36v155q-16 -12 -36.5 -21.5t-52.5 -9.5h-124q-32 0 -61.5 11.5t-53 32t-37.5 47.5t-14 59v166q0 31 14 59t36.5 48t52 32t61.5 12h150q31 0 61.5 -12t53.5 -32t37.5 -48t14.5 -59v-449q0 -32 -14.5 -59.5t-37.5 -47.5
t-53.5 -32t-61.5 -12h-245q-10 0 -10 10v66q0 11 10 11zM397 326q10 0 22 4.5l20 7.5v209q0 22 -6 36t-15.5 22.5t-20.5 11.5t-21 3h-154q-10 0 -20.5 -3t-19.5 -11.5t-14.5 -22.5t-5.5 -36v-148q0 -22 6 -36t15 -22.5t20 -11.5t21 -3h173z" />
    <glyph glyph-name="colon" unicode=":" horiz-adv-x="288" 
d="M104 590h80q7 0 10.5 -4.5t3.5 -9.5v-104q0 -5 -3 -9.5t-11 -4.5h-80q-8 0 -11 4.5t-3 9.5v104q0 5 3.5 9.5t10.5 4.5zM104 206h80q7 0 10.5 -4.5t3.5 -9.5v-104q0 -5 -3 -9.5t-11 -4.5h-80q-8 0 -11 4.5t-3 9.5v104q0 5 3.5 9.5t10.5 4.5z" />
    <glyph glyph-name="semicolon" unicode=";" horiz-adv-x="288" 
d="M104 590h80q7 0 10.5 -4.5t3.5 -9.5v-104q0 -5 -3 -9.5t-11 -4.5h-80q-8 0 -11 4.5t-3 9.5v104q0 5 3.5 9.5t10.5 4.5zM187 206q6 0 8 -6t0 -9l-77 -197q-6 -15 -19 -15h-63q-7 0 -5 7l53 204q2 6 5 11t16 5h82z" />
    <glyph glyph-name="less" unicode="&#x3c;" horiz-adv-x="478" 
d="M169 343l239 -203q10 -7 10 -21v-81q0 -5 -5.5 -7t-9.5 2l-333 276q-5 5 -7 9.5t-3 10.5v29q0 11 9 19l333 276q4 4 9.5 2t5.5 -7v-81q0 -14 -10 -21z" />
    <glyph glyph-name="equal" unicode="=" horiz-adv-x="580" 
d="M90 206q-10 0 -10 10v67q0 10 10 10h400q10 0 10 -10v-67q0 -10 -10 -10h-400zM90 395q-10 0 -10 10v67q0 10 10 10h400q10 0 10 -10v-67q0 -10 -10 -10h-400z" />
    <glyph glyph-name="greater" unicode="&#x3e;" horiz-adv-x="478" 
d="M71 546q-10 7 -10 21v81q0 5 5.5 7t9.5 -2l333 -276q9 -8 9 -19v-29q-1 -6 -3 -10.5t-7 -9.5l-333 -276q-4 -4 -9.5 -2t-5.5 7v81q0 14 10 21l239 203z" />
    <glyph glyph-name="question" unicode="?" horiz-adv-x="574" 
d="M199 268q0 60 26.5 99t83.5 60l50 19q32 12 42.5 27t10.5 35v93q0 22 -6 36t-15 22.5t-20 11.5t-21 3h-119q-14 0 -27 -8l-90 -55q-4 -2 -8 -0.5t-6 4.5l-37 55q-2 3 -2 7.5t4 6.5l99 64q13 9 29 11t28 2h127q31 0 61 -12t53.5 -32t37.5 -48t14 -59v-85q0 -37 -8.5 -63
t-23.5 -44.5t-35.5 -31t-44.5 -21.5l-46 -16q-31 -11 -44.5 -28t-13.5 -50v-105q0 -11 -14 -11h-71q-14 0 -14 13v100zM197 63q0 6 3.5 10.5t11.5 4.5h78q15 0 15 -14v-115q0 -13 -16 -13h-76q-16 0 -16 13v114z" />
    <glyph glyph-name="at" unicode="@" horiz-adv-x="804" 
d="M80 101v461q0 28 9 46t21 29l60 52q16 14 33.5 18.5t38.5 4.5h320q21 0 38.5 -4.5t33.5 -18.5l60 -52q12 -11 21 -29t9 -46v-308q0 -12 -3 -26.5t-20 -29.5l-56 -52q-12 -11 -24.5 -12.5t-35.5 -1.5h-126q-13 0 -26 2t-22 9l-70 53q-16 10 -23 25.5t-7 32.5v145
q0 22 8.5 34.5t16.5 18.5l79 66q10 8 19.5 10.5t22.5 2.5h83q25 0 46.5 -10t35.5 -24v53q0 14 -2 21t-8 14l-30 29q-7 6 -16 8.5t-17 2.5h-294q-8 0 -17 -2.5t-16 -8.5l-30 -29q-6 -7 -8 -16.5t-2 -23.5v-427q0 -14 2 -23.5t8 -16.5l30 -29q7 -6 16 -8.5t17 -2.5h421
q10 0 10 -10v-67q0 -10 -10 -10h-434q-21 0 -38.5 4.5t-33.5 18.5l-60 52q-12 11 -21 29t-9 46zM413 262q0 -11 5 -15l31 -24q6 -4 15 -4h125q16 0 24.5 9.5t8.5 20.5v159q0 16 -10.5 27.5t-26.5 11.5h-120q-12 0 -19 -4l-26 -20q-7 -6 -7 -17v-144z" />
    <glyph glyph-name="A" unicode="A" horiz-adv-x="669" 
d="M366 707q30 0 45 -10.5t23 -29.5l225 -696q0 -15 -14 -15h-78q-7 0 -8.5 3.5t-3.5 10.5l-77 243h-297l-67 -243q-3 -14 -15 -14h-75q-14 0 -14 16l200 695q5 14 18 27t35 13h103zM345 621h-45q-6 0 -7 -6l-88 -315h246l-100 317q-1 4 -6 4z" />
    <glyph glyph-name="B" unicode="B" horiz-adv-x="642" 
d="M562 582v-117q0 -16 -2 -30.5t-11 -25.5l-47 -59l69 -53q12 -11 16.5 -20.5t4.5 -27.5v-172q0 -32 -20 -49l-71 -61q-7 -5 -20.5 -8t-27.5 -3h-359q-12 0 -18 6.5t-6 17.5v701q0 10 6.5 15.5t14.5 5.5h323q14 0 27.5 -3.5t20.5 -8.5l80 -59q11 -8 15.5 -21.5t4.5 -27.5z
M172 43h257q8 0 11 1t7 4l34 31q6 5 7.5 11t1.5 11v132q0 17 -11 26l-36 24q-7 5 -14 7t-21 2h-236v-249zM172 377h214q8 0 19 2t17 8l29 34q9 9 9 28v114q0 17 -7 22l-36 27q-6 4 -19 4h-226v-239z" />
    <glyph glyph-name="C" unicode="C" horiz-adv-x="629" 
d="M168 533v-407q0 -10 6 -17l65 -66q5 -5 15 -5h178q16 0 31 8l90 49q3 2 6.5 2t5.5 -4l32 -65q3 -8 -3 -12l-91 -52q-15 -8 -28 -10.5t-30 -2.5h-221q-32 0 -50 17l-92 96q-13 13 -14.5 29t-1.5 21v426q0 7 1.5 24t14.5 30l92 95q13 13 32 15.5t27 2.5h195q8 0 27.5 -1.5
t33.5 -11.5l98 -66q4 -2 4.5 -6t-1.5 -7l-36 -54q-2 -4 -6 -4t-6 1l-91 54q-15 8 -33 8h-169q-10 0 -16 -6l-59 -64q-5 -5 -5.5 -10.5t-0.5 -6.5z" />
    <glyph glyph-name="D" unicode="D" horiz-adv-x="648" 
d="M84 -44q-14 0 -14 13v718q0 6 3.5 10.5t11.5 4.5h335q4 0 11 -0.5t15.5 -2t17.5 -5t15 -10.5l92 -95q13 -13 14.5 -28t1.5 -26v-407q0 -11 -2 -28.5t-15 -30.5l-91 -95q-6 -7 -15 -10.5t-17.5 -5t-15.5 -2t-11 -0.5h-336zM485 520q0 4 -0.5 12t-5.5 13l-59 64q-6 6 -16 6
h-232v-572h232q10 0 16 6l59 64q4 4 5 10t1 11v386z" />
    <glyph glyph-name="E" unicode="E" horiz-adv-x="562" 
d="M65 76v506q0 14 4.5 27.5t15.5 21.5l80 59q7 5 20.5 8.5t27.5 3.5h310q14 0 14 -12v-61q0 -5 -4 -9.5t-11 -4.5h-293q-11 0 -19 -4l-34 -27q-3 -2 -6 -7.5t-3 -14.5v-204l68 23q8 3 17.5 4.5t17.5 1.5h235q11 0 11 -10v-67q0 -7 -2.5 -8.5t-8.5 -1.5h-338v-204
q0 -17 7 -22l36 -27q5 -3 9.5 -3.5t9.5 -0.5h292q16 0 16 -12v-62q0 -6 -5 -9.5t-11 -3.5h-308q-14 0 -27.5 3.5t-20.5 8.5l-80 59q-11 8 -15.5 21.5t-4.5 27.5z" />
    <glyph glyph-name="F" unicode="F" horiz-adv-x="562" 
d="M65 -32v614q0 14 4.5 27.5t15.5 21.5l80 59q7 5 20.5 8.5t27.5 3.5h312q6 0 11.5 -3t5.5 -9v-59q0 -5 -4.5 -10.5t-10.5 -5.5h-298q-13 0 -19 -4l-36 -27q-7 -5 -7 -22v-209l68 23q8 3 17.5 4.5t17.5 1.5h240q11 0 11 -10v-67q0 -7 -2.5 -8.5t-8.5 -1.5h-343v-327
q0 -12 -15 -12h-72q-15 0 -15 12z" />
    <glyph glyph-name="G" unicode="G" horiz-adv-x="667" 
d="M607 114q0 -14 -2.5 -26.5t-13.5 -23.5l-92 -96q-18 -17 -50 -17h-225q-32 0 -50 17l-92 96q-13 13 -14.5 29t-1.5 21v426q0 7 1.5 24t14.5 30l92 95q13 13 32 15.5t27 2.5h195q8 0 27.5 -1.5t33.5 -11.5l98 -66q4 -2 4.5 -6t-1.5 -7l-36 -54q-4 -7 -12 -3l-91 54
q-15 8 -33 8h-169q-10 0 -16 -6l-59 -64q-5 -5 -5.5 -10.5t-0.5 -6.5v-407q0 -10 6 -17l65 -66q5 -5 15 -5h165q10 0 15 5l65 66q6 7 6 17v159h-145q-6 0 -8.5 1.5t-2.5 8.5v67q0 10 11 10h199q23 0 35.5 -10.5t12.5 -34.5v-213z" />
    <glyph glyph-name="H" unicode="H" horiz-adv-x="663" 
d="M70 -31v718q0 6 3 10.5t11 4.5h73q15 0 15 -14v-301h319v300q0 6 3 10.5t11 4.5h72q16 0 16 -14v-719q0 -13 -16 -13h-70q-16 0 -16 13v331h-319v-331q0 -13 -16 -13h-71q-15 0 -15 13z" />
    <glyph glyph-name="I" unicode="I" horiz-adv-x="422" 
d="M80 -44q-10 0 -10 10v66q0 10 10 10h80v574h-80q-10 0 -10 10v66q0 10 10 10h262q10 0 10 -10v-66q0 -10 -10 -10h-80v-574h80q10 0 10 -10v-66q0 -10 -10 -10h-262z" />
    <glyph glyph-name="J" unicode="J" horiz-adv-x="457" 
d="M387 690v-599q0 -32 -20 -55l-59 -67q-10 -11 -20.5 -12t-24.5 -1h-126q-16 0 -29 2t-22 8l-72 47q-4 2 -3.5 6t2.5 7l34 58q4 7 10 3l64 -36q5 -3 12.5 -5.5t15.5 -2.5h87q11 0 16 5l26 26q7 7 7 19v596q0 6 2 9.5t10 3.5h76q8 0 11 -2t3 -10z" />
    <glyph glyph-name="K" unicode="K" horiz-adv-x="624" 
d="M172 -32q0 -12 -15 -12h-73q-14 0 -14 12v721q0 13 13 13h74q8 1 11.5 -1.5t3.5 -10.5v-315h105l242 327q3 6 11 3l60 -37q7 -4 3 -11l-229 -316l248 -370q3 -5 1 -10t-10 -5h-80q-8 0 -11.5 3.5t-5.5 7.5l-226 322h-108v-321z" />
    <glyph glyph-name="L" unicode="L" horiz-adv-x="517" 
d="M481 -44h-268q-14 0 -26 2t-22 10l-80 59q-11 8 -15.5 21t-4.5 28v613q0 13 14 13h74q8 0 11 -2t3 -10v-594q0 -17 7 -22l38 -27q5 -3 9.5 -3.5t9.5 -0.5h252q14 0 14 -12v-63q0 -7 -5 -9.5t-11 -2.5z" />
    <glyph glyph-name="M" unicode="M" horiz-adv-x="868" 
d="M696 -31v618l-173 -352q-7 -12 -12.5 -21.5t-12 -16t-17 -10.5t-26.5 -4h-46q-14 0 -23 2.5t-16 8t-12.5 14.5t-12.5 23l-173 357v-619q0 -13 -16 -13h-70q-16 0 -16 13v721q0 5 2.5 8.5t11.5 3.5h102q19 0 30.5 -8.5t19.5 -27.5l195 -401h6l197 401q16 36 48 36h102
q9 0 11.5 -3.5t2.5 -8.5v-721q0 -13 -15 -13h-72q-15 0 -15 13z" />
    <glyph glyph-name="N" unicode="N" horiz-adv-x="669" 
d="M599 -20q0 -13 -5.5 -18.5t-19.5 -5.5h-28q-14 0 -27 4.5t-21 18.5l-326 527v-538q0 -12 -15 -12h-72q-9 0 -12 3.5t-3 8.5v712q0 9 4 15.5t17 6.5h31q18 0 29 -4t19 -17l328 -525v533q0 13 14 13h72q15 0 15 -12v-710z" />
    <glyph glyph-name="O" unicode="O" horiz-adv-x="654" 
d="M559 26l-60 -52q-16 -14 -33.5 -18.5t-38.5 -4.5h-200q-21 0 -38.5 4.5t-33.5 18.5l-60 52q-12 11 -21 29t-9 46v456q0 28 9 46t21 29l60 52q16 14 33.5 18.5t38.5 4.5h200q21 0 38.5 -4.5t33.5 -18.5l60 -52q12 -11 21 -29t9 -46v-456q0 -28 -9 -46t-21 -29zM167 118
q0 -14 2 -23.5t8 -16.5l30 -29q7 -6 16 -8.5t17 -2.5h174q8 0 17 2.5t16 8.5l30 29q6 7 8 16.5t2 23.5v422q0 14 -2 23.5t-8 16.5l-30 29q-7 6 -16 8.5t-17 2.5h-174q-8 0 -17 -2.5t-16 -8.5l-30 -29q-6 -7 -8 -16.5t-2 -23.5v-422z" />
    <glyph glyph-name="P" unicode="P" horiz-adv-x="614" 
d="M60 588q0 16 4.5 28.5t15.5 20.5l81 59q11 7 22 9t26 2h216q14 0 27.5 -3t20.5 -8l81 -59q11 -8 15.5 -20.5t4.5 -28.5v-228q0 -14 -3.5 -27t-16.5 -22l-80 -59q-17 -12 -48 -12h-264v-271q0 -13 -13 -13h-76q-13 0 -13 13v619zM221 620q-10 0 -15 -4l-36 -26
q-5 -4 -6.5 -8.5t-1.5 -13.5v-241h248q13 0 20 5l35 25q5 5 6 10.5t1 11.5v189q0 9 -1.5 13.5t-6.5 8.5l-36 26q-7 4 -15 4h-192z" />
    <glyph glyph-name="Q" unicode="Q" horiz-adv-x="649" 
d="M559 26l-14 -12l53 -104q3 -7 -4 -11l-50 -31q-8 -3 -11 3l-65 89q-11 -5 -19.5 -7t-21.5 -2h-200q-21 0 -38.5 4.5t-33.5 18.5l-60 52q-12 11 -21 29t-9 46v456q0 28 9 46t21 29l60 52q16 14 33.5 18.5t38.5 4.5h200q21 0 38.5 -4.5t33.5 -18.5l60 -52q12 -11 21 -29
t9 -46v-456q0 -28 -9 -46t-21 -29zM167 118q0 -14 2 -23.5t8 -16.5l30 -29q7 -6 16 -8.5t17 -2.5h174q8 0 17 2.5t16 8.5l30 29q6 7 8 16.5t2 23.5v422q0 14 -2 23.5t-8 16.5l-30 29q-7 6 -16 8.5t-17 2.5h-174q-8 0 -17 -2.5t-16 -8.5l-30 -29q-6 -7 -8 -16.5t-2 -23.5
v-422z" />
    <glyph glyph-name="R" unicode="R" horiz-adv-x="628" 
d="M65 588q0 16 4.5 28.5t15.5 20.5l81 59q11 7 22 9t26 2h213q14 0 27.5 -3t20.5 -8l81 -59q11 -8 15.5 -20.5t4.5 -28.5v-199q0 -14 -3.5 -27t-16.5 -22l-80 -69q-1 -1 -2 -1.5t-2 -1.5l134 -268q4 -7 -3 -11l-67 -33q-8 -3 -11 3l-153 300h-205v-290q0 -13 -13 -13h-76
q-13 0 -13 13v619zM226 620q-10 0 -15 -4l-36 -26q-5 -4 -6.5 -8.5t-1.5 -13.5v-222h245q13 0 20 5l35 35q5 5 6 10.5t1 11.5v160q0 9 -1.5 13.5t-6.5 8.5l-36 26q-7 4 -15 4h-189z" />
    <glyph glyph-name="S" unicode="S" horiz-adv-x="593" 
d="M456 215q0 20 -10.5 35.5t-36.5 20.5l-232 56q-26 5 -48.5 15t-39 27t-25.5 41t-9 56v86q0 5 1.5 21.5t14.5 29.5l83 87q13 14 28 15.5t23 1.5h201q16 0 31.5 -3t25.5 -10l95 -66q4 -2 4 -6.5t-2 -7.5l-35 -53q-2 -3 -5.5 -4t-5.5 0l-94 55q-8 5 -13.5 6.5t-13.5 1.5
h-170q-2 0 -7 -1t-8 -4l-45 -49q-5 -5 -5.5 -10t-0.5 -7v-77q0 -20 11.5 -35.5t44.5 -23.5l233 -58q26 -6 47 -15t35.5 -24t22 -38t7.5 -57v-120q0 -5 -1.5 -21t-14.5 -29l-75 -83q-13 -14 -27.5 -15.5t-22.5 -1.5h-220q-4 0 -22.5 1t-35.5 12l-94 60q-4 2 -4 6.5t2 7.5
l39 59q2 3 5.5 4t5.5 0l93 -55q8 -5 14 -6.5t14 -1.5h178q2 0 7 1t8 4l43 45q5 5 5.5 10.5t0.5 6.5v110z" />
    <glyph glyph-name="T" unicode="T" horiz-adv-x="582" 
d="M30 615q-10 0 -10 10v67q0 10 10 10h522q10 0 10 -10v-67q0 -10 -10 -10h-212v-646q0 -13 -15 -13h-72q-15 0 -15 13v646h-208z" />
    <glyph glyph-name="U" unicode="U" horiz-adv-x="664" 
d="M65 106v580q0 16 14 16h76q12 0 12 -14v-565q0 -14 2 -23.5t8 -16.5l30 -29q7 -6 16 -8.5t17 -2.5h184q8 0 17 2t16 8l30 29q6 7 8 16.5t2 23.5v564q0 16 14 16h76q12 0 12 -14v-583q0 -28 -9 -46t-21 -29l-60 -52q-16 -14 -28.5 -18t-33.5 -4h-220q-21 0 -38.5 4.5
t-33.5 18.5l-60 52q-12 11 -21 29t-9 46z" />
    <glyph glyph-name="V" unicode="V" horiz-adv-x="649" 
d="M275 -44q-17 0 -27.5 13t-15.5 27l-212 690q0 16 14 16h75q12 0 15 -14l190 -639q2 -6 6 -6h4q5 0 6 4l195 641q2 7 3.5 10.5t8.5 3.5h78q14 0 14 -15l-217 -691q-8 -19 -20 -29.5t-38 -10.5h-79z" />
    <glyph glyph-name="W" unicode="W" horiz-adv-x="969" 
d="M450 518h69q25 0 33 -11t13 -27l123 -433q1 -4 6 -4h6q4 0 6 6l140 639q3 14 15 14h75q16 0 12 -16l-155 -690q-5 -14 -15.5 -27t-27.5 -13h-86q-26 0 -38 10.5t-20 29.5l-122 448l-121 -448q-8 -19 -20 -29.5t-38 -10.5h-86q-17 0 -27.5 13t-15.5 27l-155 690
q-4 16 12 16h75q12 0 15 -14l140 -639q2 -6 6 -6h6q5 0 6 4l123 433q5 16 13 27t33 11z" />
    <glyph glyph-name="X" unicode="X" horiz-adv-x="623" 
d="M314 380q4 0 6 3l165 305q2 5 5.5 9.5t11.5 4.5h83q16 0 10 -15l-186 -352l192 -363q6 -16 -9 -16h-83q-7 0 -9.5 4.5t-5.5 9.5l-174 318q-2 3 -4 3h-10q-3 0 -4 -3l-173 -318q-3 -6 -6 -10t-10 -4h-82q-16 0 -9 16l191 363l-186 352q-2 8 1.5 11.5t10.5 3.5h81
q7 0 10 -3.5t6 -9.5l165 -305q2 -4 8 -4h5z" />
    <glyph glyph-name="Y" unicode="Y" horiz-adv-x="627" 
d="M346 -44h-71q-16 0 -16 13v293q-14 2 -24 15t-16 25l-197 381q-3 5 0 12t10 7h80q7 0 10 -2.5t6 -8.5l171 -341q2 -6 6 -6h16q5 0 6 4l173 341q6 13 16 13h78q16 0 12 -15l-199 -385q-8 -17 -19 -27.5t-27 -12.5v-293q0 -13 -15 -13z" />
    <glyph glyph-name="Z" unicode="Z" horiz-adv-x="563" 
d="M137 86q-5 -5 -6.5 -13.5t-1.5 -15.5v-14h389q15 0 15 -14v-60q0 -13 -16 -13h-465q-14 0 -18 5.5t-4 16.5v83q0 42 18 62l355 438q6 7 11 18.5t5 25.5v10h-356q-15 0 -15 14v60q0 13 16 13h432q14 0 18 -5.5t4 -16.5v-85q0 -20 -3.5 -35t-14.5 -27z" />
    <glyph glyph-name="bracketleft" unicode="[" horiz-adv-x="345" 
d="M100 775q0 6 3.5 10.5t11.5 4.5h180q10 0 10 -10v-67q0 -10 -10 -10h-93v-740h93q10 0 10 -10v-67q0 -10 -10 -10h-180q-15 0 -15 13v886z" />
    <glyph glyph-name="backslash" unicode="\" horiz-adv-x="1064" 
d="M30 323q-10 0 -10 10v63q0 10 10 10h92l-63 280q-4 16 12 16h75q12 0 15 -14l61 -282h181l39 162q5 16 13 27t33 11h70q22 0 30.5 -11t13.5 -28l40 -161h187l61 284q2 6 4 9t9 3h76q15 0 12 -15l-63 -281h106q10 0 10 -10v-63q0 -10 -10 -10h-125l-73 -327
q-8 -19 -20 -29.5t-38 -10.5h-85q-17 0 -27.5 13t-15.5 27l-78 327h-97l-75 -327q-8 -19 -20 -29.5t-38 -10.5h-83q-17 0 -27.5 13t-15.5 27l-75 327h-111zM733 49q2 -6 6 -6h8q5 0 6 4l59 276h-149zM299 49q2 -6 6 -6h6q5 0 6 4l66 276h-143zM494 406h58l-29 122z" />
    <glyph glyph-name="bracketright" unicode="]" horiz-adv-x="345" 
d="M245 -111q0 -13 -15 -13h-180q-10 0 -10 10v67q0 10 10 10h93v740h-93q-10 0 -10 10v67q0 10 10 10h180q8 0 11.5 -4.5t3.5 -10.5v-886z" />
    <glyph glyph-name="asciicircum" unicode="^" horiz-adv-x="546" 
d="M273 611l-109 -189q-7 -10 -21 -10h-75q-5 0 -7 7.5t2 11.5l176 289q5 5 9.5 7t10.5 3h29q11 0 19 -9l176 -289q4 -4 2 -11.5t-7 -7.5h-75q-14 0 -21 10z" />
    <glyph glyph-name="underscore" unicode="_" horiz-adv-x="530" 
d="M30 -129q-10 0 -10 10v67q0 10 10 10h470q10 0 10 -10v-67q0 -10 -10 -10h-470z" />
    <glyph glyph-name="grave" unicode="`" horiz-adv-x="286" 
d="M145 784q13 0 16 -5t5 -11l59 -195q2 -7 -5 -7h-62q-13 0 -19 15l-80 193v5.5t6 4.5h80z" />
    <glyph glyph-name="a" unicode="a" horiz-adv-x="569" 
d="M111 422q-10 0 -10 10v66q0 11 11 11h255q17 0 29 -4.5t21 -12.5l76 -61q11 -9 13.5 -21t2.5 -29v-303q0 -12 -3 -26.5t-20 -29.5l-56 -52q-12 -11 -24.5 -12.5t-35.5 -1.5h-182q-13 0 -26 2t-22 9l-70 53q-16 10 -23 25.5t-7 32.5v104q0 22 8.5 34.5t16.5 18.5l79 66
q10 8 19.5 10.5t22.5 2.5h139q25 0 46.5 -10t35.5 -24v93q0 6 -2 11t-9 10l-28 21q-8 7 -22 7h-235zM142 86q0 -11 5 -15l31 -24q6 -4 15 -4h181q16 0 24.5 9.5t8.5 20.5v118q0 16 -10.5 27.5t-26.5 11.5h-176q-12 0 -19 -4l-26 -20q-7 -6 -7 -17v-103z" />
    <glyph glyph-name="b" unicode="b" horiz-adv-x="584" 
d="M60 730q0 13 13 13h76q13 0 13 -13v-252q16 13 36.5 22t52.5 9h135q31 0 48 -12l80 -59q13 -9 16.5 -22t3.5 -27v-314q0 -16 -4.5 -28.5t-15.5 -20.5l-81 -59q-7 -5 -20.5 -8t-27.5 -3h-176q-15 0 -26 2t-22 9l-81 59q-11 8 -15.5 20.5t-4.5 28.5v655zM373 43q8 0 15 4
l36 26q5 4 6.5 8.5t1.5 13.5v274q0 17 -7 22l-36 27q-5 4 -19 4h-166q-10 0 -22 -3.5t-20 -8.5v-315q0 -9 1.5 -13.5t6.5 -8.5l36 -26q5 -4 15 -4h152z" />
    <glyph glyph-name="c" unicode="c" horiz-adv-x="541" 
d="M50 117v227q0 5 2 21t15 29l95 98q10 10 22.5 13.5t28.5 3.5h143q13 0 29 -2t30 -11l92 -59q9 -5 3 -13l-34 -54q-4 -7 -11 -4l-82 49q-8 5 -15 6t-15 1h-118q-10 0 -15 -5l-62 -64q-5 -5 -5.5 -8.5t-0.5 -8.5v-211q0 -1 0.5 -6.5t5.5 -10.5l61 -63q6 -6 16 -6h130
q8 0 13.5 1.5t13.5 6.5l81 51q7 2 11 -4l35 -57q2 -3 1.5 -7t-4.5 -6l-92 -59q-14 -8 -30 -10.5t-29 -2.5h-153q-20 0 -31 4t-20 13l-94 98q-13 13 -15 29t-2 21z" />
    <glyph glyph-name="d" unicode="d" horiz-adv-x="584" 
d="M524 75q0 -16 -4.5 -28.5t-15.5 -20.5l-81 -59q-11 -7 -22 -9t-26 -2h-176q-14 0 -27.5 3t-20.5 8l-81 59q-11 8 -15.5 20.5t-4.5 28.5v314q0 14 3.5 27t16.5 22l80 59q8 6 21 9t27 3h135q32 0 52.5 -9t36.5 -22v252q0 13 13 13h76q13 0 13 -13v-655zM363 43q10 0 15 4
l36 26q5 4 6.5 8.5t1.5 13.5v315q-8 5 -20 8.5t-22 3.5h-166q-14 0 -19 -4l-36 -27q-7 -5 -7 -22v-274q0 -9 1.5 -13.5t6.5 -8.5l36 -26q7 -4 15 -4h152z" />
    <glyph glyph-name="e" unicode="e" horiz-adv-x="564" 
d="M473 43q10 0 10 -10v-66q0 -11 -11 -11h-280q-17 0 -29 4.5t-21 12.5l-76 61q-11 9 -13.5 21t-2.5 29v303q0 12 3 26.5t20 29.5l56 52q12 11 24.5 12.5t35.5 1.5h187q13 0 26 -2t22 -9l70 -53q16 -10 23 -25.5t7 -32.5v-90q0 -22 -8.5 -34.5t-16.5 -18.5l-78 -65
q-10 -8 -19.5 -10.5t-22.5 -2.5h-146q-25 0 -46 10t-35 24v-108q0 -6 2 -11t9 -10l27 -21q8 -7 22 -7h261zM422 379q0 11 -5 15l-31 24q-6 4 -15 4h-186q-16 0 -24.5 -9.5t-8.5 -20.5v-108q0 -16 11.5 -25t27.5 -9h179q12 0 19 4l26 20q7 6 7 17v88z" />
    <glyph glyph-name="f" unicode="f" horiz-adv-x="437" 
d="M30 359q-7 0 -8.5 2.5t-1.5 7.5v66q0 11 11 11h110v155q0 28 9 40l70 84q10 10 22 13.5t28 3.5h136q11 0 11 -11v-66q0 -5 -1.5 -7.5t-8.5 -2.5h-118q-10 0 -15 -5l-25 -31q-6 -7 -6 -20v-153h151q11 0 11 -11v-66q0 -5 -1.5 -7.5t-8.5 -2.5h-152v-390q0 -13 -16 -13h-71
q-15 0 -15 13v390h-111z" />
    <glyph glyph-name="g" unicode="g" horiz-adv-x="584" 
d="M422 -58v112q-14 -14 -35 -24t-46 -10h-143q-14 0 -27 3t-21 9l-80 59q-13 9 -16.5 22t-3.5 27v250q0 16 4.5 28.5t15.5 20.5l81 59q7 5 20.5 8t27.5 3h176q15 0 26 -2t22 -9l81 -59q11 -8 15.5 -20.5t4.5 -28.5v-446q0 -15 -2.5 -27t-13.5 -23l-75 -77
q-10 -10 -22 -13.5t-28 -3.5h-260q-11 0 -11 11v65q0 5 1.5 7.5t8.5 2.5h247q10 0 15 5l32 34q6 6 6 17zM422 370q0 9 -1.5 13.5t-6.5 8.5l-36 26q-5 4 -15 4h-152q-8 0 -15 -4l-36 -26q-5 -4 -6.5 -8.5t-1.5 -13.5v-210q0 -17 7 -22l36 -27q5 -4 19 -4h169q16 0 27.5 9
t11.5 25v229z" />
    <glyph glyph-name="h" unicode="h" horiz-adv-x="594" 
d="M162 480q20 15 51 22t57 7h113q14 0 29 -3t22 -8l79 -59q14 -10 17.5 -23t3.5 -28v-419q0 -13 -16 -13h-70q-16 0 -16 13v409q0 8 -2 12t-7 8l-32 20q-6 4 -18 4h-144q-20 0 -39.5 -7t-27.5 -15v-430q0 -14 -18 -14h-69q-8 0 -11.5 4.5t-3.5 10.5v759q0 12 13 12h76
q13 0 13 -13v-249z" />
    <glyph glyph-name="i" unicode="i" horiz-adv-x="241" 
d="M70 494q0 6 3.5 10.5t11.5 4.5h70q16 0 16 -14v-526q0 -13 -14 -13h-72q-15 0 -15 13v525zM70 708q0 6 1.5 10t9.5 4h76q14 0 14 -14v-93q0 -13 -14 -13h-74q-8 0 -10.5 3.5t-2.5 8.5v94z" />
    <glyph glyph-name="j" unicode="j" horiz-adv-x="292" 
d="M120 494q0 6 3.5 10.5t11.5 4.5h68q8 0 13 -3t5 -11v-486v-31.5t-3.5 -31t-13 -31t-28.5 -30.5l-118 -82q-10 -8 -16 -2l-40 46q-4 6 0 11l105 97q11 13 12 28.5t1 32.5v478zM120 708q0 6 1.5 10t9.5 4h76q8 0 11 -2.5t3 -10.5v-94q0 -13 -15 -13h-74q-8 0 -10 4t-2 9v93
z" />
    <glyph glyph-name="k" unicode="k" horiz-adv-x="568" 
d="M171 -31q0 -13 -15 -13h-73q-8 0 -10.5 3.5t-2.5 8.5v761q0 13 13 13h74q9 0 11.5 -2.5t2.5 -9.5v-429h85l198 237q3 6 11 3l58 -38q7 -4 3 -11l-192 -240l221 -274q5 -8 2 -15t-11 -7h-76q-14 0 -20 10l-206 248h-73v-245z" />
    <glyph glyph-name="l" unicode="l" horiz-adv-x="306" 
d="M70 729q0 13 13 13h73q8 1 11.5 -1.5t3.5 -10.5v-653q0 -12 9 -18l19 -13q3 -2 8.5 -2.5t10.5 -0.5h58q7 0 8.5 -2.5t1.5 -7.5v-66q0 -11 -11 -11h-69q-14 0 -36.5 1t-34.5 12l-46 42q-14 12 -16.5 26.5t-2.5 33.5v658z" />
    <glyph glyph-name="m" unicode="m" horiz-adv-x="864" 
d="M516 407l-28 -23q-5 -5 -5 -12v-403q0 -13 -16 -13h-69q-16 0 -16 13v382q0 17 -7 22l-37 35q-2 2 -5.5 3t-9.5 1h-101q-10 0 -17 -4l-33 -24q-3 -2 -6.5 -7t-3.5 -16v-392q0 -13 -16 -13h-70q-16 0 -16 13v411q0 33 23 50l77 58q9 7 21.5 9t26.5 2h123q20 0 32 -4
t20 -11l44 -41l44 39q10 8 22.5 12.5t30.5 4.5h132q14 0 26.5 -2t21.5 -9l77 -58q23 -17 23 -50v-411q0 -13 -16 -13h-70q-16 0 -16 13v392q0 11 -3.5 16t-6.5 7l-33 24q-7 4 -17 4h-108q-12 0 -18 -5z" />
    <glyph glyph-name="n" unicode="n" horiz-adv-x="595" 
d="M391 509q29 0 43 -11l81 -59q11 -8 15.5 -21t4.5 -28v-421q0 -13 -16 -13h-70q-16 0 -16 13v399q0 16 -7 21l-35 27q-8 6 -17 6h-154q-9 0 -15 -4l-34 -24q-3 -2 -6 -6.5t-3 -13.5v-405q0 -13 -16 -13h-70q-16 0 -16 13v421q0 14 4.5 27.5t15.5 21.5l80 59q18 11 48 11
h183z" />
    <glyph glyph-name="o" unicode="o" horiz-adv-x="594" 
d="M534 370v-280q0 -21 -9.5 -37t-20.5 -27l-58 -52q-18 -16 -35.5 -19.5t-34.5 -3.5h-158q-20 0 -38 5t-32 18l-58 52q-13 11 -21.5 27t-8.5 37v280q0 21 8 37t22 27l58 52q17 16 35 19.5t35 3.5h158q18 0 35 -3t35 -20l58 -52q12 -11 21 -27t9 -37zM432 94v272q0 16 -7 22
l-29 28q-6 6 -17 6h-164q-10 0 -17 -6l-29 -28q-7 -6 -7 -22v-272q0 -6 1 -11.5t6 -10.5l29 -28q7 -6 17 -6h164q9 0 17 6l29 28q7 6 7 22z" />
    <glyph glyph-name="p" unicode="p" horiz-adv-x="584" 
d="M60 -193v583q0 16 4.5 28.5t15.5 20.5l81 59q11 7 22 9t26 2h176q14 0 27.5 -3t20.5 -8l81 -59q11 -8 15.5 -20.5t4.5 -28.5v-270q0 -14 -3.5 -27t-16.5 -22l-80 -59q-17 -12 -48 -12h-143q-25 0 -46 10t-35 24v-227q0 -13 -13 -13h-76q-13 0 -13 13zM370 87q14 0 19 4
l36 27q7 5 7 22v230q0 9 -1.5 13.5t-6.5 8.5l-36 26q-7 4 -15 4h-152q-10 0 -15 -4l-36 -26q-5 -4 -6.5 -8.5t-1.5 -13.5v-249q0 -16 11.5 -25t27.5 -9h169z" />
    <glyph glyph-name="q" unicode="q" horiz-adv-x="584" 
d="M524 -187q0 -13 -13 -13h-76q-13 0 -13 13v221q-14 -14 -35 -24t-46 -10h-143q-14 0 -27 3t-21 9l-80 59q-13 9 -16.5 22t-3.5 27v270q0 16 4.5 28.5t15.5 20.5l81 59q7 5 20.5 8t27.5 3h176q15 0 26 -2t22 -9l81 -59q11 -8 15.5 -20.5t4.5 -28.5v-577zM383 87
q16 0 27.5 9t11.5 25v249q0 9 -1.5 13.5t-6.5 8.5l-36 26q-5 4 -15 4h-152q-8 0 -15 -4l-36 -26q-5 -4 -6.5 -8.5t-1.5 -13.5v-230q0 -17 7 -22l36 -27q5 -4 19 -4h169z" />
    <glyph glyph-name="r" unicode="r" horiz-adv-x="412" 
d="M208 509h173q11 0 11 -11v-66q0 -5 -1.5 -7.5t-8.5 -2.5h-150q-10 0 -15 -5l-49 -50q-6 -6 -6 -17v-381q0 -13 -15 -13h-72q-15 0 -15 13v386q0 15 2.5 27t13.5 23l82 87q10 10 22 13.5t28 3.5z" />
    <glyph glyph-name="s" unicode="s" horiz-adv-x="553" 
d="M178 -49q-4 0 -23 1t-36 12l-74 48q-8 6 -2 14l35 57q4 5 9 2l68 -39q8 -5 16 -6.5t16 -1.5h174q12 0 17 4l19 19q4 4 4 12v67q0 17 -7.5 27.5t-24.5 12.5l-218 37q-52 10 -74 42.5t-22 71.5v60q0 11 4.5 25.5t25.5 33.5l57 50q13 10 25.5 12t25.5 2h172q14 0 29 -2.5
t29 -9.5l68 -35q6 -2 4 -9l-28 -59q-4 -8 -13 -4l-68 28q-9 4 -14.5 4.5t-14.5 0.5h-155q-11 0 -17 -5l-23 -23q-5 -6 -5 -19v-44q0 -22 8 -29.5t19 -9.5l220 -40q29 -6 48 -16.5t30.5 -25.5t16 -33.5t4.5 -38.5v-77q0 -12 -3.5 -24.5t-16.5 -24.5l-55 -53q-9 -8 -22.5 -11
t-27.5 -3h-200z" />
    <glyph glyph-name="t" unicode="t" horiz-adv-x="429" 
d="M289 43h100q7 0 8.5 -2.5t1.5 -7.5v-66q0 -11 -11 -11h-116q-17 0 -29 4.5t-21 12.5l-76 61q-10 8 -13 20.5t-3 29.5v338h-100q-10 0 -10 10v66q0 11 11 11h99v180q0 13 15 13h71q16 0 16 -13v-180h151q12 0 12 -11v-66q0 -10 -11 -10h-152v-330q0 -6 2 -11t9 -10l27 -21
q5 -3 9 -5t10 -2z" />
    <glyph glyph-name="u" unicode="u" horiz-adv-x="589" 
d="M60 106v387q0 16 14 16h76q12 0 12 -14v-373q0 -14 2 -23.5t8 -16.5l30 -29q7 -6 16 -8.5t17 -2.5h119q8 0 17 2.5t16 8.5l30 29q6 7 8 16.5t2 23.5v371q0 16 14 16h76q12 0 12 -14v-390q0 -28 -9 -46t-21 -29l-60 -52q-16 -14 -28.5 -18t-33.5 -4h-155q-21 0 -38.5 4.5
t-33.5 18.5l-60 52q-12 11 -21 29t-9 46z" />
    <glyph glyph-name="v" unicode="v" horiz-adv-x="567" 
d="M232 -44q-17 0 -27.5 13t-15.5 27l-168 497q-5 16 11 16h77q11 0 16 -14l145 -446q2 -6 6 -6h13q4 0 6 5l148 447q2 7 5 10.5t10 3.5h75q7 0 11 -4t2 -11l-170 -498q-7 -20 -19.5 -30t-38.5 -10h-86z" />
    <glyph glyph-name="w" unicode="w" horiz-adv-x="835" 
d="M272 -44h-76q-17 0 -27.5 13t-15.5 27l-132 497q-5 16 11 16h71q11 0 16 -14l115 -446q2 -6 6 -6h5q5 0 6 4l93 295q10 32 40 32h74q17 0 25.5 -9.5t11.5 -21.5l89 -294q2 -6 6 -6h5q5 0 6 4l113 448q2 7 5 10.5t10 3.5h72q7 0 11 -4t2 -11l-132 -498q-8 -19 -20 -29.5
t-38 -10.5h-76q-17 0 -28 13t-15 27l-84 303l-91 -303q-8 -19 -20 -29.5t-38 -10.5z" />
    <glyph glyph-name="x" unicode="x" horiz-adv-x="530" 
d="M268 288q2 0 3 2l135 214q3 5 10 5h86q4 0 5.5 -6t-0.5 -10l-155 -253l157 -268q2 -4 0.5 -10t-5.5 -6h-86q-6 0 -9 4l-138 236q-1 2 -4 2h-4q-3 0 -4 -2l-137 -236q-3 -4 -9 -4h-87q-4 0 -5.5 6t0.5 10l157 268l-155 252q-2 4 -0.5 10.5t5.5 6.5h89q9 0 12 -5l130 -214
q1 -2 3 -2h6z" />
    <glyph glyph-name="y" unicode="y" horiz-adv-x="569" 
d="M407 496q0 13 13 13h76q13 0 13 -13v-552q0 -15 -2.5 -27t-13.5 -23l-75 -77q-10 -10 -22 -13.5t-28 -3.5h-255q-11 0 -11 11v65q0 5 1.5 7.5t8.5 2.5h242q10 0 15 5l32 34q6 6 6 17v112q-14 -14 -35 -24t-46 -10h-128q-13 0 -26 2t-22 9l-70 53q-16 10 -23 25.5t-7 32.5
v354q0 13 13 13h76q13 0 13 -13v-346q0 -11 5 -15l31 -24q6 -4 15 -4h165q16 0 27.5 9t11.5 25v355z" />
    <glyph glyph-name="z" unicode="z" horiz-adv-x="481" 
d="M135 74q-6 -6 -6 -13v-18h307q15 0 15 -14v-60q0 -13 -16 -13h-383q-14 0 -18 5.5t-4 16.5v75q0 17 6 33.5t19 28.5l279 275q7 7 7 15v17h-287q-15 0 -15 14v60q0 13 16 13h363q14 0 18 -5.5t4 -16.5v-74q0 -20 -3.5 -32t-14.5 -24z" />
    <glyph glyph-name="braceleft" unicode="{" horiz-adv-x="394" 
d="M145 444v184q0 28 9 40l70 81q10 10 22 13.5t28 3.5h69q11 0 11 -11v-66q0 -5 -1.5 -7.5t-8.5 -2.5h-50q-10 0 -15 -5l-26 -32q-6 -7 -6 -20v-170q0 -52 -16.5 -81.5t-53.5 -49.5q37 -20 53.5 -49.5t16.5 -81.5v-164q0 -13 6 -20l26 -32q5 -5 15 -5h50q7 0 8.5 -2.5
t1.5 -7.5v-66q0 -11 -11 -11h-69q-16 0 -28 3.5t-22 13.5l-70 81q-9 12 -9 40v178q0 17 -0.5 29.5t-5.5 21.5t-17 16t-35 13q-7 1 -7 10v65q0 10 8 11q23 6 35 13t17 16t5 21.5v29.5z" />
    <glyph glyph-name="bar" unicode="|" horiz-adv-x="267" 
d="M90 741q0 13 13 13h59q8 1 11.5 -1.5t3.5 -10.5v-854q0 -12 -15 -12h-57q-15 0 -15 12v853z" />
    <glyph glyph-name="braceright" unicode="}" horiz-adv-x="394" 
d="M249 444v-29.5t5 -21.5t17 -16t35 -13q8 -1 8 -11v-65q0 -9 -7 -10q-23 -6 -35 -13t-17 -16t-5.5 -21.5t-0.5 -29.5v-178q0 -28 -9 -40l-70 -81q-10 -10 -22 -13.5t-28 -3.5h-69q-11 0 -11 11v66q0 5 1.5 7.5t8.5 2.5h50q10 0 15 5l26 32q6 7 6 20v164q0 52 16.5 81.5
t53.5 49.5q-37 20 -53.5 49.5t-16.5 81.5v170q0 13 -6 20l-26 32q-5 5 -15 5h-50q-7 0 -8.5 2.5t-1.5 7.5v66q0 11 11 11h69q16 0 28 -3.5t22 -13.5l70 -81q9 -12 9 -40v-184z" />
    <glyph glyph-name="asciitilde" unicode="~" horiz-adv-x="567" 
d="M520 347q2 -11 -5 -18q-8 -10 -22 -22.5t-32.5 -23.5t-41 -18.5t-47.5 -7.5t-47.5 11.5t-44 25.5t-43 25.5t-43.5 11.5q-15 0 -31.5 -6.5t-32 -15.5t-28 -19t-20.5 -17q-5 -3 -9 -1t-5 5l-19 58q-2 5 0 9.5t5 7.5q6 7 19.5 18.5t32 23t41.5 20t47 8.5q29 0 53.5 -12.5
t45.5 -27t40.5 -26t37.5 -8.5q37 5 65 21t44 33q4 4 8.5 3.5t6.5 -4.5z" />
    <glyph glyph-name="NULL" 
 />
    <glyph glyph-name="NULL" 
 />
    <glyph glyph-name="exclamdown" unicode="&#xa1;" horiz-adv-x="900" 
d="M503 -192q0 -13 -14 -13h-80q-8 0 -10 4t-2 9l17 560q0 12 14 12h44q14 0 14 -12zM504 483q0 -11 -15 -15h-78q-15 0 -15 14v105q0 13 16 13h76q16 0 16 -13v-104z" />
    <glyph glyph-name="currency" unicode="&#xa4;" horiz-adv-x="900" 
d="M186 252q0 53 15.5 94.5t41.5 72.5l-69 73q-8 8 0 14l50 47q7 7 14 0l74 -77q64 35 138 35q38 0 75.5 -10t69.5 -30l79 82q7 7 14 0l50 -47q8 -6 0 -14l-76 -79q24 -31 38 -71t14 -90q0 -43 -12.5 -80t-33.5 -67l71 -73q7 -7 -1 -14l-49 -47q-7 -7 -15 1l-68 71
q-35 -25 -75 -37.5t-81 -12.5q-39 0 -77 11.5t-72 33.5l-63 -66q-8 -8 -15 -1l-49 47q-8 7 -1 14l64 66q-24 31 -37.5 69.5t-13.5 84.5zM288 252q0 -39 13 -71t35.5 -54.5t52 -35t61.5 -12.5t61.5 12.5t52 35t35.5 54.5t13 71q0 43 -13 75t-35.5 54t-52 33t-61.5 11
t-61.5 -11t-52 -33t-35.5 -54t-13 -75z" />
    <glyph glyph-name="section" unicode="&#xa7;" horiz-adv-x="420" 
d="M276 331q0 28 -17.5 48t-45.5 33q-20 -6 -36 -27t-16 -44q0 -29 23.5 -48.5t50.5 -32.5q20 12 30.5 32t10.5 39zM370 84q0 -23 -9 -46t-25.5 -41t-40.5 -29.5t-54 -11.5h-95q-4 0 -22 1t-35 12l-35 26q-8 6 -2 14l35 53q2 3 5.5 4t5.5 0l24 -15q5 -3 12.5 -5.5t18.5 -2.5
h75q45 0 45 38q-1 35 -26.5 60t-65.5 50q-20 12 -40 26t-35.5 31.5t-25.5 39.5t-10 50q0 39 19 68t53 52q-33 23 -55.5 51.5t-22.5 69.5q0 23 9 46t25.5 41t40.5 29.5t54 11.5h65q4 0 22 -1t35 -12l35 -26q8 -6 2 -14l-35 -53q-2 -3 -5.5 -4t-5.5 0l-24 15q-5 3 -12.5 5.5
t-18.5 2.5h-45q-45 0 -45 -38q0 -16 8.5 -28.5t22.5 -24.5t33 -23.5t40 -26.5q57 -40 79 -76t22 -79q0 -29 -13.5 -57t-45.5 -52q29 -25 46 -58.5t17 -72.5z" />
    <glyph glyph-name="dieresis" unicode="&#xa8;" horiz-adv-x="500" 
d="M90 724h74q7 0 11 -4.5t4 -9.5v-75q0 -5 -3.5 -9.5t-11.5 -4.5h-74q-8 0 -11 4.5t-3 9.5v75q0 5 3.5 9.5t10.5 4.5zM336 724h74q7 0 10.5 -4.5t3.5 -9.5v-75q0 -5 -3 -9.5t-11 -4.5h-74q-8 0 -11.5 4.5t-3.5 9.5v75q0 5 4 9.5t11 4.5z" />
    <glyph glyph-name="ordfeminine" unicode="&#xaa;" horiz-adv-x="480" 
d="M75 228q-9 0 -9 10v53q0 10 9 10h330q9 0 9 -10v-53q0 -10 -9 -10h-330zM133 673q-9 0 -12 3t-3 11v44q0 8 3 11t12 3h168q13 0 22 -3.5t16 -8.5l50 -41q9 -8 12 -17.5t3 -20.5v-199q0 -8 -2.5 -19t-14.5 -22l-38 -35q-9 -8 -19 -9.5t-27 -1.5h-119q-9 0 -19 1.5t-18 7.5
l-47 36q-10 8 -16.5 19t-6.5 23v69q0 16 8 25.5t13 14.5l52 44q7 5 14.5 7.5t18.5 2.5h95q22 0 39 -11v40q0 8 -5 11l-13 11q-5 4 -11 4h-155zM164 466q0 -8 3 -11l12 -11q5 -4 11 -4h116q5 0 8 4t3 8v81q0 15 -16 15h-114q-3 0 -7 -2l-13 -11q-3 -3 -3 -6v-63z" />
    <glyph glyph-name="uni00AD" unicode="&#xad;" horiz-adv-x="580" 
d="M90 300q-10 0 -10 10v67q0 10 10 10h400q10 0 10 -10v-67q0 -10 -10 -10h-400z" />
    <glyph glyph-name="registered" unicode="&#xae;" horiz-adv-x="900" 
d="M877 327q0 -88 -34 -166t-92 -136t-136 -91.5t-166 -33.5q-89 0 -167 33.5t-135.5 91.5t-91 136t-33.5 166t33.5 165t91 135t135.5 91.5t167 33.5q88 0 166 -33.5t136 -91.5t92 -135t34 -165zM91 327q0 -75 28 -141t77 -116t114 -79t139 -29t139.5 29t114 79t77 116
t28.5 141q0 74 -28.5 140t-77 115.5t-114 78.5t-139.5 29t-139 -29t-114 -78.5t-77 -115.5t-28 -140zM363 267v-202q0 -17 -16 -17h-64q-16 0 -16 17v458q0 9 2.5 15.5t12.5 14.5l65 48q12 8 28 8h177q16 0 28 -8l65 -48q10 -8 12.5 -14.5t2.5 -15.5v-169q0 -10 -2.5 -16
t-12.5 -14l-58 -43l96 -191q5 -10 -7 -16l-56 -27q-11 -5 -18 5l-108 215h-131zM563 374v128q0 5 -3 8l-20 17q-5 3 -10 3h-134q-5 0 -9 -3l-20 -17q-4 -4 -4 -8v-155h167q5 0 10 3l20 16q3 3 3 8z" />
    <glyph glyph-name="degree" unicode="&#xb0;" horiz-adv-x="350" 
d="M293 697v-32q0 -20 -8 -37t-22 -29.5t-32.5 -20t-38.5 -7.5h-34q-20 0 -38.5 7.5t-32.5 20t-22 29.5t-8 37v32q0 19 8 36.5t22 30t32.5 20t38.5 7.5h34q20 0 38.5 -7.5t32.5 -20t22 -30t8 -36.5zM222 699q0 12 -10 21t-22 9h-30q-12 0 -22 -9t-10 -21v-36q0 -12 10 -21
t22 -9h30q12 0 22 9t10 21v36z" />
    <glyph glyph-name="plusminus" unicode="&#xb1;" horiz-adv-x="580" 
d="M245 614q0 13 13 13h62q8 1 11.5 -1.5t3.5 -10.5v-158h175q10 0 10 -10v-67q0 -10 -10 -10h-175v-158q0 -12 -15 -12h-60q-15 0 -15 12v158h-175q-10 0 -10 10v67q0 10 10 10h175v157zM90 55q-10 0 -10 10v67q0 10 10 10h400q10 0 10 -10v-67q0 -10 -10 -10h-400z" />
    <glyph glyph-name="twosuperior" unicode="&#xb2;" horiz-adv-x="420" 
d="M329 366h-218q-14 0 -18.5 6t-4.5 15v90q0 32 15 55t47 33l100 30q9 3 11.5 8t2.5 10v47q0 14 -5.5 16.5t-10.5 2.5h-66q-7 0 -13 -4l-42 -27q-5 -3 -10 -2.5t-8 5.5l-25 36q-4 5 -2 9.5t7 7.5l50 33q8 5 16.5 6.5t15.5 1.5h82q18 0 33.5 -6.5t27.5 -18t19 -26.5t7 -32
v-40q0 -42 -19.5 -61t-47.5 -28l-92 -28q-17 -6 -17 -30v-44h165q16 0 16 -15v-36q0 -14 -16 -14z" />
    <glyph glyph-name="threesuperior" unicode="&#xb3;" horiz-adv-x="420" 
d="M237 522h-88q-16 0 -16 14v35q0 15 16 15h81q20 0 20 24v49q0 18 -17 18h-55q-7 0 -13 -4l-42 -27q-5 -3 -10 -2.5t-8 5.5l-25 36q-4 5 -2 9.5t7 7.5l50 33q8 5 16.5 6.5t15.5 1.5h67q18 0 34.5 -6.5t29.5 -18t21 -27t8 -32.5v-40q0 -20 -5 -34t-19 -22q13 -8 23 -25
t10 -37v-59q0 -35 -25.5 -59.5t-66.5 -24.5h-86q-7 0 -15.5 1.5t-16.5 6.5l-50 33q-5 3 -7 7.5t2 9.5l25 36q3 5 8 5.5t10 -2.5l42 -27q6 -4 13 -4h75q16 0 16 17v61q0 20 -23 20z" />
    <glyph glyph-name="acute" unicode="&#xb4;" horiz-adv-x="300" 
d="M115 760q4 11 13 11h112q13 0 9 -9l-107 -197q-4 -7 -12 -7h-75q-4 0 -5.5 3t-0.5 6z" />
    <glyph glyph-name="paragraph" unicode="&#xb6;" horiz-adv-x="880" 
d="M556 -122v798h-51v-798h-57v446q-45 0 -81.5 16t-62.5 43.5t-40 64.5t-14 79q0 40 14.5 76.5t41 64.5t64 44.5t83.5 16.5h144q16 0 16 -16v-835h-57z" />
    <glyph glyph-name="periodcentered" unicode="&#xb7;" horiz-adv-x="460" 
d="M176 358q0 10 15 15h78q15 0 15 -14v-95q0 -13 -16 -13h-76q-16 0 -16 13v94z" />
    <glyph glyph-name="cedilla" unicode="&#xb8;" horiz-adv-x="390" 
d="M96 -293q-10 0 -10 10v45q0 10 10 10h73q36 0 36 25v20q0 12 -8.5 18.5t-23.5 9.5t-34 3.5t-40 0.5q-6 0 -9 4t-2 8l32 101q3 10 13 8l64 -7q6 -1 8 -5t0 -9l-13 -48q18 -1 35 -6.5t31 -15t22.5 -22.5t8.5 -29v-37q0 -19 -10.5 -34.5t-26 -26.5t-35 -17t-37.5 -6h-84z
" />
    <glyph glyph-name="onesuperior" unicode="&#xb9;" horiz-adv-x="420" 
d="M254 721v-342q0 -15 -16 -15h-48q-16 0 -16 15v297h-33q-16 0 -16 14v36q0 15 16 15h91q15 0 18.5 -5t3.5 -15z" />
    <glyph glyph-name="ordmasculine" unicode="&#xba;" horiz-adv-x="480" 
d="M75 228q-9 0 -9 10v53q0 10 9 10h330q9 0 9 -10v-53q0 -10 -9 -10h-330zM405 651v-193q0 -16 -8 -26t-13 -15l-52 -43q-13 -10 -33 -10h-117q-20 0 -33 10l-52 43q-5 5 -13 15t-8 26v193q0 16 8 26t13 15l52 42q14 11 33 11h117q19 0 33 -11l52 -42q5 -5 13 -15t8 -26z
M319 456v197q0 2 -3 5l-14 12q-4 2 -7 2h-109q-3 0 -7 -2l-14 -12q-3 -3 -3 -5v-197q0 -3 3 -6l14 -12q2 -1 7 -1h109q5 0 7 1l14 12q3 3 3 6z" />
    <glyph glyph-name="onequarter" unicode="&#xbc;" horiz-adv-x="900" 
d="M110 224v397h-47q-6 0 -10.5 2.5t-4.5 8.5v58q0 5 4.5 8.5t10.5 3.5h113q15 0 20.5 -6.5t5.5 -18.5v-453q0 -10 -10 -10h-72q-10 0 -10 10zM465 691q4 11 13 11h81q12 0 9 -9l-291 -730q-3 -7 -10 -7h-86q-9 0 -7 6zM792 -23q0 -11 -4 -16t-15 -5h-49q-12 0 -16.5 5
t-4.5 16v90h-184q-20 0 -28 8t-8 24v23q0 9 3.5 19t7.5 22l85 271q3 9 7 10.5t9 1.5h60q20 0 14 -18l-87 -280h121v215q0 10 10 10h69q10 0 10 -10v-215h45q14 0 14 -14v-53q0 -8 -5 -11t-12 -3h-42v-90z" />
    <glyph glyph-name="onehalf" unicode="&#xbd;" horiz-adv-x="900" 
d="M115 224v397h-47q-6 0 -10.5 2.5t-4.5 8.5v58q0 5 4.5 8.5t10.5 3.5h113q15 0 20.5 -6.5t5.5 -18.5v-453q0 -10 -10 -10h-72q-10 0 -10 10zM476 691q4 11 13 11h81q12 0 9 -9l-291 -730q-3 -7 -10 -7h-86q-9 0 -7 6zM533 -18v115q0 40 19.5 69.5t59.5 43.5l127 42
q13 4 18 10.5t5 14.5v63q0 15 -6.5 20.5t-17.5 5.5h-85q-3 0 -7.5 -1t-7.5 -3l-56 -34q-15 -10 -25 5l-27 39q-3 5 -3 12.5t8 12.5l62 40q11 7 20.5 8t19.5 1h109q45 0 77 -26t32 -70v-62q0 -28 -6.5 -46.5t-18 -31.5t-27 -20.5t-33.5 -13.5l-119 -39q-11 -3 -18 -12t-7 -23
v-65h220q6 0 10.5 -3.5t4.5 -8.5v-58q0 -6 -4.5 -8.5t-10.5 -2.5h-289q-14 0 -19 8t-5 18z" />
    <glyph glyph-name="threequarters" unicode="&#xbe;" horiz-adv-x="900" 
d="M548 691q4 11 13 11h81q12 0 9 -9l-291 -730q-3 -7 -10 -7h-86q-9 0 -7 6zM831 -23q0 -11 -4 -16t-15 -5h-49q-12 0 -16.5 5t-4.5 16v90h-174q-20 0 -28 8t-8 24v23q0 9 3.5 19t7.5 22l85 271q3 9 7 10.5t9 1.5h60q20 0 14 -18l-87 -280h111v215q0 10 10 10h69
q10 0 10 -10v-215h45q14 0 14 -14v-53q0 -8 -5 -11t-12 -3h-42v-90zM213 500q11 0 18 7t7 30v63q0 19 -7.5 22t-14.5 3h-63q-3 0 -7.5 -1t-7.5 -3l-56 -34q-15 -10 -25 5l-27 39q-3 5 -3 12.5t8 12.5l62 40q11 7 20.5 8t19.5 1h77q22 0 43.5 -8.5t38 -22.5t26.5 -34t10 -42
v-53q0 -26 -9.5 -45t-20.5 -32q15 -10 27.5 -27t12.5 -51v-78q0 -23 -10 -42t-26 -33t-37.5 -22t-43.5 -8h-102q-10 0 -19.5 1t-20.5 8l-62 40q-8 5 -8 12.5t3 12.5l27 39q10 15 25 5l56 -34q3 -2 7.5 -3t7.5 -1h83q12 0 20 6.5t8 19.5v78q0 18 -8.5 23.5t-19.5 5.5h-116
q-13 0 -13 11v55q0 14 13 14h107z" />
    <glyph glyph-name="questiondown" unicode="&#xbf;" horiz-adv-x="900" 
d="M528 278q0 -60 -26.5 -99t-83.5 -60l-50 -19q-32 -12 -42.5 -27t-10.5 -35v-83q0 -22 6 -36t15 -22.5t20 -11.5t21 -3h119q14 0 27 8l90 55q4 2 8 0.5t6 -4.5l37 -55q2 -3 2 -7.5t-4 -6.5l-99 -64q-13 -9 -29 -11t-28 -2h-127q-32 0 -61.5 12t-53 32t-37.5 47.5t-14 59.5
v75q0 37 8.5 63t23.5 44.5t35.5 31t44.5 21.5l46 16q31 11 44.5 28t13.5 50v105q0 11 14 11h71q14 0 14 -13v-100zM530 483q0 -6 -3.5 -10.5t-11.5 -4.5h-78q-15 0 -15 14v105q0 13 16 13h76q16 0 16 -13v-104z" />
    <glyph glyph-name="AE" unicode="&#xc6;" horiz-adv-x="785" 
d="M326 76v137h-140l-67 -243q-3 -14 -15 -14h-75q-14 0 -14 16l200 695q5 14 18 27t35 13h93q22 0 35.5 -6t22.5 -17l7 6q7 5 20.5 8.5t27.5 3.5h260q14 0 14 -12v-61q0 -5 -4 -9.5t-11 -4.5h-243q-11 0 -19 -4l-34 -27q-3 -2 -6 -7.5t-3 -14.5v-204l68 23q8 3 17.5 4.5
t17.5 1.5h185q11 0 11 -10v-67q0 -7 -2.5 -8.5t-8.5 -1.5h-288v-204q0 -17 7 -22l36 -27q5 -3 9.5 -3.5t9.5 -0.5h242q16 0 16 -12v-62q0 -6 -5 -9.5t-11 -3.5h-258q-14 0 -27.5 3.5t-20.5 8.5l-80 59q-11 8 -15.5 21.5t-4.5 27.5zM326 582q0 10 2.5 20.5t7.5 18.5h-31
q-6 0 -7 -6l-88 -315h116v282z" />
    <glyph glyph-name="Eth" unicode="&#xd0;" horiz-adv-x="670" 
d="M20 300q-10 0 -10 10v67q0 10 10 10h71v300q0 6 3.5 10.5t11.5 4.5h335q4 0 11 -0.5t15.5 -2t17.5 -5t15 -10.5l92 -95q13 -13 14.5 -28t1.5 -26v-407q0 -11 -2 -28.5t-15 -30.5l-91 -95q-6 -7 -15 -10.5t-17.5 -5t-15.5 -2t-11 -0.5h-336q-14 0 -14 13v331h-71zM506 520
q0 4 -0.5 12t-5.5 13l-59 64q-6 6 -16 6h-232v-228h107q10 0 10 -10v-67q0 -10 -10 -10h-107v-257h232q10 0 16 6l59 64q4 4 5 10t1 11v386z" />
    <glyph glyph-name="multiply" unicode="&#xd7;" horiz-adv-x="580" 
d="M155 142q-7 -7 -14 0l-48 47q-7 7 0 14l135 135l-135 135q-7 7 0 14l48 47q6 8 14 0l134 -135l135 135q8 8 14 0l48 -47q7 -7 0 -14l-135 -135l135 -135q7 -7 0 -14l-48 -47q-4 -4 -6.5 -4.5t-7.5 4.5l-135 134z" />
    <glyph glyph-name="Oslash" unicode="&#xd8;" horiz-adv-x="650" 
d="M557 31l-60 -52q-16 -14 -33.5 -18.5t-38.5 -4.5h-166l-28 -93q-1 -7 -10 -7h-84q-7 0 -7 6l33 109q-2 2 -5 4t-5 4l-60 52q-12 11 -21 29t-9 46v451q0 28 9 46t21 29l60 52q16 14 33.5 18.5t38.5 4.5h164l26 84q1 11 13 11h79q10 0 9 -9l-31 -100l12 -9l60 -52
q12 -11 21 -29t9 -46v-451q0 -28 -9 -46t-21 -29zM412 43q8 0 17 2.5t16 8.5l30 29q6 7 8 16.5t2 23.5v417q0 14 -2 23.5t-8 16.5l-19 18l-170 -555h126zM165 123q0 -14 2 -23.5t8 -16.5l17 -17l170 554h-124q-8 0 -17 -2.5t-16 -8.5l-30 -29q-6 -7 -8 -16.5t-2 -23.5v-417z
" />
    <glyph glyph-name="Thorn" unicode="&#xde;" horiz-adv-x="645" 
d="M69 714q0 6 3.5 10.5t11.5 4.5h70q16 0 16 -14v-121h182q37 0 71 -17t59.5 -44t41 -60t15.5 -64v-86q0 -32 -15 -64.5t-41 -59.5t-60 -44t-71 -17h-182v-169q0 -13 -14 -13h-72q-15 0 -15 13v745zM354 225q16 0 31 8.5t26.5 23t18.5 34t7 41.5v68q0 22 -7 41.5t-18.5 34
t-26.5 23t-31 8.5h-184v-282h184z" />
    <glyph glyph-name="germandbls" unicode="&#xdf;" horiz-adv-x="615" 
d="M71 -31v711q0 10 6.5 15.5t14.5 5.5h313q14 0 27.5 -3.5t20.5 -8.5l80 -59q11 -8 15.5 -21.5t4.5 -27.5v-116q0 -16 -2 -30.5t-11 -25.5l-47 -59l69 -53q12 -11 16.5 -20.5t4.5 -27.5v-172q0 -32 -20 -49l-71 -61q-7 -5 -20.5 -8t-27.5 -3h-201q-15 0 -15 14v60
q0 13 16 13h176q8 0 11 1t7 4l34 31q6 5 7.5 11t1.5 11v132q0 17 -11 26l-36 24q-7 5 -14 7t-21 2h-226v-323q0 -13 -16 -13h-71q-15 0 -15 13zM173 377h204q8 0 19 2t17 8l29 34q9 9 9 28v113q0 17 -7 22l-36 27q-6 4 -19 4h-216v-238z" />
    <glyph glyph-name="ae" unicode="&#xe6;" horiz-adv-x="900" 
d="M799 43q10 0 10 -10v-66q0 -11 -11 -11h-260q-17 0 -29 4.5t-21 12.5l-36 28l-33 -31q-11 -11 -24 -12.5t-36 -1.5h-162q-13 0 -26 2t-22 9l-70 53q-16 10 -23 25.5t-7 32.5v104q0 22 8.5 34.5t16.5 18.5l79 66q10 8 19.5 10.5t22.5 2.5h119q25 0 46.5 -10t35.5 -24v93
q0 6 -2 11t-9 10l-28 21q-8 7 -22 7h-215q-10 0 -10 10v66q0 11 11 11h235q17 0 29 -4.5t21 -12.5l35 -29l34 32q12 11 24.5 12.5t35.5 1.5h167q13 0 26 -2t22 -9l70 -53q16 -10 23 -25.5t7 -32.5v-89q0 -22 -8.5 -34.5t-16.5 -18.5l-79 -66q-10 -8 -19.5 -10.5t-22.5 -2.5
h-125q-25 0 -46 10t-35 24v-112q0 -9 11 -17l27 -21q8 -7 22 -7h241zM151 86q0 -11 5 -15l31 -24q6 -4 15 -4h161q15 0 23.5 9t9.5 19v123q-2 14 -12 25t-25 11h-156q-12 0 -19 -4l-26 -20q-7 -6 -7 -17v-103zM748 379q0 11 -5 15l-31 24q-6 4 -15 4h-166q-15 0 -23.5 -9
t-9.5 -20v-109q0 -16 11.5 -25t27.5 -9h159q12 0 19 4l26 20q7 6 7 17v88z" />
    <glyph glyph-name="eth" unicode="&#xf0;" horiz-adv-x="590" 
d="M359 724q5 5 10 8t13 3h88q6 0 9 -3t0 -6l-94 -98q66 -52 107.5 -121.5t41.5 -147.5v-165q0 -49 -15 -93t-42 -77.5t-65.5 -53t-84.5 -19.5h-94q-36 0 -70 14.5t-60 39.5t-41.5 58.5t-15.5 71.5v84q0 40 15.5 74t42 59.5t62 40t76.5 14.5h62q38 -1 71.5 -17.5t56.5 -36.5
v16q0 48 -28.5 98.5t-82.5 92.5l-53 -55q-7 -7 -20 -7h-93q-5 0 -7 2t0 4l97 102q-23 11 -48.5 19.5t-54.5 14.5q-8 2 -14 5.5t-4 12.5l17 61q4 14 20 10q80 -14 152 -53zM148 143q0 -19 7.5 -38t20 -34t30 -24t37.5 -9h64q26 0 49 12t40 32.5t26.5 47.5t9.5 57v72
q-10 11 -24 22t-30 19.5t-32.5 14t-32.5 5.5h-72q-19 0 -36 -9t-29.5 -24t-20 -33.5t-7.5 -36.5v-74z" />
    <glyph glyph-name="divide" unicode="&#xf7;" horiz-adv-x="580" 
d="M70 300q-10 0 -10 10v67q0 10 10 10h440q10 0 10 -10v-67q0 -10 -10 -10h-440zM255 578h70q7 0 10.5 -4.5t3.5 -9.5v-71q0 -5 -3 -9.5t-11 -4.5h-70q-8 0 -11 4.5t-3 9.5v71q0 5 3.5 9.5t10.5 4.5zM255 208h70q7 0 10.5 -4.5t3.5 -9.5v-71q0 -5 -3 -9.5t-11 -4.5h-70
q-8 0 -11 4.5t-3 9.5v71q0 5 3.5 9.5t10.5 4.5z" />
    <glyph glyph-name="oslash" unicode="&#xf8;" horiz-adv-x="595" 
d="M354 591q1 11 13 11h81q10 0 9 -9l-29 -94q5 -2 9 -5.5t9 -7.5l58 -52q12 -11 21 -27t9 -37v-280q0 -21 -9.5 -37t-20.5 -27l-58 -52q-18 -16 -35.5 -19.5t-34.5 -3.5h-114l-26 -88q-1 -7 -10 -7h-86q-7 0 -7 6l30 101q-4 2 -7.5 5t-7.5 6l-58 52q-13 11 -21.5 27
t-8.5 37v280q0 21 8 37t22 27l58 52q17 16 35 19.5t35 3.5h111zM432 94v272q0 16 -7 22l-24 22l-112 -372h90q9 0 17 6l29 28q7 6 7 22zM198 416l-29 -28q-7 -6 -7 -22v-272q0 -6 1 -11.5t6 -10.5l21 -21l113 371h-88q-10 0 -17 -6z" />
    <glyph glyph-name="thorn" unicode="&#xfe;" horiz-adv-x="620" 
d="M69 684q0 6 3.5 10.5t11.5 4.5h70q16 0 16 -14v-204q14 16 38.5 29.5t47.5 13.5h116q37 0 71 -17t59.5 -44t41 -60t15.5 -64v-166q0 -32 -15 -64.5t-41 -59.5t-60 -44t-71 -17h-116q-23 0 -46.5 11.5t-39.5 28.5v-259q0 -13 -14 -13h-72q-15 0 -15 13v915zM457 182v148
q0 22 -7 41.5t-18.5 34t-26.5 23t-31 8.5h-120q-16 0 -31 -8.5t-26.5 -23t-18.5 -34t-7 -41.5v-148q0 -22 7 -41.5t18.5 -34t26.5 -23t31 -8.5h120q16 0 31 8.5t26.5 23t18.5 34t7 41.5z" />
    <glyph glyph-name="dcroat" unicode="&#x111;" horiz-adv-x="635" 
d="M534 598v-523q0 -16 -4.5 -28.5t-15.5 -20.5l-81 -59q-11 -7 -22 -9t-26 -2h-176q-14 0 -27.5 3t-20.5 8l-81 59q-11 8 -15.5 20.5t-4.5 28.5v314q0 14 3.5 27t16.5 22l80 59q8 6 21 9t27 3h135q32 0 52.5 -9t36.5 -22v120h-121q-10 0 -10 10v67q0 10 10 10h121v45
q0 13 13 13h76q13 0 13 -13v-45h77q10 0 10 -10v-67q0 -10 -10 -10h-77zM373 43q10 0 15 4l36 26q5 4 6.5 8.5t1.5 13.5v315q-8 5 -20 8.5t-22 3.5h-166q-14 0 -19 -4l-36 -27q-7 -5 -7 -22v-274q0 -9 1.5 -13.5t6.5 -8.5l36 -26q7 -4 15 -4h152z" />
    <glyph glyph-name="Hbar" unicode="&#x126;" horiz-adv-x="700" 
d="M93 -31v548h-69q-6 0 -10.5 5.5t-4.5 10.5v59q0 6 5.5 9t11.5 3h67v83q0 6 3 10.5t11 4.5h73q15 0 15 -14v-84h309v83q0 6 3 10.5t11 4.5h72q16 0 16 -14v-84h67q6 0 11.5 -3t5.5 -9v-59q0 -5 -4.5 -10.5t-10.5 -5.5h-69v-548q0 -13 -16 -13h-70q-16 0 -16 13v331h-309
v-331q0 -13 -16 -13h-71q-15 0 -15 13zM504 387v130h-309v-130h309z" />
    <glyph glyph-name="hbar" unicode="&#x127;" horiz-adv-x="615" 
d="M26 669h55v61q0 12 13 12h76q13 0 13 -13v-60h160q6 0 11.5 -3t5.5 -9v-59q0 -5 -4.5 -10.5t-10.5 -5.5h-162v-102q20 15 51 22t57 7h113q14 0 29 -3t22 -8l79 -59q14 -10 17.5 -23t3.5 -28v-419q0 -13 -16 -13h-70q-16 0 -16 13v409q0 15 -9 20l-32 20q-6 4 -18 4h-144
q-20 0 -39.5 -7t-27.5 -15v-430q0 -14 -18 -14h-69q-8 0 -11.5 4.5t-3.5 10.5v611h-57q-6 0 -10.5 5.5t-4.5 10.5v59q0 6 5.5 9t11.5 3z" />
    <glyph glyph-name="dotlessi" unicode="&#x131;" horiz-adv-x="240" 
d="M69 494q0 6 3.5 10.5t11.5 4.5h70q16 0 16 -14v-526q0 -13 -14 -13h-72q-15 0 -15 13v525z" />
    <glyph glyph-name="IJ" unicode="&#x132;" horiz-adv-x="790" 
d="M69 -44q-10 0 -10 10v66q0 10 10 10h80v574h-80q-10 0 -10 10v66q0 10 10 10h262q10 0 10 -10v-66q0 -10 -10 -10h-80v-574h80q10 0 10 -10v-66q0 -10 -10 -10h-262zM719 690v-599q0 -32 -20 -55l-59 -67q-10 -11 -20.5 -12t-24.5 -1h-106q-16 0 -29 2t-22 8l-69 44
q-4 2 -3.5 6t2.5 7l34 58q4 7 10 3l61 -33q5 -3 12.5 -5.5t15.5 -2.5h67q11 0 16 5l26 26q7 7 7 19v596q0 6 2 9.5t10 3.5h76q8 0 11 -2t3 -10z" />
    <glyph glyph-name="ij" unicode="&#x133;" horiz-adv-x="514" 
d="M69 494q0 6 3.5 10.5t11.5 4.5h70q16 0 16 -14v-526q0 -13 -14 -13h-72q-15 0 -15 13v525zM69 708q0 6 1.5 10t9.5 4h76q14 0 14 -14v-93q0 -13 -14 -13h-74q-8 0 -10.5 3.5t-2.5 8.5v94zM342 494q0 6 3.5 10.5t11.5 4.5h68q8 0 13 -3t5 -11v-486v-31.5t-3.5 -31t-13 -31
t-28.5 -30.5l-118 -82q-10 -8 -16 -2l-40 46q-4 6 0 11l105 97q11 13 12 28.5t1 32.5v478zM342 708q0 6 1.5 10t9.5 4h76q8 0 11 -2.5t3 -10.5v-94q0 -13 -15 -13h-74q-8 0 -10 4t-2 9v93z" />
    <glyph glyph-name="kgreenlandic" unicode="&#x138;" horiz-adv-x="560" 
d="M435 509q12 0 28 -2t29 -11l30 -22q4 -2 4 -6.5t-2 -7.5l-37 -55q-2 -3 -6 -4.5t-8 0.5l-21 13q-13 8 -27 8h-5q-14 0 -23.5 -12t-14.5 -23l-28 -54t-31 -53l228 -302q5 -8 2 -15t-11 -7h-76q-14 0 -20 10l-182 238q-21 -20 -44.5 -35t-52.5 -23v-177q0 -13 -15 -13h-73
q-8 0 -10.5 3.5t-2.5 8.5v528q0 13 13 13h74q9 0 11.5 -2.5t2.5 -9.5v-250q20 9 37 27t33 42.5t30.5 52.5t29.5 57q8 15 18 30t22.5 27t28.5 19t36 7h33z" />
    <glyph glyph-name="Ldot" unicode="&#x13f;" horiz-adv-x="540" 
d="M502 -44h-288q-14 0 -26 2t-22 10l-80 59q-11 8 -15.5 21t-4.5 28v613q0 13 14 13h74q8 0 11 -2t3 -10v-594q0 -17 7 -22l38 -27q5 -3 9.5 -3.5t9.5 -0.5h272q14 0 14 -12v-63q0 -7 -5 -9.5t-11 -2.5zM383 444h70q7 0 10.5 -4.5t3.5 -9.5v-71q0 -5 -3 -9.5t-11 -4.5h-70
q-8 0 -11 4.5t-3 9.5v71q0 5 3.5 9.5t10.5 4.5z" />
    <glyph glyph-name="ldot" unicode="&#x140;" horiz-adv-x="500" 
d="M71 729q0 13 13 13h73q8 1 11.5 -1.5t3.5 -10.5v-653q0 -12 9 -18l19 -13q3 -2 8.5 -2.5t10.5 -0.5h58q7 0 8.5 -2.5t1.5 -7.5v-66q0 -11 -11 -11h-69q-14 0 -36.5 1t-34.5 12l-46 42q-14 12 -16.5 26.5t-2.5 33.5v658zM315 444h70q7 0 10.5 -4.5t3.5 -9.5v-71
q0 -5 -3 -9.5t-11 -4.5h-70q-8 0 -11 4.5t-3 9.5v71q0 5 3.5 9.5t10.5 4.5z" />
    <glyph glyph-name="Lslash" unicode="&#x141;" horiz-adv-x="660" 
d="M119 144q-7 -8 -17 -8h-85q-6 0 -9 2.5t0 6.5l178 203v341q0 13 14 13h74q8 0 11 -2t3 -10v-225l83 95q7 8 17 8h85q6 0 9 -2.5t0 -6.5l-194 -222v-241q0 -17 7 -22l38 -27q5 -3 9.5 -3.5t9.5 -0.5h272q14 0 14 -12v-63q0 -7 -5 -9.5t-11 -2.5h-288q-14 0 -26 2t-22 10
l-80 59q-11 8 -15.5 21t-4.5 28v144z" />
    <glyph glyph-name="lslash" unicode="&#x142;" horiz-adv-x="450" 
d="M119 144q-7 -8 -17 -8h-85q-6 0 -9 2.5t0 6.5l153 196v388q0 13 13 13h73q8 1 11.5 -1.5t3.5 -10.5v-259l69 89q7 8 17 8h85q6 0 9 -2.5t0 -6.5l-180 -231v-251q0 -12 9 -18l19 -13q3 -2 8.5 -2.5t10.5 -0.5h58q7 0 8.5 -2.5t1.5 -7.5v-66q0 -11 -11 -11h-69
q-14 0 -36.5 1t-34.5 12l-46 42q-14 12 -16.5 26.5t-2.5 33.5v127z" />
    <glyph glyph-name="napostrophe" unicode="&#x149;" horiz-adv-x="730" 
d="M526 509q29 0 43 -11l81 -59q11 -8 15.5 -21t4.5 -28v-421q0 -13 -16 -13h-70q-16 0 -16 13v399q0 16 -7 21l-35 27q-8 6 -17 6h-154q-9 0 -15 -4l-34 -24q-3 -2 -6 -6.5t-3 -13.5v-405q0 -13 -16 -13h-70q-16 0 -16 13v421q0 14 4.5 27.5t15.5 21.5l80 59q18 11 48 11
h183zM174 587q6 0 6 -4.5v-5.5l-58 -162q-6 -15 -19 -15h-61q-7 0 -5 7l43 164q2 6 5 11t16 5h73z" />
    <glyph glyph-name="Eng" unicode="&#x14a;" horiz-adv-x="676" 
d="M605 -109q0 -32 -20 -55l-59 -67q-10 -11 -20.5 -12t-24.5 -1h-106q-16 0 -29 2t-22 8l-69 44q-4 2 -3.5 6t2.5 7l34 58q4 7 10 3l61 -33q5 -3 12.5 -5.5t15.5 -2.5h67q11 0 16 5l26 26q7 7 7 19v86l-330 523v-534q0 -12 -15 -12h-72q-9 0 -12 3.5t-3 8.5v712q0 9 4 15.5
t17 6.5h36q18 0 26.5 -4t16.5 -17l332 -524v532q0 13 14 13h73q15 0 15 -12v-799z" />
    <glyph glyph-name="eng" unicode="&#x14b;" horiz-adv-x="605" 
d="M391 509q29 0 43 -11l81 -59q11 -8 15.5 -21t4.5 -28v-421q0 -53 -45 -84l-118 -82q-10 -8 -16 -2l-40 46q-4 6 0 11l105 97q12 10 12 27v386q0 16 -7 21l-35 27q-8 6 -17 6h-154q-9 0 -15 -4l-34 -24q-3 -2 -6 -6.5t-3 -13.5v-405q0 -13 -16 -13h-70q-16 0 -16 13v421
q0 14 4.5 27.5t15.5 21.5l80 59q18 11 48 11h183z" />
    <glyph glyph-name="OE" unicode="&#x152;" horiz-adv-x="895" 
d="M420 -49h-201q-32 0 -50 17l-92 96q-13 13 -14.5 29t-1.5 21v426q0 7 1.5 24t14.5 30l92 95q13 13 32 15.5t27 2.5h175q8 0 27.5 -1.5t33.5 -11.5l31 -21l23 17q7 5 20.5 8.5t27.5 3.5h260q14 0 14 -12v-61q0 -5 -4 -9.5t-11 -4.5h-243q-11 0 -19 -4l-34 -27
q-3 -2 -6 -7.5t-3 -14.5v-204l68 23q8 3 17.5 4.5t17.5 1.5h185q11 0 11 -10v-67q0 -7 -2.5 -8.5t-8.5 -1.5h-288v-204q0 -17 7 -22l36 -27q5 -3 9.5 -3.5t9.5 -0.5h242q16 0 16 -12v-62q0 -6 -5 -9.5t-11 -3.5h-258q-14 0 -27.5 3.5t-20.5 8.5l-15 11l-25 -15
q-15 -8 -28 -10.5t-30 -2.5zM418 76v506q0 8 1 15.5t5 15.5q-15 7 -31 7h-149q-10 0 -16 -6l-59 -64q-5 -5 -5.5 -10.5t-0.5 -6.5v-407q0 -10 6 -17l65 -66q5 -5 15 -5h158h9.5t9.5 2q-5 8 -6.5 17.5t-1.5 18.5z" />
    <glyph glyph-name="oe" unicode="&#x153;" horiz-adv-x="900" 
d="M789 43q10 0 10 -10v-66q0 -11 -11 -11h-249q-17 0 -29 4.5t-21 12.5l-42 33l-36 -32q-18 -16 -35.5 -19.5t-34.5 -3.5h-123q-20 0 -38 5t-32 18l-58 52q-13 11 -21.5 27t-8.5 37v280q0 21 8 37t22 27l58 52q17 16 35 19.5t35 3.5h123q18 0 35 -3t35 -20l28 -25l37 34
q12 11 24.5 12.5t35.5 1.5h156q13 0 26 -2t22 -9l70 -53q16 -10 23 -25.5t7 -32.5v-89q0 -22 -8.5 -34.5t-16.5 -18.5l-79 -66q-10 -8 -19.5 -10.5t-22.5 -2.5h-114q-25 0 -46 10t-35 24v-108q0 -6 2 -11t9 -10l27 -21q8 -7 22 -7h230zM397 94v279q-1 9 -7 15l-29 28
q-6 6 -17 6h-129q-10 0 -17 -6l-29 -28q-7 -6 -7 -22v-272q0 -6 1 -11.5t6 -10.5l29 -28q7 -6 17 -6h129q9 0 17 6l29 28q7 6 7 22zM738 379q0 11 -5 15l-31 24q-6 4 -15 4h-155q-16 0 -24.5 -9.5t-8.5 -20.5v-16v-6v-86q0 -16 11.5 -25t27.5 -9h148q12 0 19 4l26 20
q7 6 7 17v88z" />
    <glyph glyph-name="Tbar" unicode="&#x166;" horiz-adv-x="560" 
d="M101 395h126v220h-208q-10 0 -10 10v67q0 10 10 10h522q10 0 10 -10v-67q0 -10 -10 -10h-212v-220h129q6 0 11.5 -3t5.5 -9v-59q0 -5 -4.5 -10.5t-10.5 -5.5h-131v-339q0 -13 -15 -13h-72q-15 0 -15 13v339h-128q-6 0 -10.5 5.5t-4.5 10.5v59q0 6 5.5 9t11.5 3z" />
    <glyph glyph-name="tbar" unicode="&#x167;" horiz-adv-x="415" 
d="M378 339q12 0 12 -11v-65q0 -10 -11 -10h-152v-161q0 -6 2 -11t9 -10l27 -21q5 -3 9 -5t10 -2h100q7 0 8.5 -2.5t1.5 -7.5v-66q0 -11 -11 -11h-116q-17 0 -29 4.5t-21 12.5l-76 61q-10 8 -13 20.5t-3 29.5v169h-100q-10 0 -10 10v65q0 11 11 11h99v84h-100q-10 0 -10 10
v65q0 11 11 11h99v180q0 13 15 13h71q16 0 16 -13v-180h151q12 0 12 -11v-65q0 -10 -11 -10h-152v-84h151z" />
    <glyph glyph-name="caron" unicode="&#x2c7;" horiz-adv-x="380" 
d="M246 592q-9 -12 -26 -12h-60q-17 0 -26 12l-112 136q-4 5 -1 10t8 5h79q11 0 18 -9l63 -80l64 80q7 9 18 9h79q5 0 8 -5t-1 -10z" />
    <glyph glyph-name="uni02D0" unicode="&#x2d0;" horiz-adv-x="245" 
d="M26 602q-4 8 1 11.5t11 3.5h168q6 0 11 -3.5t1 -11.5l-87 -154q-4 -7 -9 -6.5t-9 6.5zM113 223q4 6 9 6.5t9 -6.5l87 -154q4 -8 -1 -11.5t-11 -3.5h-168q-6 0 -11 3.5t-1 11.5z" />
    <glyph glyph-name="breve" unicode="&#x2d8;" horiz-adv-x="380" 
d="M190 658q31 0 50.5 21.5t27.5 59.5q3 14 16 14h60q10 0 12.5 -5.5t1.5 -9.5q-13 -77 -59 -116.5t-109 -39.5t-109 39.5t-59 116.5q-1 4 1.5 9.5t12.5 5.5h60q8 0 11 -4t5 -10q8 -38 27.5 -59.5t50.5 -21.5z" />
    <glyph glyph-name="dotaccent" unicode="&#x2d9;" horiz-adv-x="200" 
d="M63 724h74q7 0 10.5 -4.5t3.5 -9.5v-75q0 -5 -3 -9.5t-11 -4.5h-74q-8 0 -11 4.5t-3 9.5v75q0 5 3.5 9.5t10.5 4.5z" />
    <glyph glyph-name="ring" unicode="&#x2da;" horiz-adv-x="300" 
d="M262 672v-32q0 -18 -8 -33.5t-21 -27t-30.5 -18.5t-35.5 -7h-34q-18 0 -35.5 7t-30.5 18.5t-21 27t-8 33.5v32q0 18 8 33.5t21 27t30.5 18.5t35.5 7h34q18 0 35.5 -7t30.5 -18.5t21 -27t8 -33.5zM194 673q0 10 -9.5 18.5t-19.5 8.5h-30q-10 0 -19.5 -8.5t-9.5 -18.5v-34
q0 -10 9.5 -18.5t19.5 -8.5h30q10 0 19.5 8.5t9.5 18.5v34z" />
    <glyph glyph-name="ogonek" unicode="&#x2db;" horiz-adv-x="240" 
d="M218 -207q0 -10 -5.5 -14t-13.5 -4h-18q-30 0 -59 5t-51.5 17t-36 33t-13.5 53q0 35 26.5 68.5t74.5 55.5q2 1 4.5 1.5t6.5 -2.5l49 -42q5 -4 2.5 -6t-4.5 -4q-26 -17 -42.5 -32t-16.5 -29q0 -12 12 -20.5t44 -7.5h22q8 0 13.5 -4t5.5 -14v-54z" />
    <glyph glyph-name="hungarumlaut" unicode="&#x2dd;" horiz-adv-x="470" 
d="M223 773q6 0 7.5 -3.5t0.5 -6.5l-86 -179q-4 -8 -7.5 -11.5t-11.5 -3.5h-58q-7 0 -5 7l58 181q2 6 5 11t16 5h81zM398 773q6 0 7.5 -3.5t0.5 -6.5l-86 -179q-4 -8 -7.5 -11.5t-11.5 -3.5h-58q-7 0 -5 7l58 181q2 6 5 11t16 5h81z" />
    <glyph glyph-name="Alpha" unicode="&#x391;" horiz-adv-x="670" 
d="M361 707q30 0 45 -10.5t23 -29.5l225 -696q0 -15 -14 -15h-78q-7 0 -8.5 3.5t-3.5 10.5l-77 243h-287l-67 -243q-3 -14 -15 -14h-75q-14 0 -14 16l200 695q5 14 18 27t35 13h93zM340 621h-35q-6 0 -7 -6l-88 -315h236l-100 317q-1 4 -6 4z" />
    <glyph glyph-name="Beta" unicode="&#x392;" horiz-adv-x="645" 
d="M553 581v-116q0 -16 -2 -30.5t-11 -25.5l-47 -59l69 -53q12 -11 16.5 -20.5t4.5 -27.5v-172q0 -32 -20 -49l-71 -61q-7 -5 -20.5 -8t-27.5 -3h-349q-12 0 -18 6.5t-6 17.5v700q0 10 6.5 15.5t14.5 5.5h313q14 0 27.5 -3.5t20.5 -8.5l80 -59q11 -8 15.5 -21.5t4.5 -27.5z
M173 43h247q8 0 11 1t7 4l34 31q6 5 7.5 11t1.5 11v132q0 17 -11 26l-36 24q-7 5 -14 7t-21 2h-226v-249zM173 377h204q8 0 19 2t17 8l29 34q9 9 9 28v113q0 17 -7 22l-36 27q-6 4 -19 4h-216v-238z" />
    <glyph glyph-name="Gamma" unicode="&#x393;" horiz-adv-x="460" 
d="M173 614v-646q0 -12 -15 -12h-72q-15 0 -15 12v700q0 15 10 24t27 9h312q6 0 11.5 -3t5.5 -9v-59q0 -5 -4.5 -10.5t-10.5 -5.5h-249z" />
    <glyph glyph-name="uni0394" unicode="&#x394;" horiz-adv-x="650" 
d="M620 -2q8 -24 -4 -33t-32 -9h-518q-20 0 -32 9t-4 33l228 659q6 17 16.5 30.5t29.5 13.5h39q12 0 20.5 -4.5t14 -11t9 -14t5.5 -13.5zM152 43h346l-174 507z" />
    <glyph glyph-name="Epsilon" unicode="&#x395;" horiz-adv-x="565" 
d="M65 76v506q0 14 4.5 27.5t15.5 21.5l80 59q7 5 20.5 8.5t27.5 3.5h310q14 0 14 -12v-61q0 -5 -4 -9.5t-11 -4.5h-293q-11 0 -19 -4l-34 -27q-3 -2 -6 -7.5t-3 -14.5v-204l68 23q8 3 17.5 4.5t17.5 1.5h235q11 0 11 -10v-67q0 -7 -2.5 -8.5t-8.5 -1.5h-338v-204
q0 -17 7 -22l36 -27q5 -3 9.5 -3.5t9.5 -0.5h292q16 0 16 -12v-62q0 -6 -5 -9.5t-11 -3.5h-308q-14 0 -27.5 3.5t-20.5 8.5l-80 59q-11 8 -15.5 21.5t-4.5 27.5z" />
    <glyph glyph-name="Zeta" unicode="&#x396;" horiz-adv-x="560" 
d="M137 86q-5 -5 -6.5 -13.5t-1.5 -15.5v-14h389q15 0 15 -14v-60q0 -13 -16 -13h-465q-14 0 -18 5.5t-4 16.5v83q0 42 18 62l355 438q6 7 11 18.5t5 25.5v10h-356q-15 0 -15 14v60q0 13 16 13h432q14 0 18 -5.5t4 -16.5v-85q0 -20 -3.5 -35t-14.5 -27z" />
    <glyph glyph-name="Eta" unicode="&#x397;" horiz-adv-x="665" 
d="M71 -31v718q0 6 3 10.5t11 4.5h73q15 0 15 -14v-301h319v300q0 6 3 10.5t11 4.5h72q16 0 16 -14v-719q0 -13 -16 -13h-70q-16 0 -16 13v331h-319v-331q0 -13 -16 -13h-71q-15 0 -15 13z" />
    <glyph glyph-name="Theta" unicode="&#x398;" horiz-adv-x="650" 
d="M214 300q-10 0 -10 10v67q0 10 10 10h221q10 0 10 -10v-67q0 -10 -10 -10h-221zM557 26l-60 -52q-16 -14 -33.5 -18.5t-38.5 -4.5h-200q-21 0 -38.5 4.5t-33.5 18.5l-60 52q-12 11 -21 29t-9 46v456q0 28 9 46t21 29l60 52q16 14 33.5 18.5t38.5 4.5h200q21 0 38.5 -4.5
t33.5 -18.5l60 -52q12 -11 21 -29t9 -46v-456q0 -28 -9 -46t-21 -29zM165 118q0 -14 2 -23.5t8 -16.5l30 -29q7 -6 16 -8.5t17 -2.5h174q8 0 17 2.5t16 8.5l30 29q6 7 8 16.5t2 23.5v422q0 14 -2 23.5t-8 16.5l-30 29q-7 6 -16 8.5t-17 2.5h-174q-8 0 -17 -2.5t-16 -8.5
l-30 -29q-6 -7 -8 -16.5t-2 -23.5v-422z" />
    <glyph glyph-name="Iota" unicode="&#x399;" horiz-adv-x="270" 
d="M186 -31q0 -13 -16 -13h-71q-15 0 -15 13v718q0 6 3 10.5t11 4.5h73q15 0 15 -14v-719z" />
    <glyph glyph-name="Kappa" unicode="&#x39a;" horiz-adv-x="625" 
d="M173 -32q0 -12 -15 -12h-73q-14 0 -14 12v721q0 13 13 13h74q8 1 11.5 -1.5t3.5 -10.5v-315h115l232 327q3 6 11 3l60 -37q7 -4 3 -11l-220 -316l239 -370q3 -5 1 -10t-10 -5h-80q-8 0 -11.5 3.5t-5.5 7.5l-216 322h-118v-321z" />
    <glyph glyph-name="Lambda" unicode="&#x39b;" horiz-adv-x="670" 
d="M361 707q30 0 45 -10.5t23 -29.5l225 -696q0 -15 -14 -15h-78q-7 0 -8.5 3.5t-3.5 10.5l-204 647q-1 4 -6 4h-35q-6 0 -7 -6l-179 -645q-3 -14 -15 -14h-75q-14 0 -14 16l200 695q5 14 18 27t35 13h93z" />
    <glyph glyph-name="Mu" unicode="&#x39c;" horiz-adv-x="870" 
d="M697 -31v618l-173 -352q-7 -12 -12.5 -21.5t-12 -16t-17 -10.5t-26.5 -4h-46q-14 0 -23 2.5t-16 8t-12.5 14.5t-12.5 23l-173 357v-619q0 -13 -16 -13h-70q-16 0 -16 13v721q0 5 2.5 8.5t11.5 3.5h102q19 0 30.5 -8.5t19.5 -27.5l195 -401h6l197 401q16 36 48 36h102
q9 0 11.5 -3.5t2.5 -8.5v-721q0 -13 -15 -13h-72q-15 0 -15 13z" />
    <glyph glyph-name="Nu" unicode="&#x39d;" horiz-adv-x="670" 
d="M599 -20q0 -13 -5.5 -18.5t-19.5 -5.5h-34q-14 0 -24 4.5t-18 18.5l-325 526v-537q0 -12 -15 -12h-72q-9 0 -12 3.5t-3 8.5v712q0 9 4 15.5t17 6.5h36q18 0 26.5 -4t16.5 -17l327 -524v532q0 13 14 13h72q15 0 15 -12v-710z" />
    <glyph glyph-name="Xi" unicode="&#x39e;" horiz-adv-x="600" 
d="M100 300q-10 0 -10 10v67q0 10 10 10h400q10 0 10 -10v-67q0 -10 -10 -10h-400zM50 -14q-10 0 -10 10v67q0 10 10 10h500q10 0 10 -10v-67q0 -10 -10 -10h-500zM60 584q-10 0 -10 10v67q0 10 10 10h480q10 0 10 -10v-67q0 -10 -10 -10h-480z" />
    <glyph glyph-name="Omicron" unicode="&#x39f;" horiz-adv-x="650" 
d="M557 26l-60 -52q-16 -14 -33.5 -18.5t-38.5 -4.5h-200q-21 0 -38.5 4.5t-33.5 18.5l-60 52q-12 11 -21 29t-9 46v456q0 28 9 46t21 29l60 52q16 14 33.5 18.5t38.5 4.5h200q21 0 38.5 -4.5t33.5 -18.5l60 -52q12 -11 21 -29t9 -46v-456q0 -28 -9 -46t-21 -29zM165 118
q0 -14 2 -23.5t8 -16.5l30 -29q7 -6 16 -8.5t17 -2.5h174q8 0 17 2.5t16 8.5l30 29q6 7 8 16.5t2 23.5v422q0 14 -2 23.5t-8 16.5l-30 29q-7 6 -16 8.5t-17 2.5h-174q-8 0 -17 -2.5t-16 -8.5l-30 -29q-6 -7 -8 -16.5t-2 -23.5v-422z" />
    <glyph glyph-name="Pi" unicode="&#x3a0;" horiz-adv-x="635" 
d="M173 -32q0 -12 -15 -12h-72q-15 0 -15 12v700q0 15 10 24t27 9h418q17 0 27.5 -9t10.5 -24v-700q0 -12 -15 -12h-72q-15 0 -15 12v646h-289v-646z" />
    <glyph glyph-name="Rho" unicode="&#x3a1;" horiz-adv-x="620" 
d="M66 588q0 16 4.5 28.5t15.5 20.5l81 59q11 7 22 9t26 2h216q14 0 27.5 -3t20.5 -8l81 -59q11 -8 15.5 -20.5t4.5 -28.5v-228q0 -14 -3.5 -27t-16.5 -22l-80 -59q-17 -12 -48 -12h-264v-271q0 -13 -13 -13h-76q-13 0 -13 13v619zM227 620q-10 0 -15 -4l-36 -26
q-5 -4 -6.5 -8.5t-1.5 -13.5v-241h248q13 0 20 5l35 25q5 5 6 10.5t1 11.5v189q0 9 -1.5 13.5t-6.5 8.5l-36 26q-7 4 -15 4h-192z" />
    <glyph glyph-name="Sigma" unicode="&#x3a3;" horiz-adv-x="590" 
d="M264 333l-173 203q-19 22 -27.5 40t-8.5 40v72q0 9 3.5 11.5t8.5 2.5h476q13 0 13 -16v-54q0 -16 -13 -16h-381l151 -177q6 -8 15 -18t17.5 -21.5t14 -24t5.5 -24.5v-43q0 -12 -5.5 -24.5t-14 -24t-17.5 -22l-15 -17.5l-151 -177h381q13 0 13 -16v-54q0 -16 -13 -16h-476
q-5 0 -8.5 2.5t-3.5 11.5v72q0 22 8.5 40t27.5 40l173 203v7z" />
    <glyph glyph-name="Tau" unicode="&#x3a4;" horiz-adv-x="560" 
d="M19 615q-10 0 -10 10v67q0 10 10 10h522q10 0 10 -10v-67q0 -10 -10 -10h-212v-646q0 -13 -15 -13h-72q-15 0 -15 13v646h-208z" />
    <glyph glyph-name="Upsilon" unicode="&#x3a5;" horiz-adv-x="615" 
d="M340 -44h-71q-16 0 -16 13v293q-14 2 -24 15t-16 25l-195 381q-3 5 0 12t10 7h80q7 0 10 -2.5t6 -8.5l169 -341q2 -6 6 -6h16q5 0 6 4l171 341q6 13 16 13h78q16 0 12 -15l-197 -385q-8 -17 -19 -27.5t-27 -12.5v-293q0 -13 -15 -13z" />
    <glyph glyph-name="Phi" unicode="&#x3a6;" horiz-adv-x="655" 
d="M378 -31q0 -13 -16 -13h-71q-15 0 -15 13v127h-27q-37 0 -72.5 17t-63 44t-44.5 59.5t-17 64.5v96q0 31 17 64t44.5 60t63 44t72.5 17h27v125q0 6 3 10.5t11 4.5h73q15 0 15 -14v-126h27q37 0 72.5 -17t63 -44t44.5 -60t17 -64v-96q0 -32 -16.5 -64.5t-44.5 -59.5
t-63.5 -44t-72.5 -17h-27v-127zM500 290v78q0 22 -8.5 41.5t-22 34t-30 23t-32.5 8.5h-29v-292h29q16 0 32.5 8.5t30 23t22 34t8.5 41.5zM154 368v-78q0 -22 8.5 -41.5t22 -34t30 -23t32.5 -8.5h29v292h-29q-16 0 -32.5 -8.5t-30 -23t-22 -34t-8.5 -41.5z" />
    <glyph glyph-name="Chi" unicode="&#x3a7;" horiz-adv-x="610" 
d="M307 380q4 0 6 3l165 305q2 5 5.5 9.5t11.5 4.5h83q16 0 10 -15l-186 -352l192 -363q6 -16 -9 -16h-83q-7 0 -9.5 4.5t-5.5 9.5l-174 318q-2 3 -4 3h-10q-3 0 -4 -3l-173 -318q-3 -6 -6 -10t-10 -4h-82q-16 0 -9 16l191 363l-186 352q-2 8 1.5 11.5t10.5 3.5h81
q7 0 10 -3.5t6 -9.5l165 -305q2 -4 8 -4h5z" />
    <glyph glyph-name="Psi" unicode="&#x3a8;" horiz-adv-x="705" 
d="M406 688v-446q33 4 56.5 22.5t39 44.5t23 56.5t7.5 59.5v262q0 6 3 10.5t11 4.5h73q15 0 15 -14v-262q0 -52 -16 -99.5t-45.5 -84t-71.5 -60t-95 -27.5v-185q0 -14 -15 -14h-73q-8 0 -11 4.5t-3 10.5v183q-54 3 -97.5 26.5t-73.5 60t-46 84.5t-16 101v261q0 6 3 10.5
t11 4.5h73q15 0 15 -14v-263q0 -30 8 -61t24 -57.5t40.5 -44.5t58.5 -21v446q0 6 3 10.5t11 4.5h73q15 0 15 -14z" />
    <glyph glyph-name="uni03A9" unicode="&#x3a9;" horiz-adv-x="733" 
d="M332 620q-38 0 -70 -17t-55 -44t-36.5 -59.5t-13.5 -63.5v-126q0 -29 16.5 -54t42 -45t56.5 -34t60 -20v-168q0 -16 -11 -24.5t-29 -8.5h-206q-6 0 -11 3.5t-5 9.5v62q0 12 16 12h144v68q-30 10 -61.5 29.5t-56.5 45.5t-41 57.5t-16 66.5v125q0 55 22 104t60 86.5
t88.5 59.5t108.5 22h65q58 0 108.5 -22t88.5 -59.5t60 -86.5t22 -104v-125q0 -35 -16 -66.5t-41 -57.5t-56.5 -45.5t-61.5 -29.5v-68h144q16 0 16 -12v-62q0 -6 -5 -9.5t-11 -3.5h-206q-18 0 -29 8.5t-11 24.5v168q29 6 60 20t56.5 34t42 45t16.5 54v126q0 31 -13.5 63.5
t-37 59.5t-55.5 44t-70 17h-68z" />
    <glyph glyph-name="alpha" unicode="&#x3b1;" horiz-adv-x="535" 
d="M455 396q-5 -8 -7.5 -15.5t-2.5 -20.5v-260q0 -17 9.5 -29t22.5 -21l44 -31q11 -8 0 -21l-42 -50q-6 -8 -10.5 -8t-12.5 5l-39 27q-8 5 -15 14t-12 19l-34 -31q-18 -16 -35.5 -19.5t-34.5 -3.5h-68q-20 0 -38 5t-32 18l-58 52q-13 11 -21.5 27t-8.5 37v280q0 21 8 37
t22 27l58 52q17 16 35 19.5t35 3.5h68q18 0 35 -3t35 -20l20 -17l19 33q3 5 6.5 6t8.5 1h100q10 0 5 -9zM342 94v272q0 16 -7 22l-29 28q-6 6 -17 6h-74q-10 0 -17 -6l-29 -28q-7 -6 -7 -22v-272q0 -6 1 -11.5t6 -10.5l29 -28q7 -6 17 -6h74q9 0 17 6l29 28q7 6 7 22z" />
    <glyph glyph-name="beta" unicode="&#x3b2;" horiz-adv-x="560" 
d="M308 -49h-50q-15 0 -15 14v60q0 13 16 13h46q48 0 76 35.5t28 93.5v70q0 43 -24.5 65t-58.5 22h-74q-10 0 -10 10v63q0 10 10 10h50q27 0 44 17t17 45v87q0 28 -17 45.5t-38 17.5h-63q-29 0 -43.5 -21.5t-14.5 -47.5v-781q0 -14 -15 -14h-73q-8 0 -11 4.5t-3 10.5v781
q0 29 11.5 56.5t32 48.5t49 33.5t62.5 12.5h71q29 0 56.5 -12t49.5 -32.5t35 -47.5t13 -58v-71q0 -35 -12.5 -60.5t-34.5 -37.5q44 -17 67.5 -57.5t23.5 -82.5v-76q0 -105 -55.5 -160.5t-145.5 -55.5z" />
    <glyph glyph-name="gamma" unicode="&#x3b3;" horiz-adv-x="580" 
d="M299 -204q10 0 15 6.5t5 23.5v45q0 8 -0.5 15t-2.5 16l-20 73l-23 -40q-6 -11 -9.5 -24.5t-3.5 -23.5v-63q0 -12 4.5 -20t15.5 -8h19zM123 509h51q43 0 64.5 -25t32.5 -77l51 -210l148 283q8 16 23 8l64 -33q9 -5 8.5 -10t-3.5 -10l-195 -360l41 -142q5 -20 8 -37.5
t3 -28.5v-36q0 -25 -7 -47t-21 -38.5t-35.5 -26t-50.5 -9.5h-33q-51 0 -80 33t-31 81v63q0 25 9 50.5t26 53.5l55 87l-85 329q-3 15 -17 15h-20q-5 0 -13 -5l-40 -26q-4 -2 -8 -0.5t-6 4.5l-37 55q-2 3 -2 7.5t4 6.5l47 32q11 8 24 10t25 3z" />
    <glyph glyph-name="delta" unicode="&#x3b4;" horiz-adv-x="565" 
d="M402 94v272q0 16 -7 22l-29 28q-6 6 -17 6h-134q-10 0 -17 -6l-29 -28q-7 -6 -7 -22v-272q0 -6 1 -11.5t6 -10.5l29 -28q7 -6 17 -6h134q9 0 17 6l29 28q7 6 7 22zM504 370v-280q0 -21 -9.5 -37t-20.5 -27l-58 -52q-18 -16 -35.5 -19.5t-34.5 -3.5h-128q-20 0 -38 5
t-32 18l-58 52q-13 11 -21.5 27t-8.5 37v280q0 21 8 37t22 27l58 52q8 8 20 11q-11 2 -21 12t-18 22.5t-13 26t-5 22.5v50q0 28 10.5 50.5t27 38.5t37.5 24.5t42 8.5h71q12 0 28 -3t27 -10l73 -43q4 -2 4 -6.5t-2 -7.5l-34 -55q-2 -3 -6 -4.5t-8 0.5l-65 37q-8 5 -17 5h-49
q-16 0 -26.5 -9t-10.5 -26v-55q0 -10 4.5 -21.5t12 -21.5t17.5 -16.5t21 -6.5h78q18 0 35 -3t35 -20l58 -52q12 -11 21 -27t9 -37z" />
    <glyph glyph-name="epsilon" unicode="&#x3b5;" horiz-adv-x="465" 
d="M203 509h90q13 0 29 -2t30 -11l82 -49q9 -5 3 -13l-34 -54q-4 -7 -11 -4l-72 39q-8 5 -15 6t-15 1h-82q-20 0 -35 -13t-15 -37v-41q0 -29 18.5 -38.5t41.5 -9.5h95q10 0 10 -10v-67q0 -10 -10 -10h-102q-33 0 -50 -19t-17 -49v-31q0 -26 22.5 -42t59.5 -16h76
q8 0 13.5 1.5t13.5 6.5l71 41q7 2 11 -4l35 -57q2 -3 1.5 -7t-4.5 -6l-82 -49q-14 -8 -30 -10.5t-29 -2.5h-77q-85 0 -133.5 40t-48.5 105v32q0 41 22 71t56 43q-26 8 -45.5 31.5t-19.5 54.5v46q0 31 12.5 55.5t33 42t47 27t54.5 9.5z" />
    <glyph glyph-name="zeta" unicode="&#x3b6;" horiz-adv-x="470" 
d="M425 604q-25 -28 -55 -63t-60.5 -73.5t-58.5 -78t-50 -76.5t-35 -69.5t-13 -56.5q0 -38 24 -63.5t72 -47.5q41 -18 71.5 -33.5t51 -32.5t30.5 -39t10 -53q0 -27 -12.5 -48t-33.5 -37t-49.5 -27.5t-60.5 -18.5q-3 -1 -8 -0.5t-7 7.5l-21 56q-3 9 1 11.5t7 3.5q35 8 59 21
t24 33q0 7 -2.5 14.5t-11.5 16t-25.5 17t-43.5 19.5q-38 15 -70.5 32t-56 40.5t-37 54t-13.5 72.5q0 32 12.5 68t33.5 74t48 77t56 76t58.5 71.5t54.5 63.5h-269q-15 0 -15 14v60q0 13 16 13h307q8 0 19 -1.5t16 -8.5l38 -56q3 -5 4.5 -14.5t-5.5 -17.5z" />
    <glyph glyph-name="eta" unicode="&#x3b7;" horiz-adv-x="595" 
d="M391 509q29 0 43 -11l81 -59q11 -8 15.5 -21t4.5 -28v-630q0 -13 -16 -13h-70q-16 0 -16 13v608q0 16 -7 21l-35 27q-8 6 -17 6h-154q-9 0 -15 -4l-34 -24q-3 -2 -6 -6.5t-3 -13.5v-405q0 -13 -16 -13h-70q-16 0 -16 13v421q0 14 4.5 27.5t15.5 21.5l80 59q18 11 48 11
h183z" />
    <glyph glyph-name="theta" unicode="&#x3b8;" horiz-adv-x="600" 
d="M507 31l-60 -52q-16 -14 -33.5 -18.5t-38.5 -4.5h-150q-21 0 -38.5 4.5t-33.5 18.5l-60 52q-12 11 -21 29t-9 46v451q0 28 9 46t21 29l60 52q16 14 33.5 18.5t38.5 4.5h150q21 0 38.5 -4.5t33.5 -18.5l60 -52q12 -11 21 -29t9 -46v-451q0 -28 -9 -46t-21 -29zM165 123
q0 -14 2 -23.5t8 -16.5l30 -29q7 -6 16 -8.5t17 -2.5h124q8 0 17 2.5t16 8.5l30 29q6 7 8 16.5t2 23.5v177h-270v-177zM435 540q0 14 -2 23.5t-8 16.5l-30 29q-7 6 -16 8.5t-17 2.5h-124q-8 0 -17 -2.5t-16 -8.5l-30 -29q-6 -7 -8 -16.5t-2 -23.5v-153h270v153z" />
    <glyph glyph-name="iota" unicode="&#x3b9;" horiz-adv-x="240" 
d="M69 494q0 6 3.5 10.5t11.5 4.5h70q16 0 16 -14v-526q0 -13 -14 -13h-72q-15 0 -15 13v525z" />
    <glyph glyph-name="kappa" unicode="&#x3ba;" horiz-adv-x="560" 
d="M167 -31q0 -13 -15 -13h-73q-8 0 -10.5 3.5t-2.5 8.5v523q0 13 13 13h74q9 0 11.5 -2.5t2.5 -9.5v-191h104l179 206q3 6 11 3l62 -47q7 -4 3 -11l-176 -200l201 -274q5 -8 2 -15t-11 -7h-76q-14 0 -20 10l-189 248h-90v-245z" />
    <glyph glyph-name="lambda" unicode="&#x3bb;" horiz-adv-x="635" 
d="M95 707q46 0 82 -13t63.5 -35.5t47 -53.5t32.5 -67l158 -443q11 -29 25 -41t47 -12h55q19 0 19 -19v-47q0 -20 -19 -20h-60q-65 0 -103 28t-62 98l-65 185q-10 30 -22 67t-24 71h-1q-11 -34 -23.5 -71t-22.5 -67l-104 -302q-1 -3 -4.5 -6t-8.5 -3h-84q-5 0 -7.5 4t-0.5 8
l171 471q16 45 52 47l-13 37q-15 44 -49 71t-81 27h-34q-20 0 -20 18v49q0 11 5 15t16 4h35z" />
    <glyph glyph-name="uni03BC" unicode="&#x3bc;" horiz-adv-x="595" 
d="M66 493q0 16 14 16h76q12 0 12 -14v-383q0 -20 10 -30l30 -29q7 -6 16 -8.5t17 -2.5h118q8 0 17 2.5t16 8.5l30 29q6 7 8 16.5t2 23.5v371q0 16 14 16h76q12 0 12 -14v-390q0 -28 -9 -46t-21 -29l-60 -52q-16 -14 -28.5 -18t-33.5 -4h-154q-17 0 -33 10.5t-27 23.5v-230
q0 -13 -14 -13h-73q-15 0 -15 13v733z" />
    <glyph glyph-name="nu" unicode="&#x3bd;" horiz-adv-x="450" 
d="M421 503q3 -14 5.5 -32t4 -36t2 -35t0.5 -30q0 -90 -31.5 -194t-104.5 -210q-2 -4 -6.5 -7t-9.5 -3h-96q-7 0 -9.5 3t-3.5 6l-161 533q-4 11 9 11h79q10 0 13 -8l135 -447q19 35 35 77.5t27.5 85.5t18 83.5t6.5 70.5q0 25 -2.5 55t-10.5 73q-1 3 1.5 6.5t7.5 3.5h84
q5 0 7 -6z" />
    <glyph glyph-name="xi" unicode="&#x3be;" horiz-adv-x="480" 
d="M301 451h109q19 0 19 -19v-47q0 -20 -19 -20h-106q-27 0 -55.5 -9.5t-51.5 -26t-37.5 -39t-14.5 -48.5v-46q0 -33 14 -56.5t35.5 -40t48 -27t51.5 -18.5q85 -28 128 -60t43 -85v-28q0 -29 -9.5 -49t-25 -33t-36.5 -18.5t-45 -5.5h-168q-19 0 -19 20v47q0 19 19 19h157
q12 0 18.5 4.5t6.5 16.5v25q0 26 -28.5 39t-69.5 24q-49 14 -90 35.5t-70 50.5t-45.5 64t-16.5 76v47q0 51 31 96t85 67q-16 5 -31 15t-27 24t-19 30.5t-7 33.5v61q0 31 11.5 55.5t31.5 41.5t47 26t59 9h204q19 0 19 -19v-47q0 -20 -19 -20h-200q-22 0 -36.5 -14.5
t-14.5 -34.5v-53q0 -15 11 -27t29 -20t40 -12t44 -4z" />
    <glyph glyph-name="omicron" unicode="&#x3bf;" horiz-adv-x="595" 
d="M534 370v-280q0 -21 -9.5 -37t-20.5 -27l-58 -52q-18 -16 -35.5 -19.5t-34.5 -3.5h-158q-20 0 -38 5t-32 18l-58 52q-13 11 -21.5 27t-8.5 37v280q0 21 8 37t22 27l58 52q17 16 35 19.5t35 3.5h158q18 0 35 -3t35 -20l58 -52q12 -11 21 -27t9 -37zM432 94v272q0 16 -7 22
l-29 28q-6 6 -17 6h-164q-10 0 -17 -6l-29 -28q-7 -6 -7 -22v-272q0 -6 1 -11.5t6 -10.5l29 -28q7 -6 17 -6h164q9 0 17 6l29 28q7 6 7 22z" />
    <glyph glyph-name="pi" unicode="&#x3c0;" horiz-adv-x="630" 
d="M468 -44q-56 0 -93 29t-37 86v351h-118v-453q0 -13 -16 -13h-71q-15 0 -15 13v453h-94q-15 0 -15 14v60q0 13 16 13h513q16 0 16 -13v-60q0 -14 -15 -14h-99v-347q0 -17 9 -24.5t23 -7.5h28q14 0 27 8l45 28q9 5 15 -3l37 -55q2 -3 2 -7.5t-4 -6.5l-55 -38
q-13 -9 -29 -11t-28 -2h-42z" />
    <glyph glyph-name="rho" unicode="&#x3c1;" horiz-adv-x="600" 
d="M66 -193v583q0 16 4.5 28.5t15.5 20.5l81 59q11 7 22 9t26 2h176q14 0 27.5 -3t20.5 -8l81 -59q11 -8 15.5 -20.5t4.5 -28.5v-270q0 -14 -3.5 -27t-16.5 -22l-80 -59q-17 -12 -48 -12h-143q-25 0 -46 10t-35 24v-227q0 -13 -13 -13h-76q-13 0 -13 13zM376 87q14 0 19 4
l36 27q7 5 7 22v230q0 9 -1.5 13.5t-6.5 8.5l-36 26q-7 4 -15 4h-152q-10 0 -15 -4l-36 -26q-5 -4 -6.5 -8.5t-1.5 -13.5v-249q0 -16 11.5 -25t27.5 -9h169z" />
    <glyph glyph-name="sigma" unicode="&#x3c3;" horiz-adv-x="600" 
d="M534 370v-280q0 -21 -9.5 -37t-20.5 -27l-58 -52q-18 -16 -35.5 -19.5t-34.5 -3.5h-158q-20 0 -38 5t-32 18l-58 52q-13 11 -21.5 27t-8.5 37v280q0 21 8 37t22 27l58 52q17 16 35 19.5t35 3.5h158h12t12 -1h182q10 0 10 -10v-66q0 -10 -10 -10h-67q8 -11 13.5 -23.5
t5.5 -28.5zM432 94v272q0 16 -7 22l-29 28q-3 2 -5.5 3.5t-7.5 2.5h-168q-10 0 -17 -6l-29 -28q-7 -6 -7 -22v-272q0 -6 1 -11.5t6 -10.5l29 -28q7 -6 17 -6h164q9 0 17 6l29 28q7 6 7 22z" />
    <glyph glyph-name="tau" unicode="&#x3c4;" horiz-adv-x="460" 
d="M335 -44q-20 0 -38 5t-32 18l-58 52q-13 11 -21.5 27t-8.5 37v327h-158q-10 0 -10 10v67q0 10 10 10h422q10 0 10 -10v-67q0 -10 -10 -10h-162v-323q0 -6 1 -11.5t6 -10.5l29 -28q9 -7 17 -7h74q10 0 10 -10v-66q0 -10 -10 -10h-71z" />
    <glyph glyph-name="upsilon" unicode="&#x3c5;" horiz-adv-x="590" 
d="M427 122v244q0 6 -1 11.5t-6 10.5l-29 28q-9 7 -17 7h-74q-10 0 -10 10v66q0 10 10 10h71q20 0 38 -5t32 -18l58 -52q13 -11 21.5 -27t8.5 -37v-265q0 -28 -9 -46t-21 -29l-60 -52q-16 -14 -28.5 -18t-33.5 -4h-155q-21 0 -38.5 4.5t-33.5 18.5l-60 52q-12 11 -21 29
t-9 46v387q0 16 14 16h76q12 0 12 -14v-373q0 -14 2 -23.5t8 -16.5l30 -29q7 -6 16 -8.5t17 -2.5h119q8 0 17 2.5t16 8.5l30 29q6 7 8 16.5t2 23.5z" />
    <glyph glyph-name="phi" unicode="&#x3c6;" horiz-adv-x="715" 
d="M162 305v-211q0 -16 7 -22l29 -28q7 -6 17 -6h92v332q0 21 9 37t21 27l58 52q18 17 35 20t35 3h31q18 0 35 -3t35 -20l58 -52q12 -11 21 -27t9 -37v-280q0 -21 -9.5 -37t-20.5 -27l-58 -52q-18 -16 -35.5 -19.5t-34.5 -3.5h-90v-235h-99v235h-89q-17 0 -34.5 3.5
t-35.5 19.5l-58 52q-11 11 -20.5 27t-9.5 37v230q0 20 2.5 36t8.5 29t16.5 25t26.5 25l84 67q9 7 16 -2l45 -51q8 -9 -1 -18l-70 -64q-16 -15 -21 -27t-5 -35zM552 94v272q0 16 -7 22l-29 28q-6 6 -17 6h-40q-11 0 -17 -6l-29 -28q-7 -6 -7 -22v-328h93q9 0 17 6l29 28
q7 6 7 22z" />
    <glyph glyph-name="chi" unicode="&#x3c7;" horiz-adv-x="600" 
d="M302 187q4 0 6 3l163 305q2 5 5.5 9.5t11.5 4.5h83q16 0 10 -15l-184 -352l190 -363q6 -16 -9 -16h-83q-7 0 -9.5 4.5t-5.5 9.5l-172 318q-2 3 -4 3h-10q-3 0 -4 -3l-171 -318q-3 -6 -6 -10t-10 -4h-82q-16 0 -9 16l189 363l-183 352q-2 8 1.5 11.5t10.5 3.5h81
q7 0 10 -3.5t6 -9.5l162 -305q2 -4 8 -4h5z" />
    <glyph glyph-name="psi" unicode="&#x3c8;" horiz-adv-x="695" 
d="M406 490v-451q33 4 56.5 22.5t39 44.5t23 56.5t7.5 59.5v267q0 6 3 10.5t11 4.5h73q15 0 15 -14v-267q0 -52 -16 -99.5t-45.5 -84t-71.5 -60t-95 -27.5v-190q0 -14 -15 -14h-73q-8 0 -11 4.5t-3 10.5v189q-54 3 -97.5 26t-73.5 59.5t-46 84.5t-16 101v266q0 6 3 10.5
t11 4.5h73q15 0 15 -14v-268q0 -30 8 -61t24 -57.5t40.5 -44.5t58.5 -21v451q0 6 3 10.5t11 4.5h73q15 0 15 -14z" />
    <glyph glyph-name="omega" unicode="&#x3c9;" horiz-adv-x="715" 
d="M60 90v230q0 20 2.5 36t8.5 29t16.5 25t26.5 25l84 67q9 7 16 -2l45 -51q8 -9 -1 -18l-70 -64q-16 -15 -21 -27t-5 -35v-211q0 -16 7 -22l29 -28q7 -6 17 -6h40q9 0 17 6l29 28q7 7 7 18v209q0 16 14 16h73q12 0 12 -14v-207q0 -16 7 -22l29 -28q7 -6 17 -6h39q9 0 17 6
l29 28q7 6 7 22v211q0 23 -5 35t-21 27l-70 64q-10 9 -1 18l45 51q7 9 16 2l84 -67q16 -13 26.5 -25t16.5 -25t8.5 -29t2.5 -36v-230q0 -21 -9.5 -37t-20.5 -27l-58 -52q-18 -16 -35.5 -19.5t-34.5 -3.5h-37q-16 1 -31.5 5t-31.5 18l-39 34l-38 -34q-18 -16 -35.5 -19.5
t-34.5 -3.5h-31q-17 0 -34.5 3.5t-35.5 19.5l-58 52q-11 11 -20.5 27t-9.5 37z" />
    <glyph glyph-name="uni0401" unicode="&#x401;" horiz-adv-x="565" 
d="M150 884h74q7 0 11 -4.5t4 -9.5v-75q0 -5 -3.5 -9.5t-11.5 -4.5h-74q-8 0 -11 4.5t-3 9.5v75q0 5 3.5 9.5t10.5 4.5zM396 884h74q7 0 10.5 -4.5t3.5 -9.5v-75q0 -5 -3 -9.5t-11 -4.5h-74q-8 0 -11.5 4.5t-3.5 9.5v75q0 5 4 9.5t11 4.5zM65 76v506q0 14 4.5 27.5
t15.5 21.5l80 59q7 5 20.5 8.5t27.5 3.5h310q14 0 14 -12v-61q0 -5 -4 -9.5t-11 -4.5h-293q-11 0 -19 -4l-34 -27q-3 -2 -6 -7.5t-3 -14.5v-204l68 23q8 3 17.5 4.5t17.5 1.5h235q11 0 11 -10v-67q0 -7 -2.5 -8.5t-8.5 -1.5h-338v-204q0 -17 7 -22l36 -27q5 -3 9.5 -3.5
t9.5 -0.5h292q16 0 16 -12v-62q0 -6 -5 -9.5t-11 -3.5h-308q-14 0 -27.5 3.5t-20.5 8.5l-80 59q-11 8 -15.5 21.5t-4.5 27.5z" />
    <glyph glyph-name="uni0410" unicode="&#x410;" horiz-adv-x="670" 
d="M361 707q30 0 45 -10.5t23 -29.5l225 -696q0 -15 -14 -15h-78q-7 0 -8.5 3.5t-3.5 10.5l-77 243h-287l-67 -243q-3 -14 -15 -14h-75q-14 0 -14 16l200 695q5 14 18 27t35 13h93zM340 621h-35q-6 0 -7 -6l-88 -315h236l-100 317q-1 4 -6 4z" />
    <glyph glyph-name="uni0411" unicode="&#x411;" horiz-adv-x="585" 
d="M376 -44h-254q-24 0 -37.5 10.5t-13.5 31.5v704h361q6 0 11.5 -3t5.5 -9v-58q0 -5 -4.5 -10.5t-10.5 -5.5h-260v-204h203q31 0 48 -12l80 -59q13 -9 16.5 -22t3.5 -27v-217q0 -16 -4.5 -28.5t-15.5 -20.5l-81 -59q-7 -5 -20.5 -8t-27.5 -3zM174 325v-282h190q8 0 15 4
l36 26q5 4 6.5 8.5t1.5 13.5v177q0 17 -7 22l-36 27q-5 4 -19 4h-187z" />
    <glyph glyph-name="uni0412" unicode="&#x412;" horiz-adv-x="655" 
d="M563 582v-117q0 -16 -2 -30.5t-11 -25.5l-47 -59l69 -53q12 -11 16.5 -20.5t4.5 -27.5v-172q0 -32 -20 -49l-71 -61q-7 -5 -20.5 -8t-27.5 -3h-359q-12 0 -18 6.5t-6 17.5v701q0 10 6.5 15.5t14.5 5.5h323q14 0 27.5 -3.5t20.5 -8.5l80 -59q11 -8 15.5 -21.5t4.5 -27.5z
M173 43h257q8 0 11 1t7 4l34 31q6 5 7.5 11t1.5 11v132q0 17 -11 26l-36 24q-7 5 -14 7t-21 2h-236v-249zM173 377h214q8 0 19 2t17 8l29 34q9 9 9 28v114q0 17 -7 22l-36 27q-6 4 -19 4h-226v-239z" />
    <glyph glyph-name="uni0413" unicode="&#x413;" horiz-adv-x="570" 
d="M173 615v-647q0 -12 -15 -12h-72q-15 0 -15 12v701q0 15 10 24t27 9h422q6 0 11.5 -3t5.5 -9v-59q0 -5 -4.5 -10.5t-10.5 -5.5h-359z" />
    <glyph glyph-name="uni0414" unicode="&#x414;" horiz-adv-x="670" 
d="M253 200q0 -77 -43 -114h277v530h-234v-416zM539 702q49 0 49 -43v-573h31q8 0 13 -4t5 -12v-228h-1v-12q0 -12 -15 -12h-72q-15 0 -15 12v170h-405v-170q0 -12 -15 -12h-72q-15 0 -15 12v11h-1v229q0 8 5 12t13 4h26q19 0 34.5 9t26 24.5t16 36t5.5 44.5v459q0 43 49 43
h338z" />
    <glyph glyph-name="uni0415" unicode="&#x415;" horiz-adv-x="565" 
d="M65 76v506q0 14 4.5 27.5t15.5 21.5l80 59q7 5 20.5 8.5t27.5 3.5h310q14 0 14 -12v-61q0 -5 -4 -9.5t-11 -4.5h-293q-11 0 -19 -4l-34 -27q-3 -2 -6 -7.5t-3 -14.5v-204l68 23q8 3 17.5 4.5t17.5 1.5h235q11 0 11 -10v-67q0 -7 -2.5 -8.5t-8.5 -1.5h-338v-204
q0 -17 7 -22l36 -27q5 -3 9.5 -3.5t9.5 -0.5h292q16 0 16 -12v-62q0 -6 -5 -9.5t-11 -3.5h-308q-14 0 -27.5 3.5t-20.5 8.5l-80 59q-11 8 -15.5 21.5t-4.5 27.5z" />
    <glyph glyph-name="uni0416" unicode="&#x416;" horiz-adv-x="780" 
d="M438 346l218 343q3 6 6 9.5t10 3.5h81q7 0 11.5 -4t0.5 -11l-212 -336l214 -379q7 -16 -9 -16h-88q-7 0 -10 4t-6 10l-168 296l-48 -74v-222q0 -14 -15 -14h-68q-8 0 -11 4.5t-3 10.5v221l-47 74l-169 -296q-3 -6 -6 -10t-10 -4h-88q-16 0 -9 16l214 379l-212 336
q-4 7 0.5 11t11.5 4h81q7 0 10 -3.5t6 -9.5l218 -343v341q0 6 3 10.5t11 4.5h68q15 0 15 -14v-342z" />
    <glyph glyph-name="uni0417" unicode="&#x417;" horiz-adv-x="585" 
d="M348 -54h-176q-12 0 -28 2t-29 11l-97 62q-4 2 -4 6.5t2 7.5l37 55q2 3 6 4.5t8 -0.5l88 -53q13 -8 27 -8h161q30 0 49.5 16.5t19.5 48.5v125q0 22 -7.5 35.5t-18.5 20.5t-25 9.5t-27 2.5h-171q-7 0 -13 3t-6 11v57q0 5 4.5 9.5t11.5 4.5h165q31 0 49.5 20t18.5 65v86
q0 22 -6 36t-15 22.5t-20 11.5t-21 3h-132q-14 0 -27 -8l-90 -55q-4 -2 -8 -0.5t-6 4.5l-37 55q-2 3 -2 7.5t4 6.5l99 64q13 9 29 11t28 2h140q31 0 61 -12t53.5 -32t37.5 -48t14 -59v-84q0 -51 -19.5 -82t-41.5 -46q13 -7 27 -16t26 -23t19.5 -34t7.5 -49v-126
q0 -32 -14 -59t-37.5 -47.5t-53.5 -32t-61 -11.5z" />
    <glyph glyph-name="uni0418" unicode="&#x418;" horiz-adv-x="670" 
d="M71 690q0 12 15 12h72q14 0 14 -13v-532l327 524q8 13 16.5 17t26.5 4h36q13 0 17 -6.5t4 -15.5v-712q0 -5 -3 -8.5t-12 -3.5h-72q-15 0 -15 12v537l-325 -526q-8 -14 -18 -18.5t-24 -4.5h-34q-14 0 -19.5 5.5t-5.5 18.5v710z" />
    <glyph glyph-name="uni0419" unicode="&#x419;" horiz-adv-x="670" 
d="M340 818q31 0 50.5 21.5t27.5 59.5q3 14 16 14h60q10 0 12.5 -5.5t1.5 -9.5q-13 -77 -59 -116.5t-109 -39.5t-109 39.5t-59 116.5q-1 4 1.5 9.5t12.5 5.5h60q8 0 11 -4t5 -10q8 -38 27.5 -59.5t50.5 -21.5zM71 690q0 12 15 12h72q14 0 14 -13v-532l327 524q8 13 16.5 17
t26.5 4h36q13 0 17 -6.5t4 -15.5v-712q0 -5 -3 -8.5t-12 -3.5h-72q-15 0 -15 12v537l-325 -526q-8 -14 -18 -18.5t-24 -4.5h-34q-14 0 -19.5 5.5t-5.5 18.5v710z" />
    <glyph glyph-name="uni041A" unicode="&#x41a;" horiz-adv-x="625" 
d="M173 -32q0 -12 -15 -12h-73q-14 0 -14 12v721q0 13 13 13h74q8 1 11.5 -1.5t3.5 -10.5v-315h135l212 327q3 6 11 3l60 -36q7 -4 3 -11l-200 -317l219 -370q3 -5 1 -10t-10 -5h-80q-8 0 -11.5 3.5t-5.5 7.5l-196 321h-138v-320z" />
    <glyph glyph-name="uni041B" unicode="&#x41b;" horiz-adv-x="660" 
d="M487 614h-284v-511q0 -43 -12 -65.5t-35 -34.5l-101 -52q-7 -4 -12 4l-37 65q-6 11 4 16l78 42q13 9 13 32v558q0 15 10 24t27 9h414q17 0 27 -9t10 -24v-700q0 -12 -15 -12h-72q-15 0 -15 12v646z" />
    <glyph glyph-name="uni041C" unicode="&#x41c;" horiz-adv-x="870" 
d="M697 -31v618l-173 -345q-7 -12 -12.5 -21.5t-12 -16t-17 -10.5t-26.5 -4h-46q-14 0 -23 2.5t-16 8t-12.5 14.5t-12.5 23l-173 350v-619q0 -13 -16 -13h-70q-16 0 -16 13v721q0 5 2.5 8.5t11.5 3.5h106q19 0 28.5 -8.5t17.5 -27.5l195 -394h6l197 394q8 19 18.5 27.5
t27.5 8.5h104q9 0 11.5 -3.5t2.5 -8.5v-721q0 -13 -15 -13h-72q-15 0 -15 13z" />
    <glyph glyph-name="uni041D" unicode="&#x41d;" horiz-adv-x="665" 
d="M71 -31v718q0 6 3 10.5t11 4.5h73q15 0 15 -14v-301h319v300q0 6 3 10.5t11 4.5h72q16 0 16 -14v-719q0 -13 -16 -13h-70q-16 0 -16 13v331h-319v-331q0 -13 -16 -13h-71q-15 0 -15 13z" />
    <glyph glyph-name="uni041E" unicode="&#x41e;" horiz-adv-x="650" 
d="M557 26l-60 -52q-16 -14 -33.5 -18.5t-38.5 -4.5h-200q-21 0 -38.5 4.5t-33.5 18.5l-60 52q-12 11 -21 29t-9 46v456q0 28 9 46t21 29l60 52q16 14 33.5 18.5t38.5 4.5h200q21 0 38.5 -4.5t33.5 -18.5l60 -52q12 -11 21 -29t9 -46v-456q0 -28 -9 -46t-21 -29zM165 118
q0 -14 2 -23.5t8 -16.5l30 -29q7 -6 16 -8.5t17 -2.5h174q8 0 17 2.5t16 8.5l30 29q6 7 8 16.5t2 23.5v422q0 14 -2 23.5t-8 16.5l-30 29q-7 6 -16 8.5t-17 2.5h-174q-8 0 -17 -2.5t-16 -8.5l-30 -29q-6 -7 -8 -16.5t-2 -23.5v-422z" />
    <glyph glyph-name="uni041F" unicode="&#x41f;" horiz-adv-x="630" 
d="M457 614h-284v-646q0 -12 -15 -12h-72q-15 0 -15 12v700q0 15 10 24t27 9h414q17 0 27 -9t10 -24v-700q0 -12 -15 -12h-72q-15 0 -15 12v646z" />
    <glyph glyph-name="uni0420" unicode="&#x420;" horiz-adv-x="640" 
d="M66 588q0 16 4.5 28.5t15.5 20.5l81 59q11 7 22 9t26 2h216q14 0 27.5 -3t20.5 -8l81 -59q11 -8 15.5 -20.5t4.5 -28.5v-228q0 -14 -3.5 -27t-16.5 -22l-80 -59q-17 -12 -48 -12h-264v-271q0 -13 -13 -13h-76q-13 0 -13 13v619zM227 620q-10 0 -15 -4l-36 -26
q-5 -4 -6.5 -8.5t-1.5 -13.5v-241h248q13 0 20 5l35 25q5 5 6 10.5t1 11.5v189q0 9 -1.5 13.5t-6.5 8.5l-36 26q-7 4 -15 4h-192z" />
    <glyph glyph-name="uni0421" unicode="&#x421;" horiz-adv-x="630" 
d="M166 533v-407q0 -10 6 -17l65 -66q5 -5 15 -5h178q16 0 31 8l90 49q3 2 6.5 2t5.5 -4l32 -65q3 -8 -3 -12l-91 -52q-15 -8 -28 -10.5t-30 -2.5h-221q-32 0 -50 17l-92 96q-13 13 -14.5 29t-1.5 21v426q0 7 1.5 24t14.5 30l92 95q13 13 32 15.5t27 2.5h195q8 0 27.5 -1.5
t33.5 -11.5l98 -66q4 -2 4.5 -6t-1.5 -7l-36 -54q-2 -4 -6 -4t-6 1l-91 54q-15 8 -33 8h-169q-10 0 -16 -6l-59 -64q-5 -5 -5.5 -10.5t-0.5 -6.5z" />
    <glyph glyph-name="uni0422" unicode="&#x422;" horiz-adv-x="560" 
d="M19 615q-10 0 -10 10v67q0 10 10 10h522q10 0 10 -10v-67q0 -10 -10 -10h-212v-646q0 -13 -15 -13h-72q-15 0 -15 13v646h-208z" />
    <glyph glyph-name="uni0423" unicode="&#x423;" horiz-adv-x="585" 
d="M417 689q0 13 13 13h76q13 0 13 -13v-589q0 -15 -2.5 -27t-13.5 -23l-75 -77q-10 -10 -22 -13.5t-28 -3.5h-255q-11 0 -11 11v65q0 5 1.5 7.5t8.5 2.5h242q10 0 15 5l32 34q6 6 6 17v139q-14 -14 -35 -24t-46 -10h-128q-13 0 -26 2t-22 9l-70 53q-16 10 -23 25.5t-7 32.5
v364q0 13 13 13h76q13 0 13 -13v-356q0 -11 5 -15l31 -24q6 -4 15 -4h165q16 0 27.5 9t11.5 25v365z" />
    <glyph glyph-name="uni0424" unicode="&#x424;" horiz-adv-x="655" 
d="M594 430v-180q0 -21 -9.5 -37t-20.5 -27l-58 -52q-18 -16 -35.5 -19.5t-34.5 -3.5h-59v-142q0 -8 -3.5 -10.5t-11.5 -1.5h-73q-13 0 -13 13v141h-58q-20 0 -38 5t-32 18l-58 52q-13 11 -21.5 27t-8.5 37v180q0 21 8 37t22 27l58 52q17 16 35 19.5t35 3.5h58v120
q0 13 13 13h73q8 1 11.5 -1.5t3.5 -10.5v-121h59q18 0 35 -3t35 -20l58 -52q12 -11 21 -27t9 -37zM492 254v172q0 16 -7 22l-29 28q-6 6 -17 6h-62v-284h62q9 0 17 6l29 28q7 6 7 22zM198 476l-29 -28q-7 -6 -7 -22v-172q0 -6 1 -11.5t6 -10.5l29 -28q7 -6 17 -6h61v284h-61
q-10 0 -17 -6z" />
    <glyph glyph-name="uni0425" unicode="&#x425;" horiz-adv-x="600" 
d="M302 380q4 0 6 3l163 305q2 5 5.5 9.5t11.5 4.5h83q16 0 10 -15l-184 -352l190 -363q6 -16 -9 -16h-83q-7 0 -9.5 4.5t-5.5 9.5l-172 318q-2 3 -4 3h-10q-3 0 -4 -3l-171 -318q-3 -6 -6 -10t-10 -4h-82q-16 0 -9 16l189 363l-183 352q-2 8 1.5 11.5t10.5 3.5h81
q7 0 10 -3.5t6 -9.5l162 -305q2 -4 8 -4h5z" />
    <glyph glyph-name="uni0426" unicode="&#x426;" horiz-adv-x="650" 
d="M501 -170v126h-399q-17 0 -27 9t-10 24v700q0 12 15 12h72q15 0 15 -12v-646h284v646q0 12 15 12h72q15 0 15 -12v-646h35q15 0 15 -12v-201q0 -12 -15 -12h-72q-15 0 -15 12z" />
    <glyph glyph-name="uni0427" unicode="&#x427;" horiz-adv-x="585" 
d="M519 689v-720q0 -13 -15 -13h-72q-15 0 -15 13v278q-14 -14 -35 -24t-46 -10h-128q-13 0 -26 2t-22 9l-70 53q-16 10 -23 25.5t-7 32.5v354q0 13 13 13h76q13 0 13 -13v-346q0 -11 5 -15l31 -24q6 -4 15 -4h165q16 0 27.5 9t11.5 25v355q0 13 13 13h76q13 0 13 -13z" />
    <glyph glyph-name="uni0428" unicode="&#x428;" horiz-adv-x="725" 
d="M413 43h144v646q0 12 15 12h72q15 0 15 -12v-700q0 -15 -10 -24t-27 -9h-520q-17 0 -27 9t-10 24v700q0 12 15 12h72q15 0 15 -12v-646h144v645q0 13 13 13h76q13 0 13 -13v-645z" />
    <glyph glyph-name="uni0429" unicode="&#x429;" horiz-adv-x="760" 
d="M611 -170v126h-509q-17 0 -27 9t-10 24v700q0 12 15 12h72q15 0 15 -12v-646h144v645q0 13 13 13h76q13 0 13 -13v-645h144v646q0 12 15 12h72q15 0 15 -12v-646h39q15 0 15 -12v-201q0 -12 -15 -12h-72q-15 0 -15 12z" />
    <glyph glyph-name="uni042A" unicode="&#x42a;" horiz-adv-x="680" 
d="M21 615q-10 0 -10 10v67q0 10 10 10h135h3h76q13 0 13 -13v-271q16 13 36.5 22t52.5 9h135q31 0 48 -12l80 -59q13 -9 16.5 -22t3.5 -27v-254q0 -16 -4.5 -28.5t-15.5 -20.5l-81 -59q-7 -5 -20.5 -8t-27.5 -3h-176q-15 0 -26 2t-22 9l-81 59q-11 8 -15.5 20.5t-4.5 28.5
v540h-125zM459 43q8 0 15 4l36 26q5 4 6.5 8.5t1.5 13.5v214q0 17 -7 22l-36 27q-5 4 -19 4h-166q-10 0 -22 -3.5t-20 -8.5v-255q0 -9 1.5 -13.5t6.5 -8.5l36 -26q5 -4 15 -4h152z" />
    <glyph glyph-name="uni042B" unicode="&#x42b;" horiz-adv-x="775" 
d="M66 689q0 13 13 13h76q13 0 13 -13v-271q16 13 36.5 22t52.5 9h105q31 0 48 -12l80 -59q13 -9 16.5 -22t3.5 -27v-254q0 -16 -4.5 -28.5t-15.5 -20.5l-81 -59q-7 -5 -20.5 -8t-27.5 -3h-146q-15 0 -26 2t-22 9l-81 59q-11 8 -15.5 20.5t-4.5 28.5v614zM349 43q8 0 15 4
l36 26q5 4 6.5 8.5t1.5 13.5v214q0 17 -7 22l-36 27q-5 4 -19 4h-136q-10 0 -22 -3.5t-20 -8.5v-255q0 -9 1.5 -13.5t6.5 -8.5l36 -26q5 -4 15 -4h122zM602 -31v720q0 13 15 13h72q15 0 15 -13v-720q0 -13 -15 -13h-72q-15 0 -15 13z" />
    <glyph glyph-name="uni042C" unicode="&#x42c;" horiz-adv-x="600" 
d="M66 689q0 13 13 13h76q13 0 13 -13v-271q16 13 36.5 22t52.5 9h135q31 0 48 -12l80 -59q13 -9 16.5 -22t3.5 -27v-254q0 -16 -4.5 -28.5t-15.5 -20.5l-81 -59q-7 -5 -20.5 -8t-27.5 -3h-176q-15 0 -26 2t-22 9l-81 59q-11 8 -15.5 20.5t-4.5 28.5v614zM379 43q8 0 15 4
l36 26q5 4 6.5 8.5t1.5 13.5v214q0 17 -7 22l-36 27q-5 4 -19 4h-166q-10 0 -22 -3.5t-20 -8.5v-255q0 -9 1.5 -13.5t6.5 -8.5l36 -26q5 -4 15 -4h152z" />
    <glyph glyph-name="uni042D" unicode="&#x42d;" horiz-adv-x="630" 
d="M118 290q-10 0 -10 10v67q0 10 10 10h346v156q0 1 -0.5 6.5t-5.5 10.5l-59 64q-6 6 -16 6h-169q-18 0 -33 -8l-91 -54q-2 -1 -6 -1t-6 4l-36 54q-2 3 -1.5 7t4.5 6l98 66q14 10 33.5 11.5t27.5 1.5h195q4 0 11 -0.5t15.5 -2t17.5 -5t15 -10.5l92 -95q13 -13 14.5 -30
t1.5 -24v-426q0 -5 -1.5 -21t-14.5 -29l-92 -96q-18 -17 -50 -17h-221q-17 0 -30 2.5t-28 10.5l-91 52q-6 4 -3 12l32 65q2 4 5.5 4t6.5 -2l90 -49q15 -8 31 -8h178q10 0 15 5l65 66q6 7 6 17v164h-346z" />
    <glyph glyph-name="uni042E" unicode="&#x42e;" 
d="M72 688q0 13 13 13h75q14 0 14 -12v-315h99v183q0 28 9 46t21 29l60 52q16 14 33.5 18.5t38.5 4.5h200q21 0 38.5 -4.5t33.5 -18.5l60 -52q12 -11 21 -29t9 -46v-456q0 -28 -9 -46t-21 -29l-60 -52q-16 -14 -33.5 -18.5t-38.5 -4.5h-200q-21 0 -38.5 4.5t-33.5 18.5
l-60 52q-12 11 -21 29t-9 46v186h-99v-319q0 -12 -14 -12h-74q-14 0 -14 12v720zM375 118q0 -14 2 -23.5t8 -16.5l30 -29q7 -6 16 -8.5t17 -2.5h174q8 0 17 2.5t16 8.5l30 29q6 7 8 16.5t2 23.5v422q0 14 -2 23.5t-8 16.5l-30 29q-7 6 -16 8.5t-17 2.5h-174q-8 0 -17 -2.5
t-16 -8.5l-30 -29q-6 -7 -8 -16.5t-2 -23.5v-422z" />
    <glyph glyph-name="uni042F" unicode="&#x42f;" horiz-adv-x="630" 
d="M559 -31q0 -13 -13 -13h-76q-13 0 -13 13v290h-205l-153 -300q-3 -6 -11 -3l-67 33q-7 4 -3 11l134 268q-1 1 -2 1.5t-2 1.5l-80 69q-13 9 -16.5 22t-3.5 27v199q0 16 4.5 28.5t15.5 20.5l81 59q7 5 20.5 8t27.5 3h213q15 0 26 -2t22 -9l81 -59q11 -8 15.5 -20.5
t4.5 -28.5v-619zM209 620q-8 0 -15 -4l-36 -26q-5 -4 -6.5 -8.5t-1.5 -13.5v-160q0 -6 1 -11.5t6 -10.5l35 -35q7 -5 20 -5h245v222q0 9 -1.5 13.5t-6.5 8.5l-36 26q-5 4 -15 4h-189z" />
    <glyph glyph-name="uni0430" unicode="&#x430;" horiz-adv-x="570" 
d="M112 422q-10 0 -10 10v66q0 11 11 11h255q17 0 29 -4.5t21 -12.5l76 -61q11 -9 13.5 -21t2.5 -29v-303q0 -12 -3 -26.5t-20 -29.5l-56 -52q-12 -11 -24.5 -12.5t-35.5 -1.5h-182q-13 0 -26 2t-22 9l-70 53q-16 10 -23 25.5t-7 32.5v104q0 22 8.5 34.5t16.5 18.5l79 66
q10 8 19.5 10.5t22.5 2.5h139q25 0 46.5 -10t35.5 -24v93q0 6 -2 11t-9 10l-28 21q-8 7 -22 7h-235zM143 86q0 -11 5 -15l31 -24q6 -4 15 -4h181q16 0 24.5 9.5t8.5 20.5v118q0 16 -10.5 27.5t-26.5 11.5h-176q-12 0 -19 -4l-26 -20q-7 -6 -7 -17v-103z" />
    <glyph glyph-name="uni0431" unicode="&#x431;" horiz-adv-x="545" 
d="M169 72l29 -28q7 -6 17 -6h114q9 0 17 6l29 28q7 6 7 22v272q0 16 -7 22l-29 28q-6 6 -17 6h-84q-26 0 -46.5 -13t-36.5 -33v-282q0 -6 1 -11.5t6 -10.5zM236 509h90q18 0 35 -3t35 -20l58 -52q12 -11 21 -27t9 -37v-280q0 -21 -9.5 -37t-20.5 -27l-58 -52
q-18 -16 -35.5 -19.5t-34.5 -3.5h-108q-20 0 -38 5t-32 18l-58 52q-13 11 -21.5 27t-8.5 37v384q0 52 24.5 98.5t64.5 81t92 55t107 20.5h66v-87h-69q-30 0 -61.5 -12t-58 -34t-44 -53t-19.5 -69v-8q14 19 33.5 31t40.5 12z" />
    <glyph glyph-name="uni0432" unicode="&#x432;" horiz-adv-x="515" 
d="M71 -26v521q0 14 14 14h220q14 0 27.5 -3.5t20.5 -8.5l63 -54q11 -9 15.5 -22t4.5 -27v-36q0 -16 -2 -30.5t-11 -25.5l-37 -47l46 -55q11 -12 16 -22.5t5 -25.5v-81q0 -14 -4.5 -27t-15.5 -22l-63 -54q-7 -5 -20.5 -8.5t-27.5 -3.5h-233q-9 0 -13.5 6t-4.5 12zM353 89v58
v10t-4 9l-15 20q-5 6 -12.5 8t-15.5 2h-136v-155h131q13 0 19 4l26 22q7 5 7 22zM170 424v-145h108q8 0 16 1.5t14 8.5l22 24q5 6 5.5 13t0.5 15v39q-1 8 -3 12t-4 6l-26 22q-6 4 -19 4h-114z" />
    <glyph glyph-name="uni0433" unicode="&#x433;" horiz-adv-x="420" 
d="M173 417v-449q0 -12 -15 -12h-72q-15 0 -15 12v503q0 15 10 24t27 9h272q6 0 11.5 -3t5.5 -9v-59q0 -5 -4.5 -10.5t-10.5 -5.5h-209z" />
    <glyph glyph-name="uni0434" unicode="&#x434;" horiz-adv-x="570" 
d="M129 -44v-134q0 -13 -16 -13h-71q-15 0 -15 13v207q0 14 14 14h35q33 0 51.5 23t18.5 65v340q0 15 10 24t27 9h265q17 0 27 -9t10 -24v-428h43q16 0 16 -14v-207q0 -13 -16 -13h-70q-16 0 -16 13v134h-313zM207 43h176v374h-135v-286q0 -28 -10 -52t-31 -36z" />
    <glyph glyph-name="uni0435" unicode="&#x435;" horiz-adv-x="565" 
d="M483 43q10 0 10 -10v-66q0 -11 -11 -11h-280q-17 0 -29 4.5t-21 12.5l-76 61q-11 9 -13.5 21t-2.5 29v303q0 12 3 26.5t20 29.5l56 52q12 11 24.5 12.5t35.5 1.5h187q13 0 26 -2t22 -9l70 -53q16 -10 23 -25.5t7 -32.5v-89q0 -22 -8.5 -34.5t-16.5 -18.5l-79 -66
q-10 -8 -19.5 -10.5t-22.5 -2.5h-145q-25 0 -46 10t-35 24v-108q0 -6 2 -11t9 -10l27 -21q8 -7 22 -7h261zM432 379q0 11 -5 15l-31 24q-6 4 -15 4h-186q-16 0 -24.5 -9.5t-8.5 -20.5v-108q0 -16 11.5 -25t27.5 -9h179q12 0 19 4l26 20q7 6 7 17v88z" />
    <glyph glyph-name="uni0436" unicode="&#x436;" horiz-adv-x="630" 
d="M363 495v-204l122 207q3 5 7 8t13 3h77q5 0 6.5 -4t-1.5 -9l-145 -242l175 -287q3 -5 0 -8t-8 -3h-78q-5 0 -9.5 1.5t-9.5 9.5l-130 215l-19 -28v-184q0 -14 -15 -14h-66q-8 0 -11 4.5t-3 10.5v180l-21 31l-130 -215q-5 -8 -9.5 -9.5t-9.5 -1.5h-78q-5 0 -8 3t0 8
l176 287l-146 242q-3 5 -1.5 9t6.5 4h77q9 0 13 -3t7 -8l124 -210v206q0 6 3 10.5t11 4.5h66q15 0 15 -14z" />
    <glyph glyph-name="uni0437" unicode="&#x437;" horiz-adv-x="477" 
d="M240 -49h-86q-12 0 -28 2t-29 11l-79 52q-4 2 -4 6.5t2 7.5l37 55q2 3 6 4.5t8 -0.5l70 -43q13 -8 27 -8h71q30 0 49.5 13t19.5 42v40q0 33 -21 45.5t-54 12.5h-84q-7 0 -13 3t-6 11v57q0 5 4.5 9.5t11.5 4.5h75q31 0 49.5 15.5t18.5 51.5v26q0 53 -57 53h-47
q-14 0 -27 -8l-75 -44q-4 -2 -8 -0.5t-6 4.5l-37 55q-2 3 -2 7.5t4 6.5l84 53q13 9 29 11t28 2h59q35 0 64 -11t49.5 -29t32 -42t11.5 -49v-24q0 -51 -18 -75t-43 -35q35 -7 57.5 -34.5t22.5 -77.5v-41q0 -32 -14 -57.5t-37.5 -44t-53.5 -28.5t-61 -10z" />
    <glyph glyph-name="uni0438" unicode="&#x438;" horiz-adv-x="570" 
d="M71 -20v517q0 12 15 12h72q14 0 14 -13v-348l227 340q8 13 16.5 17t26.5 4h36q13 0 17 -6.5t4 -15.5v-519q0 -5 -3 -8.5t-12 -3.5h-72q-15 0 -15 12v344l-225 -333q-8 -13 -18 -18t-24 -5h-34q-14 0 -19.5 5.5t-5.5 18.5z" />
    <glyph glyph-name="uni0439" unicode="&#x439;" horiz-adv-x="605" 
d="M71 -20v517q0 12 15 12h72q14 0 14 -13v-348l227 340q8 13 16.5 17t26.5 4h36q13 0 17 -6.5t4 -15.5v-519q0 -5 -3 -8.5t-12 -3.5h-72q-15 0 -15 12v344l-225 -333q-8 -13 -18 -18t-24 -5h-34q-14 0 -19.5 5.5t-5.5 18.5zM290 638q31 0 50.5 21.5t27.5 59.5q3 14 16 14
h60q10 0 12.5 -5.5t1.5 -9.5q-13 -77 -59 -116.5t-109 -39.5t-109 39.5t-59 116.5q-1 4 1.5 9.5t12.5 5.5h60q8 0 11 -4t5 -10q8 -38 27.5 -59.5t50.5 -21.5z" />
    <glyph glyph-name="uni043A" unicode="&#x43a;" horiz-adv-x="540" 
d="M167 -31q0 -13 -15 -13h-73q-8 0 -10.5 3.5t-2.5 8.5v528q0 13 13 13h74q9 0 11.5 -2.5t2.5 -9.5v-214q29 8 55 24.5t48 51.5l79 126q9 14 22.5 19t27.5 5h56q14 0 26 -7l39 -24q10 -5 5 -16l-29 -50q-6 -11 -18 -4l-19 12q-2 2 -5.5 2h-6.5h-15q-11 0 -17 -10l-63 -102
q-13 -21 -32 -42l211 -290q5 -8 2 -15t-11 -7h-76q-14 0 -20 10l-184 241q-33 -17 -75 -25v-213z" />
    <glyph glyph-name="uni043B" unicode="&#x43b;" horiz-adv-x="548" 
d="M91 490q0 19 22 19h342q22 0 22 -19v-521q0 -13 -16 -13h-70q-16 0 -16 13v453h-183v-323q0 -43 -11 -64t-35 -32l-91 -42q-7 -4 -12 4l-37 65q-6 11 4 16l68 32q8 4 10.5 11.5t2.5 20.5v380z" />
    <glyph glyph-name="uni043C" unicode="&#x43c;" horiz-adv-x="670" 
d="M501 -31v431l-85 -273q-7 -22 -17.5 -34.5t-31.5 -12.5h-66q-20 0 -30 10t-17 33l-85 278v-432q0 -13 -16 -13h-66q-16 0 -16 13v529q0 5 2.5 8.5t11.5 3.5h105q19 0 29.5 -8t16.5 -28l96 -312h6l98 312q6 20 17.5 28t28.5 8h103q9 0 11.5 -3.5t2.5 -8.5v-529
q0 -13 -15 -13h-68q-15 0 -15 13z" />
    <glyph glyph-name="uni043D" unicode="&#x43d;" horiz-adv-x="575" 
d="M71 -31v525q0 6 3 10.5t11 4.5h73q15 0 15 -14v-204h229v203q0 6 3 10.5t11 4.5h72q16 0 16 -14v-526q0 -13 -16 -13h-70q-16 0 -16 13v235h-229v-235q0 -13 -16 -13h-71q-15 0 -15 13z" />
    <glyph glyph-name="uni043E" unicode="&#x43e;" horiz-adv-x="595" 
d="M534 370v-280q0 -21 -9.5 -37t-20.5 -27l-58 -52q-18 -16 -35.5 -19.5t-34.5 -3.5h-158q-20 0 -38 5t-32 18l-58 52q-13 11 -21.5 27t-8.5 37v280q0 21 8 37t22 27l58 52q17 16 35 19.5t35 3.5h158q18 0 35 -3t35 -20l58 -52q12 -11 21 -27t9 -37zM432 94v272q0 16 -7 22
l-29 28q-6 6 -17 6h-164q-10 0 -17 -6l-29 -28q-7 -6 -7 -22v-272q0 -6 1 -11.5t6 -10.5l29 -28q7 -6 17 -6h164q9 0 17 6l29 28q7 6 7 22z" />
    <glyph glyph-name="uni043F" unicode="&#x43f;" horiz-adv-x="550" 
d="M377 417h-204v-449q0 -12 -15 -12h-72q-15 0 -15 12v503q0 15 10 24t27 9h334q17 0 27 -9t10 -24v-503q0 -12 -15 -12h-72q-15 0 -15 12v449z" />
    <glyph glyph-name="uni0440" unicode="&#x440;" horiz-adv-x="600" 
d="M66 -187v577q0 16 4.5 28.5t15.5 20.5l81 59q11 7 22 9t26 2h176q14 0 27.5 -3t20.5 -8l81 -59q11 -8 15.5 -20.5t4.5 -28.5v-270q0 -14 -3.5 -27t-16.5 -22l-80 -59q-17 -12 -48 -12h-143q-25 0 -46 10t-35 24v-221q0 -13 -13 -13h-76q-13 0 -13 13zM376 87q14 0 19 4
l36 27q7 5 7 22v230q0 9 -1.5 13.5t-6.5 8.5l-36 26q-7 4 -15 4h-152q-10 0 -15 -4l-36 -26q-5 -4 -6.5 -8.5t-1.5 -13.5v-249q0 -16 11.5 -25t27.5 -9h169z" />
    <glyph glyph-name="uni0441" unicode="&#x441;" horiz-adv-x="560" 
d="M50 117v227q0 5 2 21t15 29l95 98q10 10 22.5 13.5t28.5 3.5h153q13 0 29 -2t30 -11l92 -59q9 -5 3 -13l-34 -54q-4 -7 -11 -4l-82 49q-8 5 -15 6t-15 1h-128q-10 0 -15 -5l-62 -64q-5 -5 -5.5 -8.5t-0.5 -8.5v-211q0 -1 0.5 -6.5t5.5 -10.5l61 -63q6 -6 16 -6h140
q8 0 13.5 1.5t13.5 6.5l81 51q7 2 11 -4l35 -57q2 -3 1.5 -7t-4.5 -6l-92 -59q-14 -8 -30 -10.5t-29 -2.5h-163q-20 0 -31 4t-20 13l-94 98q-13 13 -15 29t-2 21z" />
    <glyph glyph-name="uni0442" unicode="&#x442;" horiz-adv-x="480" 
d="M19 422q-10 0 -10 10v67q0 10 10 10h442q10 0 10 -10v-67q0 -10 -10 -10h-172v-453q0 -13 -15 -13h-72q-15 0 -15 13v453h-168z" />
    <glyph glyph-name="uni0443" unicode="&#x443;" horiz-adv-x="585" 
d="M417 496q0 13 13 13h76q13 0 13 -13v-552q0 -15 -2.5 -27t-13.5 -23l-75 -77q-10 -10 -22 -13.5t-28 -3.5h-255q-11 0 -11 11v65q0 5 1.5 7.5t8.5 2.5h242q10 0 15 5l32 34q6 6 6 17v112q-14 -14 -35 -24t-46 -10h-128q-13 0 -26 2t-22 9l-70 53q-16 10 -23 25.5t-7 32.5
v354q0 13 13 13h76q13 0 13 -13v-346q0 -11 5 -15l31 -24q6 -4 15 -4h165q16 0 27.5 9t11.5 25v355z" />
    <glyph glyph-name="uni0444" unicode="&#x444;" horiz-adv-x="775" 
d="M714 330v-180q0 -21 -9.5 -37t-20.5 -27l-58 -52q-18 -16 -35.5 -19.5t-34.5 -3.5h-119v-242q0 -8 -3.5 -10.5t-11.5 -1.5h-73q-13 0 -13 13v241h-118q-20 0 -38 5t-32 18l-58 52q-13 11 -21.5 27t-8.5 37v180q0 21 8 37t22 27l58 52q17 16 35 19.5t35 3.5h118v220
q0 13 13 13h73q8 1 11.5 -1.5t3.5 -10.5v-221h119q18 0 35 -3t35 -20l58 -52q12 -11 21 -27t9 -37zM612 154v172q0 16 -7 22l-29 28q-6 6 -17 6h-122v-284h122q9 0 17 6l29 28q7 6 7 22zM198 376l-29 -28q-7 -6 -7 -22v-172q0 -6 1 -11.5t6 -10.5l29 -28q7 -6 17 -6h121v284
h-121q-10 0 -17 -6z" />
    <glyph glyph-name="uni0445" unicode="&#x445;" horiz-adv-x="515" 
d="M260 288q2 0 3 2l135 214q3 5 10 5h86q9 0 5 -10l-155 -259l157 -274q4 -10 -5 -10h-86q-6 0 -9 4l-138 236q-1 2 -4 2h-4q-3 0 -4 -2l-138 -236q-3 -4 -9 -4h-86q-9 0 -5 10l157 274l-155 259q-4 10 5 10h86q9 0 12 -5l133 -214q1 -2 3 -2h6z" />
    <glyph glyph-name="uni0446" unicode="&#x446;" horiz-adv-x="550" 
d="M401 -170v126h-299q-17 0 -27 9t-10 24v503q0 12 15 12h72q15 0 15 -12v-449h184v449q0 12 15 12h72q15 0 15 -12v-449h35q15 0 15 -12v-201q0 -12 -15 -12h-72q-15 0 -15 12z" />
    <glyph glyph-name="uni0447" unicode="&#x447;" horiz-adv-x="545" 
d="M479 491v-522q0 -13 -15 -13h-72q-15 0 -15 13v188q-14 -14 -35 -24t-46 -10h-88q-13 0 -26 2t-22 9l-70 53q-16 10 -23 25.5t-7 32.5v246q0 13 13 13h76q13 0 13 -13v-238q0 -11 5 -15l31 -24q6 -4 15 -4h125q16 0 27.5 9t11.5 25v247q0 13 13 13h76q13 0 13 -13z" />
    <glyph glyph-name="uni0448" unicode="&#x448;" horiz-adv-x="685" 
d="M393 43h124v453q0 12 15 12h72q15 0 15 -12v-507q0 -15 -10 -24t-27 -9h-480q-17 0 -27 9t-10 24v507q0 12 15 12h72q15 0 15 -12v-453h124v452q0 13 13 13h76q13 0 13 -13v-452z" />
    <glyph glyph-name="uni0449" unicode="&#x449;" horiz-adv-x="726" 
d="M577 -170v126h-475q-17 0 -27 9t-10 24v507q0 12 15 12h72q15 0 15 -12v-453h124v452q0 13 13 13h76q13 0 13 -13v-452h124v453q0 12 15 12h72q15 0 15 -12v-453h45q15 0 15 -12v-201q0 -12 -15 -12h-72q-15 0 -15 12z" />
    <glyph glyph-name="uni044A" unicode="&#x44a;" horiz-adv-x="560" 
d="M341 41q8 0 15 4l36 26q5 4 6.5 8.5t1.5 13.5v108q0 17 -7 22l-36 27q-5 4 -19 4h-90q-10 0 -22 -3.5t-20 -8.5v-149q0 -9 1.5 -13.5t6.5 -8.5l36 -26q5 -4 15 -4h76zM21 425q-10 0 -10 10v67q0 10 10 10h172q13 0 13 -13v-191q16 13 36.5 22t52.5 9h57q31 0 48 -12
l80 -59q13 -9 16.5 -22t3.5 -27v-144q0 -16 -4.5 -28.5t-15.5 -20.5l-81 -59q-7 -5 -20.5 -8t-27.5 -3h-96q-15 0 -26 2t-22 9l-81 59q-11 8 -15.5 20.5t-4.5 28.5v350h-85z" />
    <glyph glyph-name="uni044B" unicode="&#x44b;" horiz-adv-x="702" 
d="M66 499q0 13 13 13h74q13 0 13 -13v-191q16 13 36.5 22t52.5 9h57q31 0 48 -12l80 -59q13 -9 16.5 -22t3.5 -27v-144q0 -16 -4.5 -28.5t-15.5 -20.5l-81 -59q-7 -5 -20.5 -8t-27.5 -3h-96q-15 0 -26 2t-22 9l-81 59q-11 8 -15.5 20.5t-4.5 28.5v424zM301 41q8 0 15 4
l36 26q5 4 6.5 8.5t1.5 13.5v108q0 17 -7 22l-36 27q-5 4 -19 4h-90q-10 0 -22 -3.5t-20 -8.5v-149q0 -9 1.5 -13.5t6.5 -8.5l36 -26q5 -4 15 -4h76zM529 -31v530q0 13 15 13h72q15 0 15 -13v-530q0 -13 -15 -13h-72q-15 0 -15 13z" />
    <glyph glyph-name="uni044C" unicode="&#x44c;" horiz-adv-x="520" 
d="M66 499q0 13 13 13h74q13 0 13 -13v-191q16 13 36.5 22t52.5 9h57q31 0 48 -12l80 -59q13 -9 16.5 -22t3.5 -27v-144q0 -16 -4.5 -28.5t-15.5 -20.5l-81 -59q-7 -5 -20.5 -8t-27.5 -3h-96q-15 0 -26 2t-22 9l-81 59q-11 8 -15.5 20.5t-4.5 28.5v424zM301 41q8 0 15 4
l36 26q5 4 6.5 8.5t1.5 13.5v108q0 17 -7 22l-36 27q-5 4 -19 4h-90q-10 0 -22 -3.5t-20 -8.5v-149q0 -9 1.5 -13.5t6.5 -8.5l36 -26q5 -4 15 -4h76z" />
    <glyph glyph-name="uni044D" unicode="&#x44d;" horiz-adv-x="568" 
d="M116 191q-10 0 -10 10v67q0 10 10 10h287v58q0 5 -0.5 8.5t-5.5 8.5l-62 64q-5 5 -15 5h-118q-8 0 -15 -1t-15 -6l-82 -49q-7 -3 -11 4l-34 54q-6 8 3 13l92 59q14 9 30 11t29 2h143q16 0 28.5 -3.5t22.5 -13.5l95 -98q13 -13 15 -29t2 -21v-227q0 -5 -2 -21t-15 -29
l-94 -98q-9 -9 -20 -13t-31 -4h-153q-13 0 -29 2.5t-30 10.5l-92 59q-4 2 -4.5 6t1.5 7l35 57q4 6 11 4l81 -51q8 -5 13.5 -6.5t13.5 -1.5h130q10 0 16 6l61 63q5 5 5.5 10.5t0.5 6.5v66h-287z" />
    <glyph glyph-name="uni044E" unicode="&#x44e;" horiz-adv-x="790" 
d="M71 491q0 13 13 13h75q14 0 14 -12v-215h106v93q0 21 8 37t22 27l58 52q17 16 35 19.5t35 3.5h134q18 0 35 -3t35 -20l58 -52q12 -11 21 -27t9 -37v-280q0 -21 -9.5 -37t-20.5 -27l-58 -52q-18 -16 -35.5 -19.5t-34.5 -3.5h-134q-20 0 -38 5t-32 18l-58 52
q-13 11 -21.5 27t-8.5 37v100h-106v-222q0 -12 -14 -12h-74q-14 0 -14 12v523zM627 94v272q0 16 -7 22l-29 28q-6 6 -17 6h-140q-10 0 -17 -6l-29 -28q-7 -6 -7 -22v-272q0 -6 1 -11.5t6 -10.5l29 -28q7 -6 17 -6h140q9 0 17 6l29 28q7 6 7 22z" />
    <glyph glyph-name="uni044F" unicode="&#x44f;" horiz-adv-x="500" 
d="M429 -31q0 -13 -13 -13h-74q-13 0 -13 13v190h-97l-133 -200q-3 -6 -11 -3l-67 33q-7 4 -3 11l113 177l-63 59q-11 11 -15.5 23t-4.5 26v108q0 16 4.5 28.5t15.5 20.5l75 56q7 5 20.5 8t27.5 3h95q15 0 26 -2t22 -9l75 -56q11 -8 15.5 -20.5t4.5 -28.5v-424zM201 424
q-8 0 -15 -4l-30 -23q-5 -4 -6.5 -8.5t-1.5 -13.5v-73q0 -6 1 -11.5t6 -10.5l32 -31q7 -5 20 -5h122v131q0 9 -1.5 13.5t-6.5 8.5l-30 23q-5 4 -15 4h-75z" />
    <glyph glyph-name="uni0451" unicode="&#x451;" horiz-adv-x="565" 
d="M483 43q10 0 10 -10v-66q0 -11 -11 -11h-280q-17 0 -29 4.5t-21 12.5l-76 61q-11 9 -13.5 21t-2.5 29v303q0 12 3 26.5t20 29.5l56 52q12 11 24.5 12.5t35.5 1.5h187q13 0 26 -2t22 -9l70 -53q16 -10 23 -25.5t7 -32.5v-89q0 -22 -8.5 -34.5t-16.5 -18.5l-79 -66
q-10 -8 -19.5 -10.5t-22.5 -2.5h-145q-25 0 -46 10t-35 24v-108q0 -6 2 -11t9 -10l27 -21q8 -7 22 -7h261zM432 379q0 11 -5 15l-31 24q-6 4 -15 4h-186q-16 0 -24.5 -9.5t-8.5 -20.5v-108q0 -16 11.5 -25t27.5 -9h179q12 0 19 4l26 20q7 6 7 17v88zM148 682h70
q7 0 10.5 -4.5t3.5 -9.5v-71q0 -5 -3 -9.5t-11 -4.5h-70q-8 0 -11 4.5t-3 9.5v71q0 5 3.5 9.5t10.5 4.5zM382 682h70q7 0 10.5 -4.5t3.5 -9.5v-71q0 -5 -3 -9.5t-11 -4.5h-70q-8 0 -11 4.5t-3 9.5v71q0 5 3.5 9.5t10.5 4.5z" />
    <glyph glyph-name="uni2015" unicode="&#x2015;" horiz-adv-x="880" 
d="M20 300q-10 0 -10 10v67q0 10 10 10h840q10 0 10 -10v-67q0 -10 -10 -10h-840z" />
    <glyph glyph-name="quoteleft" unicode="&#x2018;" horiz-adv-x="220" 
d="M117 571q-13 0 -16 5t-5 11l-43 197q-2 7 5 7h61q13 0 19 -15l58 -195q1 -3 -0.5 -6.5t-7.5 -3.5h-71z" />
    <glyph glyph-name="quoteright" unicode="&#x2019;" horiz-adv-x="220" 
d="M168 791q6 0 7.5 -3.5t0.5 -6.5l-58 -195q-6 -15 -19 -15h-61q-7 0 -5 7l43 197q2 6 5 11t16 5h71z" />
    <glyph glyph-name="quotedblleft" unicode="&#x201c;" horiz-adv-x="440" 
d="M157 571q-13 0 -16 5t-5 11l-43 197q-2 7 5 7h61q13 0 19 -15l58 -195q1 -3 -0.5 -6.5t-7.5 -3.5h-71zM307 571q-13 0 -16 5t-5 11l-43 197q-2 7 5 7h61q13 0 19 -15l58 -195q1 -3 -0.5 -6.5t-7.5 -3.5h-71z" />
    <glyph glyph-name="quotedblright" unicode="&#x201d;" horiz-adv-x="440" 
d="M188 791q6 0 7.5 -3.5t0.5 -6.5l-58 -195q-6 -15 -19 -15h-61q-7 0 -5 7l43 197q2 6 5 11t16 5h71zM338 791q6 0 7.5 -3.5t0.5 -6.5l-58 -195q-6 -15 -19 -15h-61q-7 0 -5 7l43 197q2 6 5 11t16 5h71z" />
    <glyph glyph-name="dagger" unicode="&#x2020;" horiz-adv-x="900" 
d="M396 -114v602h-157v70h157v187h88v-187h158v-70h-158v-602h-88z" />
    <glyph glyph-name="daggerdbl" unicode="&#x2021;" horiz-adv-x="900" 
d="M397 -114v430h-158v71h158v113h-158v70h158v175h88v-175h157v-70h-157v-113h157v-71h-157v-430h-88z" />
    <glyph glyph-name="twodotenleader" unicode="&#x2025;" horiz-adv-x="615" 
d="M120 53q0 10 15 15h78q15 0 15 -14v-105q0 -13 -16 -13h-76q-16 0 -16 13v104zM386 53q0 10 15 15h78q15 0 15 -14v-105q0 -13 -16 -13h-76q-16 0 -16 13v104z" />
    <glyph glyph-name="ellipsis" unicode="&#x2026;" horiz-adv-x="880" 
d="M120 53q0 10 15 15h78q15 0 15 -14v-105q0 -13 -16 -13h-76q-16 0 -16 13v104zM386 53q0 10 15 15h78q15 0 15 -14v-105q0 -13 -16 -13h-76q-16 0 -16 13v104zM651 53q0 10 15 15h78q15 0 15 -14v-105q0 -13 -16 -13h-76q-16 0 -16 13v104z" />
    <glyph glyph-name="perthousand" unicode="&#x2030;" horiz-adv-x="900" 
d="M172 396q-63 0 -97.5 41t-34.5 107q0 65 34.5 106.5t97.5 41.5t97.5 -41.5t34.5 -106.5q0 -66 -34.5 -107t-97.5 -41zM172 467q31 0 43 24.5t12 52.5q0 13 -2.5 27t-9 25t-17 18t-26.5 7t-26.5 -7t-16.5 -18t-8.5 -25t-2.5 -27q0 -14 2.5 -27.5t8.5 -24.5t16.5 -18
t26.5 -7zM409 691q4 11 14 11h66q6 0 7.5 -3t0.5 -6l-289 -730q-3 -7 -12 -7h-70q-8 0 -6 7zM440 -46q-63 0 -97.5 41t-34.5 107q0 65 34.5 106.5t97.5 41.5t97.5 -41.5t34.5 -106.5q0 -66 -34.5 -107t-97.5 -41zM440 25q31 0 43 24.5t12 52.5q0 13 -2.5 27t-9 25t-17 18
t-26.5 7t-26.5 -7t-16.5 -18t-8.5 -25t-2.5 -27q0 -14 2.5 -27.5t8.5 -24.5t16.5 -18t26.5 -7zM729 -46q-63 0 -97.5 41t-34.5 107q0 65 34.5 106.5t97.5 41.5t97.5 -41.5t34.5 -106.5q0 -66 -34.5 -107t-97.5 -41zM729 25q31 0 43 24.5t12 52.5q0 13 -2.5 27t-9 25t-17 18
t-26.5 7t-26.5 -7t-16.5 -18t-8.5 -25t-2.5 -27q0 -14 2.5 -27.5t8.5 -24.5t16.5 -18t26.5 -7z" />
    <glyph glyph-name="minute" unicode="&#x2032;" horiz-adv-x="340" 
d="M145 788q3 6 6.5 7.5t8.5 1.5h110q13 0 9 -9l-157 -227q-4 -7 -12 -7h-75q-4 0 -6 3t0 6z" />
    <glyph glyph-name="second" unicode="&#x2033;" horiz-adv-x="510" 
d="M145 788q3 6 6.5 7.5t8.5 1.5h110q6 0 9 -2t0 -7l-157 -227q-4 -7 -12 -7h-75q-4 0 -6 3t0 6zM315 788q3 6 6.5 7.5t8.5 1.5h110q13 0 9 -9l-157 -227q-4 -7 -12 -7h-75q-4 0 -6 3t0 6z" />
    <glyph glyph-name="uni203B" unicode="&#x203b;" horiz-adv-x="900" 
d="M701 376q0 10 15 15h78q15 0 15 -14v-85q0 -13 -16 -13h-76q-16 0 -16 13v84zM90 376q0 10 15 15h78q15 0 15 -14v-85q0 -13 -16 -13h-76q-16 0 -16 13v84zM396 637q0 10 15 15h78q15 0 15 -14v-85q0 -13 -16 -13h-76q-16 0 -16 13v84zM396 103q0 10 15 15h78
q15 0 15 -14v-85q0 -13 -16 -13h-76q-16 0 -16 13v84zM452 380q4 0 6 3l223 255q3 4 9 9t14 5h77q7 0 11 -4.5t-1 -10.5l-264 -302l270 -313q5 -7 1.5 -11.5t-10.5 -4.5h-77q-7 0 -12 4.5t-9 9.5l-232 268q-2 3 -4 3h-10q-3 0 -4 -3l-231 -268q-5 -5 -10 -9.5t-12 -4.5h-76
q-16 0 -9 16l269 313l-263 302q-5 6 0 10.5t12 4.5h75q7 0 12 -4t10 -9l222 -255q2 -4 8 -4h5z" />
    <glyph glyph-name="uni2074" unicode="&#x2074;" horiz-adv-x="420" 
d="M343 451h-32v-72q0 -15 -16 -15h-42q-16 0 -16 15v72h-142q-27 0 -27 25v22q0 8 2 14.5t4 14.5l67 204q5 14 20 14h43q8 0 13 -3.5t1 -15.5l-67 -210h86v159q0 15 16 15h42q16 0 16 -15v-159h32q16 0 16 -15v-36q0 -14 -16 -14z" />
    <glyph glyph-name="uni207F" unicode="&#x207f;" horiz-adv-x="410" 
d="M263 745q20 0 30 -8l57 -41q8 -5 11 -14t3 -20v-289q0 -9 -11 -9h-58q-12 0 -12 9v267q0 12 -5 15l-24 19q-6 4 -12 4h-74q-7 0 -10 -3l-24 -16q-6 -3 -6 -14v-272q0 -9 -12 -9h-58q-11 0 -11 9v289q0 9 3 18.5t11 15.5l56 41q12 8 34 8h112z" />
    <glyph glyph-name="uni2081" unicode="&#x2081;" horiz-adv-x="420" 
d="M254 321v-342q0 -15 -16 -15h-48q-16 0 -16 15v297h-33q-16 0 -16 14v36q0 15 16 15h91q15 0 18.5 -5t3.5 -15z" />
    <glyph glyph-name="uni2082" unicode="&#x2082;" horiz-adv-x="420" 
d="M329 -34h-218q-14 0 -18.5 6t-4.5 15v90q0 32 15 55t47 33l100 30q9 3 11.5 8t2.5 10v47q0 14 -5.5 16.5t-10.5 2.5h-66q-7 0 -13 -4l-42 -27q-5 -3 -10 -2.5t-8 5.5l-25 36q-4 5 -2 9.5t7 7.5l50 33q8 5 16.5 6.5t15.5 1.5h82q18 0 33.5 -6.5t27.5 -18t19 -26.5t7 -32
v-40q0 -42 -19.5 -61t-47.5 -28l-92 -28q-17 -6 -17 -30v-44h165q16 0 16 -15v-36q0 -14 -16 -14z" />
    <glyph glyph-name="uni2083" unicode="&#x2083;" horiz-adv-x="420" 
d="M237 122h-88q-16 0 -16 14v35q0 15 16 15h81q20 0 20 24v49q0 18 -17 18h-55q-7 0 -13 -4l-42 -27q-5 -3 -10 -2.5t-8 5.5l-25 36q-4 5 -2 9.5t7 7.5l50 33q8 5 16.5 6.5t15.5 1.5h67q18 0 34.5 -6.5t29.5 -18t21 -27t8 -32.5v-40q0 -20 -5 -34t-19 -22q13 -8 23 -25
t10 -37v-59q0 -35 -25.5 -59.5t-66.5 -24.5h-86q-7 0 -15.5 1.5t-16.5 6.5l-50 33q-5 3 -7 7.5t2 9.5l25 36q3 5 8 5.5t10 -2.5l42 -27q6 -4 13 -4h75q16 0 16 17v61q0 20 -23 20z" />
    <glyph glyph-name="uni2084" unicode="&#x2084;" horiz-adv-x="420" 
d="M343 51h-32v-72q0 -15 -16 -15h-42q-16 0 -16 15v72h-142q-27 0 -27 25v22q0 8 2 14.5t4 14.5l67 204q5 14 20 14h43q8 0 13 -3.5t1 -15.5l-67 -210h86v159q0 15 16 15h42q16 0 16 -15v-159h32q16 0 16 -15v-36q0 -14 -16 -14z" />
    <glyph glyph-name="Euro" unicode="&#x20ac;" horiz-adv-x="900" 
d="M124 178q-10 0 -10 10v63q0 10 10 10h160v144h-160q-10 0 -10 10v63q0 10 10 10h160v52q0 7 1.5 24t14.5 30l92 95q13 13 32 15.5t27 2.5h195q8 0 27.5 -1.5t33.5 -11.5l98 -66q4 -2 4.5 -6t-1.5 -7l-36 -54q-2 -4 -6 -4t-6 1l-91 54q-15 8 -33 8h-169q-10 0 -16 -6
l-59 -64q-5 -5 -5.5 -10.5t-0.5 -6.5v-45h180q10 0 10 -10v-63q0 -10 -10 -10h-180v-144h180q10 0 10 -10v-63q0 -10 -10 -10h-180v-52q0 -10 6 -17l65 -66q5 -5 15 -5h178q16 0 31 8l90 49q3 2 6.5 2t5.5 -4l32 -65q3 -8 -3 -12l-91 -52q-15 -8 -28 -10.5t-30 -2.5h-221
q-32 0 -50 17l-92 96q-13 13 -14.5 29t-1.5 21v64h-160z" />
    <glyph glyph-name="uni2103" unicode="&#x2103;" horiz-adv-x="900" 
d="M411 533v-402q0 -10 6 -17l65 -66q5 -5 15 -5h178q16 0 31 8l90 49q3 2 6.5 2t5.5 -4l32 -65q3 -8 -3 -12l-91 -52q-15 -8 -28 -10.5t-30 -2.5h-221q-32 0 -50 17l-92 96q-13 13 -14.5 29t-1.5 21v421q0 7 1.5 24t14.5 30l92 95q13 13 32 15.5t27 2.5h195q8 0 27.5 -1.5
t33.5 -11.5l98 -66q4 -2 4.5 -6t-1.5 -7l-36 -54q-2 -4 -6 -4t-6 1l-91 54q-15 8 -33 8h-169q-10 0 -16 -6l-59 -64q-5 -5 -5.5 -10.5t-0.5 -6.5zM294 697v-32q0 -20 -8 -37t-22 -29.5t-32.5 -20t-38.5 -7.5h-34q-20 0 -38.5 7.5t-32.5 20t-22 29.5t-8 37v32q0 19 8 36.5
t22 30t32.5 20t38.5 7.5h34q20 0 38.5 -7.5t32.5 -20t22 -30t8 -36.5zM223 699q0 12 -10 21t-22 9h-30q-12 0 -22 -9t-10 -21v-36q0 -12 10 -21t22 -9h30q12 0 22 9t10 21v36z" />
    <glyph glyph-name="uni2109" unicode="&#x2109;" horiz-adv-x="900" 
d="M364 -32v614q0 14 4.5 27.5t15.5 21.5l80 59q7 5 20.5 8.5t27.5 3.5h307q6 0 11.5 -3t5.5 -9v-59q0 -5 -4.5 -10.5t-10.5 -5.5h-293q-13 0 -19 -4l-36 -27q-7 -5 -7 -22v-209l68 23q8 3 17.5 4.5t17.5 1.5h235q11 0 11 -10v-67q0 -7 -2.5 -8.5t-8.5 -1.5h-338v-327
q0 -12 -15 -12h-72q-15 0 -15 12zM319 697v-32q0 -20 -8 -37t-22 -29.5t-32.5 -20t-38.5 -7.5h-34q-20 0 -38.5 7.5t-32.5 20t-22 29.5t-8 37v32q0 19 8 36.5t22 30t32.5 20t38.5 7.5h34q20 0 38.5 -7.5t32.5 -20t22 -30t8 -36.5zM248 699q0 12 -10 21t-22 9h-30
q-12 0 -22 -9t-10 -21v-36q0 -12 10 -21t22 -9h30q12 0 22 9t10 21v36z" />
    <glyph glyph-name="uni2113" unicode="&#x2113;" horiz-adv-x="470" 
d="M36 51q-5 12 8 15q24 4 47 9t37 10q-21 48 -34.5 99t-13.5 108q0 58 10 123.5t30.5 120.5t51.5 91.5t74 36.5h38q31 0 52 -12.5t34 -33.5t18.5 -48t5.5 -56q0 -63 -10 -133.5t-28.5 -135t-43.5 -115.5t-55 -75q3 -8 9.5 -16t16.5 -8h17q5 0 10.5 5.5t11.5 13.5l42 56
q2 4 6 7.5t11 -1.5l49 -36q9 -8 2 -16l-66 -85q-9 -11 -22 -15t-27 -4h-59q-27 0 -48.5 15.5t-34.5 38.5q-17 -6 -48.5 -13t-54.5 -10q-13 -1 -17 10zM251 582q-17 0 -31.5 -29t-25 -72t-16 -93.5t-5.5 -92.5q0 -18 3 -39t8 -42.5t11.5 -42t14.5 -36.5q22 26 39.5 70
t28.5 96.5t17 107.5t6 103q0 26 -4.5 48t-19.5 22h-26z" />
    <glyph glyph-name="uni2116" unicode="&#x2116;" horiz-adv-x="900" 
d="M434 -20q0 -13 -5.5 -18.5t-19.5 -5.5h-39q-14 0 -25.5 4t-16.5 19l-170 486v-497q0 -12 -15 -12h-67q-9 0 -12 3.5t-3 8.5v712q0 9 4 15.5t17 6.5h41q18 0 28 -3.5t15 -17.5l172 -499v507q0 13 14 13h67q15 0 15 -12v-710zM479 -6q-10 0 -10 10v67q0 10 10 10h370
q10 0 10 -10v-67q0 -10 -10 -10h-370zM850 510v-230q0 -21 -9.5 -37t-20.5 -27l-58 -52q-18 -16 -35.5 -19.5t-34.5 -3.5h-58q-20 0 -38 5t-32 18l-58 52q-13 11 -21.5 27t-8.5 37v230q0 21 8 37t22 27l58 52q17 16 35 19.5t35 3.5h58q18 0 35 -3t35 -20l58 -52
q12 -11 21 -27t9 -37zM748 284v222q0 16 -7 22l-29 28q-6 6 -17 6h-64q-10 0 -17 -6l-29 -28q-7 -6 -7 -22v-222q0 -6 1 -11.5t6 -10.5l29 -28q7 -6 17 -6h64q9 0 17 6l29 28q7 6 7 22z" />
    <glyph glyph-name="uni2121" unicode="&#x2121;" horiz-adv-x="900" 
d="M609 38q8 0 8 -9v-63q0 -10 -9 -10h-175q-16 0 -27 4t-19 12l-70 58q-11 8 -13 20t-2 27v288q0 11 3 25t19 28l51 50q11 10 22 11.5t33 1.5h90q12 0 24 -2t19 -8l65 -51q15 -9 21 -24t6 -31v-84q0 -21 -7.5 -33t-15.5 -18l-72 -62q-8 -8 -17 -10.5t-22 -2.5h-51
q-23 0 -42 9.5t-32 23.5v-103q0 -11 9 -20l26 -20q8 -7 19 -7h159zM18 582q-6 0 -7.5 2t-1.5 7v64q0 9 9 9h336q9 0 9 -9v-64q0 -5 -1.5 -7t-7.5 -2h-123v-614q0 -12 -15 -12h-64q-14 0 -14 12v614h-120zM702 690q0 12 13 12h65q8 1 11 -1t3 -10v-620q0 -12 9 -18l18 -12
q4 -3 16 -3h33q7 0 8.5 -2t1.5 -7v-63q0 -10 -11 -10h-43q-12 0 -32.5 1t-31.5 11l-42 40q-13 11 -15.5 25t-2.5 32v625zM561 358q0 11 -3 14l-29 23q-6 4 -14 4h-89q-15 0 -22.5 -9.5t-7.5 -19.5v-103q0 -15 10.5 -23.5t25.5 -8.5h82q11 0 18 4l25 19q4 5 4 16v84z" />
    <glyph glyph-name="trademark" unicode="&#x2122;" horiz-adv-x="900" 
d="M409 307v411q0 8 3 10.5t8 2.5h79q12 0 19.5 -3.5t14.5 -16.5l96 -187l95 187q7 13 14.5 16.5t20.5 3.5h76q14 0 14 -11v-413q0 -17 -16 -17h-60q-9 0 -12 4.5t-3 12.5v297l-73 -142q-7 -13 -15.5 -19t-25.5 -6h-31q-17 0 -25.5 6t-15.5 19l-72 142v-297q0 -17 -16 -17
h-60q-15 0 -15 17zM159 307v349h-109q-17 0 -17 16v44q0 9 4.5 12t12.5 3h314q8 0 12 -3t4 -12v-44q0 -16 -16 -16h-112v-349q0 -17 -16 -17h-62q-15 0 -15 17z" />
    <glyph glyph-name="Omega" unicode="&#x2126;" horiz-adv-x="750" 
d="M340 620q-38 0 -70 -17t-55 -44t-36.5 -59.5t-13.5 -63.5v-126q0 -29 16.5 -54t42 -45t56.5 -34t60 -20v-168q0 -16 -11 -24.5t-29 -8.5h-206q-6 0 -11 3.5t-5 9.5v62q0 12 16 12h144v68q-30 10 -61.5 29.5t-56.5 45.5t-41 57.5t-16 66.5v125q0 55 22 104t60 86.5
t88.5 59.5t108.5 22h65q58 0 108.5 -22t88.5 -59.5t60 -86.5t22 -104v-125q0 -35 -16 -66.5t-41 -57.5t-56.5 -45.5t-61.5 -29.5v-68h144q16 0 16 -12v-62q0 -6 -5 -9.5t-11 -3.5h-206q-18 0 -29 8.5t-11 24.5v168q29 6 60 20t56.5 34t42 45t16.5 54v126q0 31 -13.5 63.5
t-37 59.5t-55.5 44t-70 17h-68z" />
    <glyph glyph-name="uni212B" unicode="&#x212b;" horiz-adv-x="900" 
d="M563 770v-32q0 -17 -7 -32.5t-18 -28.5q2 -2 3 -5t3 -5l225 -696q0 -15 -14 -15h-78q-7 0 -8.5 3.5t-3.5 10.5l-77 243h-287l-67 -243q-3 -14 -15 -14h-75q-14 0 -14 16l200 695q4 13 12 21q-15 22 -15 50v32q0 19 8 36.5t22 30t32.5 20t38.5 7.5h34q20 0 38.5 -7.5
t32.5 -20t22 -30t8 -36.5zM455 621h-35q-6 0 -7 -6l-88 -315h236l-100 317q-1 4 -6 4zM492 772q0 12 -10 21t-22 9h-30q-12 0 -22 -9t-10 -21v-36q0 -10 6.5 -18.5t16.5 -10.5h47q10 2 17 10.5t7 18.5v36z" />
    <glyph glyph-name="onethird" unicode="&#x2153;" horiz-adv-x="900" 
d="M724 242q11 0 18 7t7 30v63q0 19 -7.5 22t-14.5 3h-73q-3 0 -7.5 -1t-7.5 -3l-56 -34q-15 -10 -25 5l-27 39q-3 5 -3 12.5t8 12.5l62 40q11 7 20.5 8t19.5 1h87q22 0 43.5 -8.5t38 -22.5t26.5 -34t10 -42v-53q0 -26 -9.5 -45t-20.5 -32q15 -10 27.5 -27t12.5 -51v-78
q0 -23 -10 -42t-26 -33t-37.5 -22t-43.5 -8h-112q-10 0 -19.5 1t-20.5 8l-62 40q-8 5 -8 12.5t3 12.5l27 39q10 15 25 5l56 -34q3 -2 7.5 -3t7.5 -1h93q12 0 20 6.5t8 19.5v78q0 18 -8.5 23.5t-19.5 5.5h-126q-13 0 -13 11v55q0 14 13 14h117zM115 224v397h-47
q-6 0 -10.5 2.5t-4.5 8.5v58q0 5 4.5 8.5t10.5 3.5h113q15 0 20.5 -6.5t5.5 -18.5v-453q0 -10 -10 -10h-72q-10 0 -10 10zM481 691q4 11 13 11h81q12 0 9 -9l-291 -730q-3 -7 -10 -7h-86q-9 0 -7 6z" />
    <glyph glyph-name="twothirds" unicode="&#x2154;" horiz-adv-x="900" 
d="M531 691q4 11 13 11h81q12 0 9 -9l-291 -730q-3 -7 -10 -7h-86q-9 0 -7 6l101 253h-269q-14 0 -19 8t-5 18v115q0 40 20 69t59 44l112 42q23 8 23 25v63q0 15 -6.5 20.5t-17.5 5.5h-70q-3 0 -7.5 -1t-7.5 -3l-56 -34q-15 -10 -25 5l-27 39q-3 5 -3 12.5t8 12.5l62 40
q11 7 20.5 8t19.5 1h94q45 0 77 -26t32 -70v-62q0 -28 -6.5 -46.5t-18 -30.5t-27 -20t-33.5 -15l-104 -39q-11 -4 -18 -12.5t-7 -22.5v-65h202q6 0 10.5 -3.5t4.5 -8.5v-27zM730 242q11 0 18 7t7 30v63q0 19 -7.5 22t-14.5 3h-63q-3 0 -7.5 -1t-7.5 -3l-56 -34
q-15 -10 -25 5l-27 39q-3 5 -3 12.5t8 12.5l62 40q11 7 20.5 8t19.5 1h77q22 0 43.5 -8.5t38 -22.5t26.5 -34t10 -42v-53q0 -26 -9.5 -45t-20.5 -32q15 -10 27.5 -27t12.5 -51v-78q0 -23 -10 -42t-26 -33t-37.5 -22t-43.5 -8h-102q-10 0 -19.5 1t-20.5 8l-62 40
q-8 5 -8 12.5t3 12.5l27 39q10 15 25 5l56 -34q3 -2 7.5 -3t7.5 -1h83q12 0 20 6.5t8 19.5v78q0 18 -8.5 23.5t-19.5 5.5h-116q-13 0 -13 11v55q0 14 13 14h107z" />
    <glyph glyph-name="oneeighth" unicode="&#x215b;" horiz-adv-x="900" 
d="M115 224v397h-47q-6 0 -10.5 2.5t-4.5 8.5v58q0 5 4.5 8.5t10.5 3.5h113q15 0 20.5 -6.5t5.5 -18.5v-453q0 -10 -10 -10h-72q-10 0 -10 10zM470 691q4 11 13 11h81q12 0 9 -9l-291 -730q-3 -7 -10 -7h-86q-9 0 -7 6zM518 136q0 21 13 41t33 33q-17 15 -27 33t-10 38v57
q0 22 11 42t29 35t40 23.5t44 8.5h70q22 0 44 -8.5t40 -23.5t29 -35t11 -42v-57q0 -17 -12 -36.5t-26 -33.5q20 -13 33.5 -34t13.5 -41v-78q0 -22 -10.5 -41.5t-28.5 -34.5t-41 -24t-48 -9h-80q-25 0 -48 9t-41 24t-28.5 34.5t-10.5 41.5v78zM726 29q9 0 22 8t13 28v66
q0 10 -5.5 16.5t-13 10.5t-15.5 6t-12 2h-58q-5 0 -12.5 -2t-15 -6t-13 -10.5t-5.5 -16.5v-66q0 -20 13 -28t22 -8h80zM751 333q0 20 -10 26.5t-18 6.5h-74q-8 0 -18.5 -6.5t-10.5 -26.5v-48q0 -20 14 -30t25 -12h49q6 0 13 2.5t14 8t11.5 13t4.5 18.5v48z" />
    <glyph glyph-name="threeeighths" unicode="&#x215c;" horiz-adv-x="900" 
d="M532 691q4 11 13 11h81q12 0 9 -9l-291 -730q-3 -7 -10 -7h-86q-9 0 -7 6zM523 136q0 21 13 41t33 33q-17 15 -27 33t-10 38v57q0 22 11 42t29 35t40 23.5t44 8.5h70q22 0 44 -8.5t40 -23.5t29 -35t11 -42v-57q0 -17 -12 -36.5t-26 -33.5q20 -13 33.5 -34t13.5 -41v-78
q0 -22 -10.5 -41.5t-28.5 -34.5t-41 -24t-48 -9h-80q-25 0 -48 9t-41 24t-28.5 34.5t-10.5 41.5v78zM731 29q9 0 22 8t13 28v66q0 10 -5.5 16.5t-13 10.5t-15.5 6t-12 2h-58q-5 0 -12.5 -2t-15 -6t-13 -10.5t-5.5 -16.5v-66q0 -20 13 -28t22 -8h80zM756 333q0 20 -10 26.5
t-18 6.5h-74q-8 0 -18.5 -6.5t-10.5 -26.5v-48q0 -20 14 -30t25 -12h49q6 0 13 2.5t14 8t11.5 13t4.5 18.5v48zM213 500q11 0 18 7t7 30v63q0 19 -7.5 22t-14.5 3h-63q-3 0 -7.5 -1t-7.5 -3l-56 -34q-15 -10 -25 5l-27 39q-3 5 -3 12.5t8 12.5l62 40q11 7 20.5 8t19.5 1h77
q22 0 43.5 -8.5t38 -22.5t26.5 -34t10 -42v-53q0 -26 -9.5 -45t-20.5 -32q15 -10 27.5 -27t12.5 -51v-78q0 -23 -10 -42t-26 -33t-37.5 -22t-43.5 -8h-102q-10 0 -19.5 1t-20.5 8l-62 40q-8 5 -8 12.5t3 12.5l27 39q10 15 25 5l56 -34q3 -2 7.5 -3t7.5 -1h83q12 0 20 6.5
t8 19.5v78q0 18 -8.5 23.5t-19.5 5.5h-116q-13 0 -13 11v55q0 14 13 14h107z" />
    <glyph glyph-name="fiveeighths" unicode="&#x215d;" horiz-adv-x="900" 
d="M534 691q4 11 13 11h81q12 0 9 -9l-291 -730q-3 -7 -10 -7h-86q-9 0 -7 6zM523 136q0 21 13 41t33 33q-17 15 -27 33t-10 38v57q0 22 11 42t29 35t40 23.5t44 8.5h70q22 0 44 -8.5t40 -23.5t29 -35t11 -42v-57q0 -17 -12 -36.5t-26 -33.5q20 -13 33.5 -34t13.5 -41v-78
q0 -22 -10.5 -41.5t-28.5 -34.5t-41 -24t-48 -9h-80q-25 0 -48 9t-41 24t-28.5 34.5t-10.5 41.5v78zM731 29q9 0 22 8t13 28v66q0 10 -5.5 16.5t-13 10.5t-15.5 6t-12 2h-58q-5 0 -12.5 -2t-15 -6t-13 -10.5t-5.5 -16.5v-66q0 -20 13 -28t22 -8h80zM756 333q0 20 -10 26.5
t-18 6.5h-74q-8 0 -18.5 -6.5t-10.5 -26.5v-48q0 -20 14 -30t25 -12h49q6 0 13 2.5t14 8t11.5 13t4.5 18.5v48zM310 622h-167v-103h76q23 0 44 -8.5t37.5 -22.5t26 -34t9.5 -42v-100q0 -23 -10 -42t-26 -33t-37.5 -22t-43.5 -8h-87q-10 0 -19.5 1t-20.5 8l-62 40
q-8 5 -8 12.5t3 12.5l27 39q10 15 25 5l56 -34q3 -2 7.5 -3t7.5 -1h68q12 0 20 6.5t8 19.5v99q0 20 -9.5 24t-17.5 4h-139q-15 0 -21.5 8.5t-6.5 19.5v209q0 9 5 17t21 8h234q6 0 10.5 -3.5t4.5 -8.5v-57q0 -6 -4.5 -8.5t-10.5 -2.5z" />
    <glyph glyph-name="seveneighths" unicode="&#x215e;" horiz-adv-x="900" 
d="M483 691q4 11 13 11h81q12 0 9 -9l-291 -730q-3 -7 -10 -7h-86q-9 0 -7 6zM518 136q0 21 13 41t33 33q-17 15 -27 33t-10 38v57q0 22 11 42t29 35t40 23.5t44 8.5h70q22 0 44 -8.5t40 -23.5t29 -35t11 -42v-57q0 -17 -12 -36.5t-26 -33.5q20 -13 33.5 -34t13.5 -41v-78
q0 -22 -10.5 -41.5t-28.5 -34.5t-41 -24t-48 -9h-80q-25 0 -48 9t-41 24t-28.5 34.5t-10.5 41.5v78zM726 29q9 0 22 8t13 28v66q0 10 -5.5 16.5t-13 10.5t-15.5 6t-12 2h-58q-5 0 -12.5 -2t-15 -6t-13 -10.5t-5.5 -16.5v-66q0 -20 13 -28t22 -8h80zM751 333q0 20 -10 26.5
t-18 6.5h-74q-8 0 -18.5 -6.5t-10.5 -26.5v-48q0 -20 14 -30t25 -12h49q6 0 13 2.5t14 8t11.5 13t4.5 18.5v48zM45 702h247q15 0 24 -7t9 -27v-20q0 -8 -1 -22t-5 -24l-124 -372q-3 -10 -8.5 -13t-13.5 -3h-52q-12 0 -16 7.5t-2 14.5l131 385h-189q-13 0 -13 11v56
q0 14 13 14z" />
    <glyph glyph-name="uni2160" unicode="&#x2160;" horiz-adv-x="900" 
d="M319 -44q-10 0 -10 10v66q0 10 10 10h80v574h-80q-10 0 -10 10v66q0 10 10 10h262q10 0 10 -10v-66q0 -10 -10 -10h-80v-574h80q10 0 10 -10v-66q0 -10 -10 -10h-262z" />
    <glyph glyph-name="uni2161" unicode="&#x2161;" horiz-adv-x="900" 
d="M201 -44q-8 0 -8 9v68q0 9 8 9h59v574h-59q-8 0 -8 9v68q0 9 8 9h220q8 0 8 -9v-68q0 -9 -8 -9h-59v-574h59q8 0 8 -9v-68q0 -9 -8 -9h-220zM478 -44q-8 0 -8 9v68q0 9 8 9h59v574h-59q-8 0 -8 9v68q0 9 8 9h220q8 0 8 -9v-68q0 -9 -8 -9h-59v-574h59q8 0 8 -9v-68
q0 -9 -8 -9h-220z" />
    <glyph glyph-name="uni2162" unicode="&#x2162;" horiz-adv-x="900" 
d="M133 -44q-8 0 -8 9v68q0 9 8 9h60v572h-60q-8 0 -8 9v68q0 9 8 9h634q8 0 8 -9v-68q0 -9 -8 -9h-59v-572h59q8 0 8 -9v-68q0 -9 -8 -9h-634zM294 614v-572h105v572h-105zM501 614v-572h105v572h-105z" />
    <glyph glyph-name="uni2163" unicode="&#x2163;" horiz-adv-x="900" 
d="M52 -44q-10 0 -10 10v66q0 10 10 10h80v574h-80q-10 0 -10 10v66q0 10 10 10h262q10 0 10 -10v-66q0 -10 -10 -10h-80v-574h80q10 0 10 -10v-66q0 -10 -10 -10h-262zM573 -44q-17 0 -28.5 13t-14.5 27l-162 690q0 16 14 16h75q12 0 15 -14l140 -639q2 -6 6 -6h4q5 0 6 4
l145 641q2 7 3.5 10.5t8.5 3.5h78q14 0 14 -15l-167 -691q-5 -20 -18.5 -30t-39.5 -10h-79z" />
    <glyph glyph-name="uni2164" unicode="&#x2164;" horiz-adv-x="900" 
d="M400 -44q-17 0 -27.5 13t-15.5 27l-212 690q0 16 14 16h75q12 0 15 -14l190 -639q2 -6 6 -6h4q5 0 6 4l195 641q2 7 3.5 10.5t8.5 3.5h78q14 0 14 -15l-217 -691q-8 -19 -20 -29.5t-38 -10.5h-79z" />
    <glyph glyph-name="uni2165" unicode="&#x2165;" horiz-adv-x="900" 
d="M583 -44q-10 0 -10 10v66q0 10 10 10h80v574h-80q-10 0 -10 10v66q0 10 10 10h262q10 0 10 -10v-66q0 -10 -10 -10h-80v-574h80q10 0 10 -10v-66q0 -10 -10 -10h-262zM230 -44q-17 0 -28.5 13t-14.5 27l-162 690q0 16 14 16h75q12 0 15 -14l140 -639q2 -6 6 -6h4q5 0 6 4
l145 641q2 7 3.5 10.5t8.5 3.5h78q14 0 14 -15l-167 -691q-5 -20 -18.5 -30t-39.5 -10h-79z" />
    <glyph glyph-name="uni2166" unicode="&#x2166;" horiz-adv-x="900" 
d="M220 -44q-17 0 -28.5 13t-14.5 27l-142 690q0 16 14 16h75q12 0 15 -14l120 -639q2 -6 6 -6h4q5 0 6 4l125 641q2 7 3.5 10.5t8.5 3.5h247h2h190q8 0 8 -9v-68q0 -9 -8 -9h-49v-574h49q8 0 8 -9v-68q0 -9 -8 -9h-361q-8 0 -8 9v68q0 9 8 9h49v574h-49h-1l-132 -620
q-5 -20 -18.5 -30t-39.5 -10h-79zM661 616h-3h-22v-574h23h2h44v574h-23h-2h-19z" />
    <glyph glyph-name="uni2167" unicode="&#x2167;" horiz-adv-x="900" 
d="M170 -44q-17 0 -29 13t-14 27l-102 690q0 16 14 16h75q12 0 15 -14l80 -639q2 -6 6 -6h4q5 0 6 4l85 641q2 7 3.5 10.5t8.5 3.5h78h3h2h451q8 0 8 -9v-68q0 -9 -8 -9h-36v-574h36q8 0 8 -9v-68q0 -9 -8 -9h-451q-7 0 -7 9v68q0 9 7 9h36v574h-36h-2l-96 -620
q-6 -40 -58 -40h-79zM536 616v-574h47v574h-47zM678 616v-574h47v574h-47z" />
    <glyph glyph-name="uni2168" unicode="&#x2168;" horiz-adv-x="900" 
d="M597 377q4 0 6 3l138 309q2 5 5.5 9t9.5 4h79q16 0 10 -14l-159 -353l165 -364q3 -15 -9 -15h-80q-5 0 -7.5 4t-4.5 9l-147 321q-2 3 -4 3h-10q-3 0 -4 -3l-146 -321q-5 -13 -13 -13h-79q-12 0 -9 15l164 364l-158 353q-2 8 1.5 11t9.5 3h78q8 0 14 -12l138 -309
q0 -4 7 -4h5zM49 -44q-10 0 -10 10v66q0 10 10 10h80v574h-80q-10 0 -10 10v66q0 10 10 10h262q10 0 10 -10v-66q0 -10 -10 -10h-80v-574h80q10 0 10 -10v-66q0 -10 -10 -10h-262z" />
    <glyph glyph-name="uni2169" unicode="&#x2169;" horiz-adv-x="900" 
d="M452 380q4 0 6 3l165 305q2 5 5.5 9.5t11.5 4.5h83q16 0 10 -15l-186 -352l192 -363q6 -16 -9 -16h-83q-7 0 -9.5 4.5t-5.5 9.5l-174 318q-2 3 -4 3h-10q-3 0 -4 -3l-173 -318q-3 -6 -6 -10t-10 -4h-82q-16 0 -9 16l191 363l-186 352q-2 8 1.5 11.5t10.5 3.5h81
q7 0 10 -3.5t6 -9.5l165 -305q2 -4 8 -4h5z" />
    <glyph glyph-name="uni2170" unicode="&#x2170;" horiz-adv-x="900" 
d="M399 494q0 6 3.5 10.5t11.5 4.5h70q16 0 16 -14v-526q0 -13 -14 -13h-72q-15 0 -15 13v525zM399 708q0 6 1.5 10t9.5 4h76q14 0 14 -14v-93q0 -13 -14 -13h-74q-8 0 -10.5 3.5t-2.5 8.5v94z" />
    <glyph glyph-name="uni2171" unicode="&#x2171;" horiz-adv-x="900" 
d="M272 494q0 6 3.5 10.5t11.5 4.5h70q16 0 16 -14v-526q0 -13 -14 -13h-72q-15 0 -15 13v525zM272 708q0 6 1.5 10t9.5 4h76q14 0 14 -14v-93q0 -13 -14 -13h-74q-8 0 -10.5 3.5t-2.5 8.5v94zM527 494q0 6 3.5 10.5t11.5 4.5h70q16 0 16 -14v-526q0 -13 -14 -13h-72
q-15 0 -15 13v525zM527 708q0 6 1.5 10t9.5 4h76q14 0 14 -14v-93q0 -13 -14 -13h-74q-8 0 -10.5 3.5t-2.5 8.5v94z" />
    <glyph glyph-name="uni2172" unicode="&#x2172;" horiz-adv-x="900" 
d="M144 494q0 6 3.5 10.5t11.5 4.5h70q16 0 16 -14v-526q0 -13 -14 -13h-72q-15 0 -15 13v525zM144 708q0 6 1.5 10t9.5 4h76q14 0 14 -14v-93q0 -13 -14 -13h-74q-8 0 -10.5 3.5t-2.5 8.5v94zM399 494q0 6 3.5 10.5t11.5 4.5h70q16 0 16 -14v-526q0 -13 -14 -13h-72
q-15 0 -15 13v525zM399 708q0 6 1.5 10t9.5 4h76q14 0 14 -14v-93q0 -13 -14 -13h-74q-8 0 -10.5 3.5t-2.5 8.5v94zM654 494q0 6 3.5 10.5t11.5 4.5h70q16 0 16 -14v-526q0 -13 -14 -13h-72q-15 0 -15 13v525zM654 708q0 6 1.5 10t9.5 4h76q14 0 14 -14v-93q0 -13 -14 -13
h-74q-8 0 -10.5 3.5t-2.5 8.5v94z" />
    <glyph glyph-name="uni2173" unicode="&#x2173;" horiz-adv-x="900" 
d="M114 494q0 6 3.5 10.5t11.5 4.5h70q16 0 16 -14v-526q0 -13 -14 -13h-72q-15 0 -15 13v525zM114 708q0 6 1.5 10t9.5 4h76q14 0 14 -14v-93q0 -13 -14 -13h-74q-8 0 -10.5 3.5t-2.5 8.5v94zM531 -44q-17 0 -27.5 13t-15.5 27l-168 497q-5 16 11 16h77q11 0 16 -14
l145 -446q2 -6 6 -6h13q4 0 6 5l148 447q2 7 5 10.5t10 3.5h75q7 0 11 -4t2 -11l-170 -498q-7 -20 -19.5 -30t-38.5 -10h-86z" />
    <glyph glyph-name="uni2174" unicode="&#x2174;" horiz-adv-x="900" 
d="M398 -44q-17 0 -27.5 13t-15.5 27l-168 497q-5 16 11 16h77q11 0 16 -14l145 -446q2 -6 6 -6h13q4 0 6 5l148 447q2 7 5 10.5t10 3.5h75q7 0 11 -4t2 -11l-170 -498q-7 -20 -19.5 -30t-38.5 -10h-86z" />
    <glyph glyph-name="uni2175" unicode="&#x2175;" horiz-adv-x="900" 
d="M778 -31q0 -13 -15 -13h-72q-14 0 -14 13v526q0 14 16 14h70q8 0 11.5 -4.5t3.5 -10.5v-525zM778 614q0 -5 -2.5 -8.5t-10.5 -3.5h-74q-14 0 -14 13v93q0 14 14 14h76q8 0 9.5 -4t1.5 -10v-94zM273 -44q-17 0 -27.5 13t-15.5 27l-168 497q-5 16 11 16h77q11 0 16 -14
l145 -446q2 -6 6 -6h13q4 0 6 5l148 447q2 7 5 10.5t10 3.5h75q7 0 11 -4t2 -11l-170 -498q-7 -20 -19.5 -30t-38.5 -10h-86z" />
    <glyph glyph-name="uni2176" unicode="&#x2176;" horiz-adv-x="900" 
d="M659 -31q0 -13 -15 -13h-71q-13 0 -13 13v526q0 14 15 14h69q8 0 11.5 -4.5t3.5 -10.5v-525zM659 614q0 -5 -2.5 -8.5t-10.5 -3.5h-73q-13 0 -13 13v93q0 14 13 14h75q8 0 9.5 -4t1.5 -10v-94zM835 -31q0 -13 -15 -13h-70q-14 0 -14 13v526q0 14 16 14h68q8 0 11.5 -4.5
t3.5 -10.5v-525zM835 614q0 -5 -2.5 -8.5t-10.5 -3.5h-72q-14 0 -14 13v93q0 14 14 14h74q8 0 9.5 -4t1.5 -10v-94zM223 -44q-17 0 -28 13t-15 27l-148 497q-5 16 11 16h77q11 0 16 -14l125 -446q2 -6 6 -6h13q4 0 6 5l128 447q2 7 5 10.5t10 3.5h75q7 0 11 -4t2 -11
l-150 -498q-6 -20 -19 -30t-39 -10h-86z" />
    <glyph glyph-name="uni2177" unicode="&#x2177;" horiz-adv-x="900" 
d="M541 -31q0 -13 -14 -13h-65q-13 0 -13 13v526q0 14 15 14h63q8 0 11 -4.5t3 -10.5v-525zM541 614q0 -5 -2 -8.5t-10 -3.5h-67q-13 0 -13 13v93q0 14 13 14h69q7 0 8.5 -4t1.5 -10v-94zM693 -31q0 -13 -14 -13h-66q-12 0 -12 13v526q0 14 14 14h64q7 0 10.5 -4.5
t3.5 -10.5v-525zM693 614q0 -5 -2 -8.5t-10 -3.5h-68q-12 0 -12 13v93q0 14 12 14h70q7 0 8.5 -4t1.5 -10v-94zM845 -31q0 -13 -14 -13h-65q-13 0 -13 13v526q0 14 15 14h63q7 0 10.5 -4.5t3.5 -10.5v-525zM845 614q0 -5 -2.5 -8.5t-10.5 -3.5h-66q-13 0 -13 13v93
q0 14 13 14h68q8 0 9.5 -4t1.5 -10v-94zM168 -44q-17 0 -28.5 13t-14.5 27l-113 497q-5 16 11 16h77q11 0 16 -14l90 -446q2 -6 6 -6h13q4 0 6 5l93 447q2 7 5 10.5t10 3.5h75q7 0 11 -4t2 -11l-115 -498q-5 -20 -18.5 -30t-39.5 -10h-86z" />
    <glyph glyph-name="uni2178" unicode="&#x2178;" horiz-adv-x="900" 
d="M88 494q0 6 3.5 10.5t11.5 4.5h70q16 0 16 -14v-526q0 -13 -14 -13h-72q-15 0 -15 13v525zM88 708q0 6 1.5 10t9.5 4h76q14 0 14 -14v-93q0 -13 -14 -13h-74q-8 0 -10.5 3.5t-2.5 8.5v94zM569 288q2 0 3 2l135 214q3 5 10 5h86q9 0 5 -10l-155 -259l157 -274
q4 -10 -5 -10h-86q-6 0 -9 4l-138 236q-1 2 -4 2h-4q-3 0 -4 -2l-138 -236q-3 -4 -9 -4h-86q-9 0 -5 10l157 274l-155 259q-4 10 5 10h86q9 0 12 -5l133 -214q1 -2 3 -2h6z" />
    <glyph glyph-name="uni2179" unicode="&#x2179;" horiz-adv-x="900" 
d="M453 288q2 0 3 2l135 214q3 5 10 5h86q9 0 5 -10l-155 -259l157 -274q4 -10 -5 -10h-86q-6 0 -9 4l-138 236q-1 2 -4 2h-4q-3 0 -4 -2l-138 -236q-3 -4 -9 -4h-86q-9 0 -5 10l157 274l-155 259q-4 10 5 10h86q9 0 12 -5l133 -214q1 -2 3 -2h6z" />
    <glyph glyph-name="arrowleft" unicode="&#x2190;" horiz-adv-x="900" 
d="M274 262l97 -143l-16 -18l-317 200l316 200l17 -18l-95 -139h585v-82h-587z" />
    <glyph glyph-name="arrowup" unicode="&#x2191;" horiz-adv-x="900" 
d="M660 452l-24 -13l-138 98v-704h-96v704l-138 -99l-24 14l211 328z" />
    <glyph glyph-name="arrowright" unicode="&#x2192;" horiz-adv-x="900" 
d="M38 262v82h584l-94 139l17 18l316 -200l-317 -200l-16 18l97 143h-587z" />
    <glyph glyph-name="arrowdown" unicode="&#x2193;" horiz-adv-x="900" 
d="M442 -188l-211 328l24 14l138 -100v715h96v-715l138 99l24 -13z" />
    <glyph glyph-name="arrowboth" unicode="&#x2194;" horiz-adv-x="900" 
d="M234 344h432l-79 140l17 18l295 -200l-296 -202l-16 18l82 144h-438l82 -144l-16 -18l-296 202l294 200l18 -18z" />
    <glyph glyph-name="arrowupdn" unicode="&#x2195;" horiz-adv-x="900" 
d="M498 61l147 88l16 -14l-210 -308l-212 308l16 15l147 -89v483l-147 -88l-16 15l212 308l210 -308l-16 -14l-147 88v-484z" />
    <glyph glyph-name="uni2196" unicode="&#x2196;" horiz-adv-x="900" 
d="M736 -36l-504 505l-20 -164h-27l-89 367l382 -86v-24l-181 -20l507 -508z" />
    <glyph glyph-name="uni2197" unicode="&#x2197;" horiz-adv-x="900" 
d="M96 35l506 507l-181 20v24l382 86l-89 -367h-27l-21 164l-123.5 -123.5l-129.5 -129.5t-128.5 -129t-121.5 -122z" />
    <glyph glyph-name="uni2198" unicode="&#x2198;" horiz-adv-x="900" 
d="M163 676l504 -505l20 164h27l90 -367l-382 86v24l181 20l-124.5 124.5t-130 130.5t-130 130t-122.5 123z" />
    <glyph glyph-name="uni2199" unicode="&#x2199;" horiz-adv-x="900" 
d="M803 605l-506 -507l181 -20v-24l-382 -86l89 367h26l21 -164q60 59 124 123.5t129.5 129.5t129 128.5t121.5 122.5z" />
    <glyph glyph-name="arrowdblright" unicode="&#x21d2;" horiz-adv-x="900" 
d="M24 344v83h609l-82 85l62 61l272 -273l-269 -272l-66 61l83 85h-609v85h691l40 42l-41 43h-690z" />
    <glyph glyph-name="arrowdblboth" unicode="&#x21d4;" horiz-adv-x="900" 
d="M633 427l-82 85l62 61l272 -273l-269 -272l-66 61l83 85h-367l83 -85l-66 -61l-269 272l272 273l62 -61l-82 -85h367zM185 344l-41 -43l40 -42h531l40 42l-41 43h-529z" />
    <glyph glyph-name="universal" unicode="&#x2200;" horiz-adv-x="900" 
d="M423 -44q-30 0 -45 10.5t-23 29.5l-225 696q0 15 14 15h78q7 0 8.5 -3.5t3.5 -10.5l76 -243h287l68 243q3 14 15 14h75q14 0 14 -16l-200 -695q-5 -14 -18 -27t-35 -13h-93zM438 46q1 -4 6 -4h35q5 0 7 6l87 315h-235z" />
    <glyph glyph-name="partialdiff" unicode="&#x2202;" horiz-adv-x="900" 
d="M298 629q-3 5 -3.5 8.5t6.5 7.5l97 51q7 4 14 5t15 1h112q36 0 64.5 -21.5t49 -55t31 -75t10.5 -81.5q0 -41 -6 -90t-19 -98t-34.5 -95t-52.5 -81t-72.5 -56.5t-94.5 -21.5h-76q-35 0 -62.5 16.5t-47 43t-29.5 60t-10 67.5q0 49 17.5 90t49.5 71t77 46.5t100 16.5h76
q21 0 44 -9.5t33 -24.5q4 14 5.5 32t1.5 33q0 18 -3 43.5t-11 48t-22.5 38.5t-36.5 16h-83q-6 0 -11.5 -2t-11.5 -5l-68 -36q-10 -5 -15 2zM413 114q30 0 56 18.5t47 47.5t35.5 65t22.5 71q2 9 -5.5 21.5t-27.5 12.5h-106q-31 0 -57.5 -10.5t-45.5 -28.5t-30 -42.5
t-11 -54.5q0 -18 5 -35.5t14 -32t21.5 -23.5t28.5 -9h53z" />
    <glyph glyph-name="existential" unicode="&#x2203;" horiz-adv-x="900" 
d="M686 582v-506q0 -14 -4.5 -27.5t-15.5 -21.5l-80 -59q-7 -5 -20.5 -8.5t-27.5 -3.5h-310q-14 0 -14 12v61q0 5 4 9.5t11 4.5h293q11 0 19 4l34 27q3 2 6 7.5t3 14.5v204l-68 -23q-8 -3 -17.5 -4.5t-17.5 -1.5h-235q-11 0 -11 10v67q0 7 2.5 8.5t8.5 1.5h338v204
q0 17 -7 22l-36 27q-5 3 -9.5 3.5t-9.5 0.5h-292q-16 0 -16 12v62q0 6 5 9.5t11 3.5h308q14 0 27.5 -3.5t20.5 -8.5l80 -59q11 -8 15.5 -21.5t4.5 -27.5z" />
    <glyph glyph-name="gradient" unicode="&#x2207;" horiz-adv-x="900" 
d="M445 -43l-394 616h798zM247 491l215 -350l225 350h-440z" />
    <glyph glyph-name="element" unicode="&#x2208;" horiz-adv-x="900" 
d="M212 267q3 -29 15.5 -56t32 -49t44.5 -35t54 -13h435v-86h-431q-59 0 -106.5 23.5t-80.5 62.5t-51 89t-18 103t18 103t51 89t80.5 62.5t106.5 23.5h431v-87h-435q-29 0 -54 -13t-44 -34t-31.5 -47.5t-16.5 -53.5h582v-82h-582z" />
    <glyph glyph-name="suchthat" unicode="&#x220b;" horiz-adv-x="900" 
d="M106 267v82h582q-4 27 -16.5 53.5t-31.5 47.5t-44 34t-54 13h-435v87h431q59 0 106.5 -23.5t80.5 -62.5t51 -89t18 -103t-18 -103t-51 -89t-80.5 -62.5t-106.5 -23.5h-431v86h435q29 0 54 13t44.5 35t32 49t15.5 56h-582z" />
    <glyph glyph-name="product" unicode="&#x220f;" horiz-adv-x="900" 
d="M642 600v-605h-105v605h-178v-605h-103v605h-122v87h631v-87h-123z" />
    <glyph glyph-name="summation" unicode="&#x2211;" horiz-adv-x="900" 
d="M103 -44v22l309 350l-307 301v73h691v-73h-534l275 -269l-272 -306h530v-98h-692z" />
    <glyph glyph-name="radical" unicode="&#x221a;" horiz-adv-x="900" 
d="M412 -103h-102l-141 318h-124v82h215l112 -248l369 735h113z" />
    <glyph glyph-name="proportional" unicode="&#x221d;" horiz-adv-x="900" 
d="M305 214q24 0 45.5 9.5t38.5 25.5t29.5 36.5t17.5 42.5q-6 24 -18.5 45.5t-30 37t-38.5 24.5t-44 9q-24 0 -44.5 -8.5t-35.5 -24t-24 -37t-9 -46.5t8.5 -46t24 -36t36 -23.5t44.5 -8.5zM758 418q-19 11 -45.5 18.5t-53.5 7.5q-23 0 -44 -9t-38.5 -24.5t-30 -37
t-18.5 -45.5q5 -22 17 -42.5t29.5 -36.5t39 -25.5t45.5 -9.5q23 0 48 5.5t54 22.5l24 -77q-27 -18 -60.5 -27.5t-67.5 -9.5q-56 0 -102.5 27.5t-73.5 68.5q-26 -41 -72 -68.5t-101 -27.5q-40 0 -77.5 13t-67 38.5t-47 63t-17.5 85.5q0 46 17 83.5t45.5 63.5t66.5 40.5
t80 14.5q52 0 99.5 -26.5t74.5 -68.5q13 21 32 38.5t42 30t49 19.5t52 7q33 0 66 -9.5t59 -26.5z" />
    <glyph glyph-name="infinity" unicode="&#x221e;" horiz-adv-x="900" 
d="M273 214q24 0 45.5 9.5t38.5 25.5t29.5 36.5t17.5 42.5q-6 24 -18.5 45.5t-30 37t-38.5 24.5t-44 9q-24 0 -44.5 -8.5t-35.5 -24t-24 -37t-9 -46.5t8.5 -46t24 -36t36 -23.5t44.5 -8.5zM625 128q-56 0 -102.5 27.5t-73.5 68.5q-26 -41 -72 -68.5t-101 -27.5
q-40 0 -77.5 13t-67 38.5t-47 63t-17.5 85.5q0 46 17 83.5t45.5 63.5t66.5 40.5t80 14.5q52 0 99.5 -26.5t74.5 -68.5q13 21 32 38.5t42 30t49 19.5t52 7q42 0 79.5 -14.5t66 -40.5t45.5 -63.5t17 -83.5q0 -48 -17.5 -85.5t-46.5 -63t-66.5 -38.5t-77.5 -13zM627 214
q24 0 44.5 8.5t36 23.5t24 36t8.5 46t-9 46.5t-24 37t-35.5 24t-44.5 8.5q-23 0 -44 -9t-38.5 -24.5t-30 -37t-18.5 -45.5q5 -22 17 -42.5t29.5 -36.5t39 -25.5t45.5 -9.5z" />
    <glyph glyph-name="angle" unicode="&#x2220;" horiz-adv-x="900" 
d="M310 124h505v-87h-731l608 615l73 -69z" />
    <glyph glyph-name="uni2225" unicode="&#x2225;" horiz-adv-x="900" 
d="M395 -125h-109v882h109v-882zM613 -125h-110v882h110v-882z" />
    <glyph glyph-name="logicaland" unicode="&#x2227;" horiz-adv-x="880" 
d="M122 46l265 535q8 16 23 24t31 8t30.5 -8t22.5 -23l264 -535l-89 -45l-228 461l-231 -460z" />
    <glyph glyph-name="logicalor" unicode="&#x2228;" horiz-adv-x="880" 
d="M210 624l231 -460l228 461l89 -45l-264 -535q-8 -15 -22.5 -23t-30.5 -8t-31 7.5t-23 24.5l-265 535z" />
    <glyph glyph-name="intersection" unicode="&#x2229;" horiz-adv-x="880" 
d="M440 646q55 0 105.5 -19.5t89 -53.5t61.5 -80t23 -100v-426h-101v434q0 33 -14.5 61.5t-39.5 50.5t-57 34.5t-67 12.5t-67 -12.5t-57 -34.5t-39.5 -50.5t-14.5 -61.5v-434h-101v426q0 54 23 100t61.5 80t89 53.5t105.5 19.5z" />
    <glyph glyph-name="union" unicode="&#x222a;" horiz-adv-x="880" 
d="M440 -33q-55 0 -105.5 19.5t-89 53.5t-61.5 80t-23 100v426h101v-434q0 -33 14.5 -61.5t39.5 -50.5t57 -34.5t67 -12.5t67 12.5t57 34.5t39.5 50.5t14.5 61.5v434h101v-426q0 -54 -23 -100t-61.5 -80t-89 -53.5t-105.5 -19.5z" />
    <glyph glyph-name="integral" unicode="&#x222b;" horiz-adv-x="880" 
d="M452 66q-10 -58 -43 -84t-90 -26h-57v88h51q19 0 27 8.5t10 21.5l81 473q10 58 36.5 86t80.5 28h70v-88h-40q-26 0 -34 -11t-11 -27z" />
    <glyph glyph-name="uni222C" unicode="&#x222c;" horiz-adv-x="880" 
d="M327 66q-10 -58 -43 -84t-90 -26h-57v88h51q19 0 27 8.5t10 21.5l81 473q10 58 36.5 86t80.5 28h70v-88h-40q-26 0 -34 -11t-11 -27zM577 66q-10 -58 -43 -84t-90 -26h-57v88h51q19 0 27 8.5t10 21.5l81 473q10 58 36.5 86t80.5 28h70v-88h-40q-26 0 -34 -11t-11 -27z
" />
    <glyph glyph-name="uni222E" unicode="&#x222e;" horiz-adv-x="900" 
d="M440 53q-3 -24 -9.5 -47.5t-22 -42.5t-45 -31t-78.5 -12v65q38 0 55 16t21 41l19 136q-55 17 -84 59.5t-29 96.5q0 60 38.5 102.5t116.5 50.5l10 57q4 27 15.5 54t32.5 47.5t52.5 32t75.5 7.5l-1 -69q-36 5 -62 -13t-34 -60l-8 -59q33 -7 57.5 -23t41 -38t24 -48.5
t5.5 -55.5q-3 -29 -16.5 -55.5t-36 -47t-53.5 -33t-68 -14.5zM557 322q2 32 -12.5 60t-50.5 39l-29 -192q39 5 64.5 32t27.5 61zM340 334q-1 -26 10.5 -51.5t37.5 -39.5l26 180q-36 -9 -54 -33.5t-20 -55.5z" />
    <glyph glyph-name="therefore" unicode="&#x2234;" horiz-adv-x="900" 
d="M530 506q0 -34 -23.5 -56t-56.5 -22t-56.5 22t-23.5 56t23.5 56t56.5 22t56.5 -22t23.5 -56zM307 131q0 -34 -23.5 -56t-56.5 -22t-56.5 22t-23.5 56t23.5 56t56.5 22t56.5 -22t23.5 -56zM752 131q0 -34 -23.5 -56t-56.5 -22t-56.5 22t-23.5 56t23.5 56t56.5 22t56.5 -22
t23.5 -56z" />
    <glyph glyph-name="uni2235" unicode="&#x2235;" horiz-adv-x="900" 
d="M530 131q0 -34 -23.5 -56t-56.5 -22t-56.5 22t-23.5 56t23.5 56t56.5 22t56.5 -22t23.5 -56zM307 506q0 -34 -23.5 -56t-56.5 -22t-56.5 22t-23.5 56t23.5 56t56.5 22t56.5 -22t23.5 -56zM752 506q0 -34 -23.5 -56t-56.5 -22t-56.5 22t-23.5 56t23.5 56t56.5 22t56.5 -22
t23.5 -56z" />
    <glyph glyph-name="similar" unicode="&#x223c;" horiz-adv-x="900" 
d="M84 215q5 53 23.5 98t47.5 78t67.5 51.5t83.5 18.5q54 0 97.5 -28t86.5 -74q10 -11 23 -23t27.5 -22t30 -16.5t30.5 -6.5q24 0 41.5 11.5t30.5 30.5t21.5 43t13.5 48q2 10 3 14h105q-1 -3 -1 -6t-1 -6q-8 -49 -25.5 -91t-44.5 -72.5t-62.5 -47.5t-80.5 -17q-30 0 -56 8.5
t-48.5 22.5t-43 31.5t-38.5 35.5q-33 33 -58 53.5t-51 20.5q-25 0 -45 -14t-35 -36.5t-24 -50t-12 -54.5h-106z" />
    <glyph glyph-name="uni223D" unicode="&#x223d;" horiz-adv-x="880" 
d="M700 215q-3 27 -12 54.5t-24 50t-35 36.5t-45 14q-26 0 -51 -20.5t-58 -53.5q-18 -18 -38.5 -35.5t-43 -31.5t-48.5 -22.5t-56 -8.5q-45 0 -80.5 17t-62.5 47.5t-44.5 72.5t-25.5 91q-1 3 -1 6t-1 6h105q1 -4 3 -14q5 -24 13.5 -48t21 -43t30.5 -30.5t42 -11.5
q15 0 30.5 6.5t30 16.5t27.5 22t23 23q43 46 86.5 74t97.5 28q45 0 83 -18.5t67.5 -51.5t48 -78t23.5 -98h-106z" />
    <glyph glyph-name="uni2252" unicode="&#x2252;" horiz-adv-x="900" 
d="M318 553q0 -28 -20 -47t-48 -19q-29 0 -48.5 19t-19.5 47t19.5 47t48.5 19q28 0 48 -19t20 -47zM710 46q0 -28 -20 -47.5t-48 -19.5q-29 0 -48.5 19.5t-19.5 47.5q0 27 19.5 46.5t48.5 19.5q28 0 48 -19.5t20 -46.5zM147 344v88h606v-88h-606zM147 169v88h606v-88h-606z
" />
    <glyph glyph-name="notequal" unicode="&#x2260;" horiz-adv-x="900" 
d="M171 264h198l42 108h-240v92h277l69 175l102 -30l-58 -145h168v-92h-204l-43 -108h247v-92h-283l-76 -192l-102 29l64 163h-161v92z" />
    <glyph glyph-name="equivalence" unicode="&#x2261;" horiz-adv-x="900" 
d="M101 449v88h706v-88h-706zM101 271v88h706v-88h-706zM101 90v88h706v-88h-706z" />
    <glyph glyph-name="lessequal" unicode="&#x2264;" horiz-adv-x="900" 
d="M127 1v87h646v-87h-646zM734 217l-36 -81l-514 215q-35 15 -35.5 35.5t39.5 37.5l507 211l32 -83l-402 -166z" />
    <glyph glyph-name="greaterequal" unicode="&#x2265;" horiz-adv-x="900" 
d="M574 386l-402 166l32 83l507 -211q40 -17 39.5 -37.5t-35.5 -35.5l-514 -215l-36 81zM127 1v87h646v-87h-646z" />
    <glyph glyph-name="uni226A" unicode="&#x226a;" horiz-adv-x="900" 
d="M530 73l-55 -71l-387 273q-14 11 -23 24t-9 24q0 26 32 48l396 269l50 -73l-353 -244zM839 73l-55 -71l-387 273q-14 11 -23 24t-9 24q0 26 32 48l396 269l50 -73l-353 -244z" />
    <glyph glyph-name="uni226B" unicode="&#x226b;" horiz-adv-x="900" 
d="M718 323l-353 244l50 73l396 -269q32 -22 32 -48q0 -11 -9 -24t-23 -24l-387 -273l-55 71zM409 323l-353 244l50 73l396 -269q32 -22 32 -48q0 -11 -9 -24t-23 -24l-387 -273l-55 71z" />
    <glyph glyph-name="propersubset" unicode="&#x2282;" horiz-adv-x="900" 
d="M789 493h-433q-32 0 -59 -16.5t-47 -42.5t-31 -59t-11 -67q0 -36 12 -69t33 -58.5t48.5 -41t58.5 -15.5h433v-88h-441q-46 0 -90 20t-78.5 56t-55.5 86t-21 110q0 55 19.5 104.5t54 87t80.5 59.5t100 22h428v-88z" />
    <glyph glyph-name="propersuperset" unicode="&#x2283;" horiz-adv-x="900" 
d="M110 581h428q54 0 100.5 -22t81 -59.5t54 -87t19.5 -104.5q0 -60 -21 -110t-55.5 -86t-79 -56t-90.5 -20h-440v88h433q31 0 58.5 15.5t48.5 41t33 58.5t12 69q0 34 -11.5 67t-31.5 59t-47 42.5t-59 16.5h-433v88z" />
    <glyph glyph-name="reflexsubset" unicode="&#x2286;" horiz-adv-x="900" 
d="M785 555h-435q-29 0 -55.5 -12t-46.5 -32.5t-31.5 -48.5t-11.5 -59q0 -33 11.5 -60.5t31 -48t46.5 -32t59 -11.5h435v-87h-448q-47 0 -90 16t-76 46t-52.5 74.5t-19.5 101.5q0 55 20 99t54.5 75t80.5 48t98 17h430v-86zM121 -9v86h676v-86h-676z" />
    <glyph glyph-name="reflexsuperset" unicode="&#x2287;" horiz-adv-x="900" 
d="M115 641h430q52 0 98 -17t80.5 -48t54.5 -75t20 -99q0 -57 -20 -101.5t-53 -74.5t-76 -46t-89 -16h-448v87h435q31 0 58.5 11.5t47 32t31 48t11.5 60.5q0 31 -11.5 59t-31.5 48.5t-46.5 32.5t-55.5 12h-435v86zM101 -9v86h676v-86h-676z" />
    <glyph glyph-name="uni2299" unicode="&#x2299;" horiz-adv-x="900" 
d="M360 324q0 36 26 61t64 25q37 0 63 -25t26 -61q0 -18 -7 -33t-19 -26t-28.5 -17.5t-34.5 -6.5q-19 0 -35.5 6.5t-28.5 17.5t-19 26t-7 33zM91 327q0 -75 28 -141t77 -116t114 -79t139 -29t139.5 29t114 79t77 116t28.5 141q0 74 -28.5 140t-77 115.5t-114 78.5t-139.5 29
t-139 -29t-114 -78.5t-77 -115.5t-28 -140zM877 327q0 -88 -34 -166t-92 -136t-136 -91.5t-166 -33.5q-89 0 -167 33.5t-135.5 91.5t-91 136t-33.5 166t33.5 165t91 135t135.5 91.5t167 33.5q88 0 166 -33.5t136 -91.5t92 -135t34 -165z" />
    <glyph glyph-name="perpendicular" unicode="&#x22a5;" horiz-adv-x="900" 
d="M143 130h256v466h102v-466h255v-87h-613v87z" />
    <glyph glyph-name="uni2312" unicode="&#x2312;" horiz-adv-x="900" 
d="M450 246q-47 0 -85 -20.5t-67 -54t-49.5 -77t-30.5 -88.5h-98q13 68 42 127.5t71.5 104t97 70t119.5 25.5q64 0 119 -25.5t97 -70t71 -104t43 -127.5h-98q-11 45 -31 88.5t-49 77t-67.5 54t-84.5 20.5z" />
    <glyph glyph-name="uni2460" unicode="&#x2460;" horiz-adv-x="900" 
d="M91 327q0 -75 28 -141t77 -116t114 -79t139 -29t139.5 29t114 79t77 116t28.5 141q0 74 -28.5 140t-77 115.5t-114 78.5t-139.5 29t-139 -29t-114 -78.5t-77 -115.5t-28 -140zM877 327q0 -88 -34 -166t-92 -136t-136 -91.5t-166 -33.5q-89 0 -167 33.5t-135.5 91.5
t-91 136t-33.5 166t33.5 165t91 135t135.5 91.5t167 33.5q88 0 166 -33.5t136 -91.5t92 -135t34 -165zM403 520h-57q-6 0 -11 2.5t-5 9.5v56q0 12 14 12h132q25 0 25 -23v-508q0 -17 -16 -17h-66q-16 0 -16 17v451z" />
    <glyph glyph-name="uni2461" unicode="&#x2461;" horiz-adv-x="900" 
d="M91 327q0 -75 28 -141t77 -116t114 -79t139 -29t139.5 29t114 79t77 116t28.5 141q0 74 -28.5 140t-77 115.5t-114 78.5t-139.5 29t-139 -29t-114 -78.5t-77 -115.5t-28 -140zM877 327q0 -88 -34 -166t-92 -136t-136 -91.5t-166 -33.5q-89 0 -167 33.5t-135.5 91.5
t-91 136t-33.5 166t33.5 165t91 135t135.5 91.5t167 33.5q88 0 166 -33.5t136 -91.5t92 -135t34 -165zM615 52h-335q-10 0 -13.5 6.5t-3.5 14.5v133q0 46 21.5 80t66.5 48l150 47q18 7 24 16t6 22v66q0 27 -10.5 35t-21.5 8h-102q-9 0 -15.5 -2t-12.5 -6l-63 -38
q-4 -2 -8 -0.5t-6 5.5l-34 48q-3 3 -3 7.5t5 6.5l72 47q13 9 29.5 11t28.5 2h108q24 0 47.5 -9t42 -25t30 -37.5t11.5 -46.5v-61q0 -30 -8 -51.5t-22 -36.5t-33 -25t-40 -17l-132 -41q-34 -10 -34 -53v-73h258q7 0 12 -4.5t5 -9.5v-53q0 -8 -6.5 -11t-13.5 -3z" />
    <glyph glyph-name="uni2462" unicode="&#x2462;" horiz-adv-x="900" 
d="M91 327q0 -75 28 -141t77 -116t114 -79t139 -29t139.5 29t114 79t77 116t28.5 141q0 74 -28.5 140t-77 115.5t-114 78.5t-139.5 29t-139 -29t-114 -78.5t-77 -115.5t-28 -140zM877 327q0 -88 -34 -166t-92 -136t-136 -91.5t-166 -33.5q-89 0 -167 33.5t-135.5 91.5
t-91 136t-33.5 166t33.5 165t91 135t135.5 91.5t167 33.5q88 0 166 -33.5t136 -91.5t92 -135t34 -165zM390 122h117q17 0 27.5 9.5t10.5 29.5v92q0 26 -14 32.5t-30 6.5h-131q-7 0 -13.5 3t-6.5 11v51q0 5 5 9.5t12 4.5h124q17 0 28 10t11 38v66q0 28 -10.5 36t-21.5 8h-96
q-6 0 -13 -4l-67 -40q-7 -5 -13 -3.5t-9 6.5l-30 43q-9 12 3 20l75 49q11 8 23.5 8.5t23.5 0.5h101q25 0 49 -9t42.5 -25t29.5 -37.5t11 -45.5v-71q0 -31 -12.5 -51t-26.5 -31q20 -8 36.5 -26.5t16.5 -53.5v-100q0 -25 -11 -46.5t-29.5 -37t-42.5 -24.5t-49 -9h-127
q-10 0 -23 1t-25 9l-71 46q-11 8 -4 20l30 46q7 11 20 4l66 -42q5 -4 14 -4z" />
    <glyph glyph-name="uni2463" unicode="&#x2463;" horiz-adv-x="900" 
d="M877 327q0 -88 -34 -166t-92 -136t-136 -91.5t-166 -33.5q-89 0 -167 33.5t-135.5 91.5t-91 136t-33.5 166t33.5 165t91 135t135.5 91.5t167 33.5q88 0 166 -33.5t136 -91.5t92 -135t34 -165zM91 327q0 -75 28 -141t77 -116t114 -79t139 -29t139.5 29t114 79t77 116
t28.5 141q0 74 -28.5 140t-77 115.5t-114 78.5t-139.5 29t-139 -29t-114 -78.5t-77 -115.5t-28 -140zM345 260h152v248q0 17 17 17h61q10 0 13 -4t3 -13v-248h49q7 0 12 -4.5t5 -9.5v-52q0 -8 -5 -11t-12 -3h-49v-112q0 -16 -18 -16h-57q-19 0 -19 16v112h-216
q-22 0 -30.5 9t-8.5 26v26q0 11 2 20.5t7 21.5l123 307q4 10 19 10h63q8 0 12.5 -5t1.5 -14z" />
    <glyph glyph-name="uni2464" unicode="&#x2464;" horiz-adv-x="900" 
d="M877 327q0 -88 -34 -166t-92 -136t-136 -91.5t-166 -33.5q-89 0 -167 33.5t-135.5 91.5t-91 136t-33.5 166t33.5 165t91 135t135.5 91.5t167 33.5q88 0 166 -33.5t136 -91.5t92 -135t34 -165zM91 327q0 -75 28 -141t77 -116t114 -79t139 -29t139.5 29t114 79t77 116
t28.5 141q0 74 -28.5 140t-77 115.5t-114 78.5t-139.5 29t-139 -29t-114 -78.5t-77 -115.5t-28 -140zM507 42h-120q-10 0 -23 1t-25 9l-71 44q-11 8 -4 20l29 45q7 11 20 4l65 -40q3 -2 7 -2.5t9 -0.5h112q11 0 23.5 7.5t12.5 33.5v113q0 26 -12.5 31.5t-23.5 5.5h-189
q-14 0 -20 7.5t-6 15.5v240q0 8 5 16t19 8h293q7 0 12 -4.5t5 -9.5v-52q0 -8 -5 -11t-12 -3h-220v-126h119q25 0 49 -9.5t42.5 -25.5t29.5 -37.5t11 -46.5v-115q0 -25 -11 -46.5t-29.5 -37.5t-42.5 -25t-49 -9z" />
    <glyph glyph-name="uni2465" unicode="&#x2465;" horiz-adv-x="900" 
d="M91 327q0 -75 28 -141t77 -116t114 -79t139 -29t139.5 29t114 79t77 116t28.5 141q0 74 -28.5 140t-77 115.5t-114 78.5t-139.5 29t-139 -29t-114 -78.5t-77 -115.5t-28 -140zM877 327q0 -88 -34 -166t-92 -136t-136 -91.5t-166 -33.5q-89 0 -167 33.5t-135.5 91.5
t-91 136t-33.5 166t33.5 165t91 135t135.5 91.5t167 33.5q88 0 166 -33.5t136 -91.5t92 -135t34 -165zM402 609h107q12 0 28.5 -2t29.5 -11l72 -47q5 -2 5 -6.5t-3 -7.5l-34 -48q-2 -4 -6 -5.5t-8 0.5l-63 38q-6 4 -12.5 6.5t-15.5 2.5h-95q-17 0 -26.5 -8.5t-9.5 -28.5
v-107q11 6 23 9t30 3h91q25 0 48.5 -9t42 -25t29.5 -37.5t11 -46.5v-119q0 -25 -11 -46.5t-29 -37.5t-41.5 -25t-48.5 -9h-110q-25 0 -49 9t-42.5 25t-29.5 37.5t-11 46.5v332q0 24 10.5 45.5t28.5 37.5t41 25t48 9zM389 317q-3 0 -8 -1.5t-10 -3.5v-157q0 -19 11 -26t26 -7
h106q16 0 25.5 7.5t9.5 27.5v121q0 21 -10.5 30t-28.5 9h-121z" />
    <glyph glyph-name="uni2466" unicode="&#x2466;" horiz-adv-x="900" 
d="M91 327q0 -75 28 -141t77 -116t114 -79t139 -29t139.5 29t114 79t77 116t28.5 141q0 74 -28.5 140t-77 115.5t-114 78.5t-139.5 29t-139 -29t-114 -78.5t-77 -115.5t-28 -140zM877 327q0 -88 -34 -166t-92 -136t-136 -91.5t-166 -33.5q-89 0 -167 33.5t-135.5 91.5
t-91 136t-33.5 166t33.5 165t91 135t135.5 91.5t167 33.5q88 0 166 -33.5t136 -91.5t92 -135t34 -165zM536 500h-258q-7 0 -12 3t-5 11v52q0 5 5 9.5t12 4.5h321q15 0 24 -6t9 -26v-24q0 -9 -2 -25t-6 -27l-147 -428q-3 -8 -7 -10t-11 -2h-68q-11 0 -13 5t0 11z" />
    <glyph glyph-name="uni2467" unicode="&#x2467;" horiz-adv-x="900" 
d="M91 327q0 -75 28 -141t77 -116t114 -79t139 -29t139.5 29t114 79t77 116t28.5 141q0 74 -28.5 140t-77 115.5t-114 78.5t-139.5 29t-139 -29t-114 -78.5t-77 -115.5t-28 -140zM877 327q0 -88 -34 -166t-92 -136t-136 -91.5t-166 -33.5q-89 0 -167 33.5t-135.5 91.5
t-91 136t-33.5 166t33.5 165t91 135t135.5 91.5t167 33.5q88 0 166 -33.5t136 -91.5t92 -135t34 -165zM258 257q0 25 17 47t41 37q-19 13 -32 36t-13 45v70q0 25 11.5 46.5t30.5 37t43 24.5t49 9h90q25 0 49 -9t43 -24.5t31 -37t12 -46.5v-70q0 -23 -13.5 -46t-32.5 -35
q24 -15 41 -37t17 -47v-92q0 -25 -12 -47t-32.5 -39t-46.5 -27t-53 -10h-96q-27 0 -53 10t-46.5 27t-32.5 39t-12 47v92zM499 122q12 0 28.5 11t16.5 37v74q0 13 -6.5 23t-15 16.5t-18 9.5t-15.5 3h-76q-6 0 -15.5 -3t-19 -9.5t-16 -16.5t-6.5 -23v-74q0 -26 16.5 -37
t28.5 -11h98zM532 486q0 27 -14 35t-26 8h-84q-12 0 -26 -8t-14 -35v-62q0 -13 5.5 -22.5t13 -16t16 -9.5t14.5 -3h64q6 0 14.5 3t16.5 9t14 15.5t6 23.5v62z" />
    <glyph glyph-name="uni2468" unicode="&#x2468;" horiz-adv-x="900" 
d="M91 327q0 -75 28 -141t77 -116t114 -79t139 -29t139.5 29t114 79t77 116t28.5 141q0 74 -28.5 140t-77 115.5t-114 78.5t-139.5 29t-139 -29t-114 -78.5t-77 -115.5t-28 -140zM877 327q0 -88 -34 -166t-92 -136t-136 -91.5t-166 -33.5q-89 0 -167 33.5t-135.5 91.5
t-91 136t-33.5 166t33.5 165t91 135t135.5 91.5t167 33.5q88 0 166 -33.5t136 -91.5t92 -135t34 -165zM321 129h182q11 0 23.5 6t12.5 32v99q-11 -5 -25 -8.5t-31 -3.5h-90q-25 0 -48 8.5t-41 23.5t-28.5 36t-10.5 46v127q0 25 10.5 46t28.5 36t41 23.5t48 8.5h114
q25 0 48 -8.5t41 -23.5t28.5 -36t10.5 -46v-329q0 -25 -10.5 -46.5t-28 -37.5t-40 -25t-47.5 -9h-186q-6 0 -11 2.5t-5 9.5v57q0 12 14 12zM539 340v151q0 21 -9.5 29.5t-24.5 8.5h-110q-15 0 -24.5 -8.5t-9.5 -29.5v-119q0 -21 9.5 -29.5t24.5 -8.5h125q5 0 9.5 2t9.5 4z
" />
    <glyph glyph-name="uni2469" unicode="&#x2469;" horiz-adv-x="900" 
d="M877 327q0 -88 -34 -166t-92 -136t-136 -91.5t-166 -33.5q-89 0 -167 33.5t-135.5 91.5t-91 136t-33.5 166t33.5 165t91 135t135.5 91.5t167 33.5q88 0 166 -33.5t136 -91.5t92 -135t34 -165zM225 510h-36q-6 0 -11 3t-5 10v33q-38 -48 -60 -106t-22 -123q0 -75 28 -141
t77 -116t114 -79t139 -29t139.5 29t114 79t77 116t28.5 141q0 74 -28.5 140t-77 115.5t-114 78.5t-139.5 29q-72 0 -134.5 -27t-110.5 -73h87q26 0 26 -23v-487q0 -18 -16 -18h-59q-17 0 -17 18v430zM405 462q0 24 11 48.5t30.5 44t45.5 32t55 12.5h37q29 0 55 -12.5
t45.5 -32t30.5 -44t11 -48.5v-272q0 -24 -11 -49t-30.5 -44.5t-45.5 -32t-55 -12.5h-37q-29 0 -55 12.5t-45.5 32t-30.5 44.5t-11 49v272zM632 456q0 29 -13 46t-31 17h-45q-18 0 -31.5 -17t-13.5 -46v-261q0 -28 13.5 -45.5t31.5 -17.5h45q18 0 31 17.5t13 45.5v261z" />
    <glyph glyph-name="uni246A" unicode="&#x246a;" horiz-adv-x="900" 
d="M91 327q0 -75 28 -141t77 -116t114 -79t139 -29t139.5 29t114 79t77 116t28.5 141q0 74 -28.5 140t-77 115.5t-114 78.5t-139.5 29t-139 -29t-114 -78.5t-77 -115.5t-28 -140zM877 327q0 -88 -34 -166t-92 -136t-136 -91.5t-166 -33.5q-89 0 -167 33.5t-135.5 91.5
t-91 136t-33.5 166t33.5 165t91 135t135.5 91.5t167 33.5q88 0 166 -33.5t136 -91.5t92 -135t34 -165zM272 510h-36q-6 0 -11.5 3t-5.5 10v54q0 13 15 13h104q25 0 25 -23v-487q0 -18 -16 -18h-59q-16 0 -16 18v430zM555 510h-36q-6 0 -11 3t-5 10v54q0 13 14 13h104
q26 0 26 -23v-487q0 -18 -17 -18h-58q-17 0 -17 18v430z" />
    <glyph glyph-name="uni246B" unicode="&#x246b;" horiz-adv-x="900" 
d="M877 327q0 -88 -34 -166t-92 -136t-136 -91.5t-166 -33.5q-89 0 -167 33.5t-135.5 91.5t-91 136t-33.5 166t33.5 165t91 135t135.5 91.5t167 33.5q88 0 166 -33.5t136 -91.5t92 -135t34 -165zM694 62h-276q-9 0 -12.5 6.5t-3.5 14.5v123q0 46 22 77t64 51l94 47
q13 6 21 15.5t8 22.5v56q0 27 -10 35t-21 8h-47q-16 0 -27 -8l-62 -38q-4 -2 -8 -0.5t-6 5.5l-33 48q-3 3 -3 7.5t5 6.5l70 47q13 9 29 11t28 2h53q24 0 47 -9t41 -25t29 -37.5t11 -46.5v-51q0 -26 -7 -45t-19.5 -33.5t-29.5 -25.5t-36 -21l-87 -44q-17 -9 -24 -19.5
t-7 -32.5v-66h200q6 0 11 -4.5t5 -9.5v-49q45 50 70 112.5t25 134.5q0 74 -28.5 140t-77 115.5t-114 78.5t-139.5 29q-72 0 -134.5 -27t-110.5 -73h97q26 0 26 -23v-487q0 -18 -16 -18h-59q-17 0 -17 18v430h-36q-6 0 -11 3t-5 10v45q-43 -48 -67.5 -110t-24.5 -131
q0 -75 28 -141t77 -116t114 -79t139 -29q72 0 134.5 26.5t111.5 73.5h-1z" />
    <glyph glyph-name="uni246C" unicode="&#x246c;" horiz-adv-x="900" 
d="M877 327q0 -88 -34 -166t-92 -136t-136 -91.5t-166 -33.5q-89 0 -167 33.5t-135.5 91.5t-91 136t-33.5 166t33.5 165t91 135t135.5 91.5t167 33.5q88 0 166 -33.5t136 -91.5t92 -135t34 -165zM247 510h-36q-6 0 -11 3t-5 10v54v5q-48 -50 -76 -115.5t-28 -139.5
q0 -75 28 -141t77 -116t114 -79t139 -29t139.5 29t114 79t77 116t28.5 141q0 74 -28.5 140t-77 115.5t-114 78.5t-139.5 29q-72 0 -135 -27t-111 -74q2 1 6 1h104q26 0 26 -23v-487q0 -18 -16 -18h-59q-17 0 -17 18v430zM589 132q17 0 27.5 9.5t10.5 29.5v82q0 26 -14 32.5
t-30 6.5h-86q-7 0 -13.5 3t-6.5 11v51q0 5 5 9.5t12 4.5h79q17 0 28 10t11 38v56q0 28 -10.5 36t-21.5 8h-51q-6 0 -13 -4l-62 -33q-7 -5 -13 -3.5t-9 6.5l-30 43q-9 12 3 20l70 42q11 8 23.5 8.5t23.5 0.5h56q25 0 49 -9t42.5 -25t29.5 -37.5t11 -45.5v-61q0 -31 -12.5 -51
t-26.5 -31q20 -8 36.5 -26.5t16.5 -53.5v-90q0 -25 -11 -46.5t-29.5 -37t-42.5 -24.5t-49 -9h-82q-10 0 -23 1t-25 9l-65 38q-11 8 -4 20l30 46q7 11 20 4l60 -34q3 -2 6 -3t8 -1h72z" />
    <glyph glyph-name="uni246D" unicode="&#x246d;" horiz-adv-x="900" 
d="M877 327q0 -88 -34 -166t-92 -136t-136 -91.5t-166 -33.5q-89 0 -167 33.5t-135.5 91.5t-91 136t-33.5 166t33.5 165t91 135t135.5 91.5t167 33.5q88 0 166 -33.5t136 -91.5t92 -135t34 -165zM235 510h-36q-6 0 -11 3t-5 10v45q-43 -48 -67.5 -110t-24.5 -131
q0 -75 28 -141t77 -116t114 -79t139 -29t139.5 29t114 79t77 116t28.5 141q0 74 -28.5 140t-77 115.5t-114 78.5t-139.5 29q-72 0 -134.5 -27t-110.5 -73h97q26 0 26 -23v-487q0 -18 -16 -18h-59q-17 0 -17 18v430zM482 260h108v238q0 17 17 17h58q9 0 12 -4t3 -13v-238h47
q7 0 12 -4.5t5 -9.5v-52q0 -8 -5 -11t-12 -3h-47v-102q0 -16 -16 -16h-55q-19 0 -19 16v102h-170q-20 0 -28.5 9t-8.5 26v21q0 11 3 22.5t6 24.5l80 297q2 10 18 10h61q8 0 12.5 -5t1.5 -14z" />
    <glyph glyph-name="uni246E" unicode="&#x246e;" horiz-adv-x="900" 
d="M877 327q0 -88 -34 -166t-92 -136t-136 -91.5t-166 -33.5q-89 0 -167 33.5t-135.5 91.5t-91 136t-33.5 166t33.5 165t91 135t135.5 91.5t167 33.5q88 0 166 -33.5t136 -91.5t92 -135t34 -165zM587 52h-70q-10 0 -23 1t-25 9l-61 37q-11 8 -4 20l29 45q7 11 20 4l55 -33
q3 -2 7 -2.5t9 -0.5h62q11 0 23.5 7.5t12.5 33.5v103q0 26 -12.5 31.5t-23.5 5.5h-139q-14 0 -20 7.5t-6 15.5v230q0 8 5 16t19 8h243q4 0 10 -4q-48 48 -112 76t-137 28q-72 0 -134.5 -27t-110.5 -73h3h104q26 0 26 -23v-487q0 -18 -16 -18h-59q-17 0 -17 18v430h-36
q-6 0 -11 3t-5 10v54v2q-48 -50 -75 -114.5t-27 -137.5q0 -75 28 -141t77 -116t114 -79t139 -29t139.5 29t114 79t77 116t28.5 141t-28 140.5t-78 115.5q3 -3 3 -7v-52q0 -8 -5 -11t-12 -3h-170v-116h74q25 0 48.5 -8.5t40.5 -23.5t27.5 -36t10.5 -46v-110q0 -25 -11 -46.5
t-29.5 -37.5t-42.5 -25t-49 -9z" />
    <glyph glyph-name="uni2474" unicode="&#x2474;" horiz-adv-x="900" 
d="M29 335q0 100 27.5 194.5t83.5 170.5q12 16 29 16h41q13 0 11.5 -4.5t-3.5 -7.5q-65 -87 -92 -179.5t-27 -189.5t27 -190t92 -180q2 -3 3.5 -7.5t-11.5 -4.5h-41q-17 0 -29 16q-56 76 -83.5 171t-27.5 195zM870 335q0 -100 -27.5 -195t-83.5 -171q-12 -16 -29 -16h-41
q-13 0 -11.5 4.5t3.5 7.5q65 87 92 180t27 190t-27 189.5t-92 179.5q-2 3 -3.5 7.5t11.5 4.5h41q17 0 29 -16q56 -76 83.5 -170.5t27.5 -194.5zM403 520h-57q-6 0 -11 2.5t-5 9.5v56q0 12 14 12h132q25 0 25 -23v-508q0 -17 -16 -17h-66q-16 0 -16 17v451z" />
    <glyph glyph-name="uni2475" unicode="&#x2475;" horiz-adv-x="900" 
d="M29 335q0 100 27.5 194.5t83.5 170.5q12 16 29 16h41q13 0 11.5 -4.5t-3.5 -7.5q-65 -87 -92 -179.5t-27 -189.5t27 -190t92 -180q2 -3 3.5 -7.5t-11.5 -4.5h-41q-17 0 -29 16q-56 76 -83.5 171t-27.5 195zM870 335q0 -100 -27.5 -195t-83.5 -171q-12 -16 -29 -16h-41
q-13 0 -11.5 4.5t3.5 7.5q65 87 92 180t27 190t-27 189.5t-92 179.5q-2 3 -3.5 7.5t11.5 4.5h41q17 0 29 -16q56 -76 83.5 -170.5t27.5 -194.5zM615 52h-335q-10 0 -13.5 6.5t-3.5 14.5v133q0 46 21.5 80t66.5 48l150 47q18 7 24 16t6 22v66q0 27 -10.5 35t-21.5 8h-102
q-9 0 -15.5 -2t-12.5 -6l-63 -38q-4 -2 -8 -0.5t-6 5.5l-34 48q-3 3 -3 7.5t5 6.5l72 47q13 9 29.5 11t28.5 2h108q24 0 47.5 -9t42 -25t30 -37.5t11.5 -46.5v-61q0 -30 -8 -51.5t-22 -36.5t-33 -25t-40 -17l-132 -41q-34 -10 -34 -53v-73h258q7 0 12 -4.5t5 -9.5v-53
q0 -8 -6.5 -11t-13.5 -3z" />
    <glyph glyph-name="uni2476" unicode="&#x2476;" horiz-adv-x="900" 
d="M390 122h117q17 0 27.5 9.5t10.5 29.5v92q0 26 -14 32.5t-30 6.5h-131q-7 0 -13.5 3t-6.5 11v51q0 5 5 9.5t12 4.5h124q17 0 28 10t11 38v66q0 28 -10.5 36t-21.5 8h-96q-6 0 -13 -4l-67 -40q-7 -5 -13 -3.5t-9 6.5l-30 43q-9 12 3 20l75 49q11 8 23.5 8.5t23.5 0.5h101
q25 0 49 -9t42.5 -25t29.5 -37.5t11 -45.5v-71q0 -31 -12.5 -51t-26.5 -31q20 -8 36.5 -26.5t16.5 -53.5v-100q0 -25 -11 -46.5t-29.5 -37t-42.5 -24.5t-49 -9h-127q-10 0 -23 1t-25 9l-71 46q-11 8 -4 20l30 46q7 11 20 4l66 -42q5 -4 14 -4zM29 335q0 100 27.5 194.5
t83.5 170.5q12 16 29 16h41q13 0 11.5 -4.5t-3.5 -7.5q-65 -87 -92 -179.5t-27 -189.5t27 -190t92 -180q2 -3 3.5 -7.5t-11.5 -4.5h-41q-17 0 -29 16q-56 76 -83.5 171t-27.5 195zM870 335q0 -100 -27.5 -195t-83.5 -171q-12 -16 -29 -16h-41q-13 0 -11.5 4.5t3.5 7.5
q65 87 92 180t27 190t-27 189.5t-92 179.5q-2 3 -3.5 7.5t11.5 4.5h41q17 0 29 -16q56 -76 83.5 -170.5t27.5 -194.5z" />
    <glyph glyph-name="uni2477" unicode="&#x2477;" horiz-adv-x="900" 
d="M345 260h152v248q0 17 17 17h61q10 0 13 -4t3 -13v-248h49q7 0 12 -4.5t5 -9.5v-52q0 -8 -5 -11t-12 -3h-49v-116q0 -16 -18 -16h-57q-19 0 -19 16v116h-216q-22 0 -30.5 9t-8.5 26v26q0 11 2 20.5t7 21.5l123 309q4 10 19 10h63q8 0 12.5 -5t1.5 -14zM29 335
q0 100 27.5 194.5t83.5 170.5q12 16 29 16h41q13 0 11.5 -4.5t-3.5 -7.5q-65 -87 -92 -179.5t-27 -189.5t27 -190t92 -180q2 -3 3.5 -7.5t-11.5 -4.5h-41q-17 0 -29 16q-56 76 -83.5 171t-27.5 195zM870 335q0 -100 -27.5 -195t-83.5 -171q-12 -16 -29 -16h-41
q-13 0 -11.5 4.5t3.5 7.5q65 87 92 180t27 190t-27 189.5t-92 179.5q-2 3 -3.5 7.5t11.5 4.5h41q17 0 29 -16q56 -76 83.5 -170.5t27.5 -194.5z" />
    <glyph glyph-name="uni2478" unicode="&#x2478;" horiz-adv-x="900" 
d="M507 42h-120q-10 0 -23 1t-25 9l-71 44q-11 8 -4 20l29 45q7 11 20 4l65 -40q3 -2 7 -2.5t9 -0.5h112q11 0 23.5 7.5t12.5 33.5v113q0 26 -12.5 31.5t-23.5 5.5h-189q-14 0 -20 7.5t-6 15.5v240q0 8 5 16t19 8h293q7 0 12 -4.5t5 -9.5v-52q0 -8 -5 -11t-12 -3h-220v-126
h119q25 0 49 -9.5t42.5 -25.5t29.5 -37.5t11 -46.5v-115q0 -25 -11 -46.5t-29.5 -37.5t-42.5 -25t-49 -9zM29 335q0 100 27.5 194.5t83.5 170.5q12 16 29 16h41q13 0 11.5 -4.5t-3.5 -7.5q-65 -87 -92 -179.5t-27 -189.5t27 -190t92 -180q2 -3 3.5 -7.5t-11.5 -4.5h-41
q-17 0 -29 16q-56 76 -83.5 171t-27.5 195zM870 335q0 -100 -27.5 -195t-83.5 -171q-12 -16 -29 -16h-41q-13 0 -11.5 4.5t3.5 7.5q65 87 92 180t27 190t-27 189.5t-92 179.5q-2 3 -3.5 7.5t11.5 4.5h41q17 0 29 -16q56 -76 83.5 -170.5t27.5 -194.5z" />
    <glyph glyph-name="uni2479" unicode="&#x2479;" horiz-adv-x="900" 
d="M402 609h107q12 0 28.5 -2t29.5 -11l72 -47q5 -2 5 -6.5t-3 -7.5l-34 -48q-2 -4 -6 -5.5t-8 0.5l-63 38q-6 4 -12.5 6.5t-15.5 2.5h-95q-17 0 -26.5 -8.5t-9.5 -28.5v-107q11 6 23 9t30 3h91q25 0 48.5 -9t42 -25t29.5 -37.5t11 -46.5v-119q0 -25 -11 -46.5t-29 -37.5
t-41.5 -25t-48.5 -9h-110q-25 0 -49 9t-42.5 25t-29.5 37.5t-11 46.5v332q0 24 10.5 45.5t28.5 37.5t41 25t48 9zM389 317q-3 0 -8 -1.5t-10 -3.5v-157q0 -19 11 -26t26 -7h106q16 0 25.5 7.5t9.5 27.5v121q0 21 -10.5 30t-28.5 9h-121zM29 335q0 100 27.5 194.5t83.5 170.5
q12 16 29 16h41q13 0 11.5 -4.5t-3.5 -7.5q-65 -87 -92 -179.5t-27 -189.5t27 -190t92 -180q2 -3 3.5 -7.5t-11.5 -4.5h-41q-17 0 -29 16q-56 76 -83.5 171t-27.5 195zM870 335q0 -100 -27.5 -195t-83.5 -171q-12 -16 -29 -16h-41q-13 0 -11.5 4.5t3.5 7.5q65 87 92 180
t27 190t-27 189.5t-92 179.5q-2 3 -3.5 7.5t11.5 4.5h41q17 0 29 -16q56 -76 83.5 -170.5t27.5 -194.5z" />
    <glyph glyph-name="uni247A" unicode="&#x247a;" horiz-adv-x="900" 
d="M536 500h-258q-7 0 -12 3t-5 11v52q0 5 5 9.5t12 4.5h321q15 0 24 -6t9 -26v-24q0 -9 -2 -25t-6 -27l-147 -428q-3 -8 -7 -10t-11 -2h-68q-11 0 -13 5t0 11zM29 335q0 100 27.5 194.5t83.5 170.5q12 16 29 16h41q13 0 11.5 -4.5t-3.5 -7.5q-65 -87 -92 -179.5t-27 -189.5
t27 -190t92 -180q2 -3 3.5 -7.5t-11.5 -4.5h-41q-17 0 -29 16q-56 76 -83.5 171t-27.5 195zM870 335q0 -100 -27.5 -195t-83.5 -171q-12 -16 -29 -16h-41q-13 0 -11.5 4.5t3.5 7.5q65 87 92 180t27 190t-27 189.5t-92 179.5q-2 3 -3.5 7.5t11.5 4.5h41q17 0 29 -16
q56 -76 83.5 -170.5t27.5 -194.5z" />
    <glyph glyph-name="uni247B" unicode="&#x247b;" horiz-adv-x="900" 
d="M258 257q0 25 17 47t41 37q-19 13 -32 36t-13 45v70q0 25 11.5 46.5t30.5 37t43 24.5t49 9h90q25 0 49 -9t43 -24.5t31 -37t12 -46.5v-70q0 -23 -13.5 -46t-32.5 -35q24 -15 41 -37t17 -47v-92q0 -25 -12 -47t-32.5 -39t-46.5 -27t-53 -10h-96q-27 0 -53 10t-46.5 27
t-32.5 39t-12 47v92zM499 122q12 0 28.5 11t16.5 37v74q0 13 -6.5 23t-15 16.5t-18 9.5t-15.5 3h-76q-6 0 -15.5 -3t-19 -9.5t-16 -16.5t-6.5 -23v-74q0 -26 16.5 -37t28.5 -11h98zM532 486q0 27 -14 35t-26 8h-84q-12 0 -26 -8t-14 -35v-62q0 -13 5.5 -22.5t13 -16t16 -9.5
t14.5 -3h64q6 0 14.5 3t16.5 9t14 15.5t6 23.5v62zM29 335q0 100 27.5 194.5t83.5 170.5q12 16 29 16h41q13 0 11.5 -4.5t-3.5 -7.5q-65 -87 -92 -179.5t-27 -189.5t27 -190t92 -180q2 -3 3.5 -7.5t-11.5 -4.5h-41q-17 0 -29 16q-56 76 -83.5 171t-27.5 195zM870 335
q0 -100 -27.5 -195t-83.5 -171q-12 -16 -29 -16h-41q-13 0 -11.5 4.5t3.5 7.5q65 87 92 180t27 190t-27 189.5t-92 179.5q-2 3 -3.5 7.5t11.5 4.5h41q17 0 29 -16q56 -76 83.5 -170.5t27.5 -194.5z" />
    <glyph glyph-name="uni247C" unicode="&#x247c;" horiz-adv-x="900" 
d="M29 335q0 100 27.5 194.5t83.5 170.5q12 16 29 16h41q13 0 11.5 -4.5t-3.5 -7.5q-65 -87 -92 -179.5t-27 -189.5t27 -190t92 -180q2 -3 3.5 -7.5t-11.5 -4.5h-41q-17 0 -29 16q-56 76 -83.5 171t-27.5 195zM870 335q0 -100 -27.5 -195t-83.5 -171q-12 -16 -29 -16h-41
q-13 0 -11.5 4.5t3.5 7.5q65 87 92 180t27 190t-27 189.5t-92 179.5q-2 3 -3.5 7.5t11.5 4.5h41q17 0 29 -16q56 -76 83.5 -170.5t27.5 -194.5zM321 129h182q11 0 23.5 6t12.5 32v99q-11 -5 -25 -8.5t-31 -3.5h-90q-25 0 -48 8.5t-41 23.5t-28.5 36t-10.5 46v127
q0 25 10.5 46t28.5 36t41 23.5t48 8.5h114q25 0 48 -8.5t41 -23.5t28.5 -36t10.5 -46v-329q0 -25 -10.5 -46.5t-28 -37.5t-40 -25t-47.5 -9h-186q-6 0 -11 2.5t-5 9.5v57q0 12 14 12zM539 340v151q0 21 -9.5 29.5t-24.5 8.5h-110q-15 0 -24.5 -8.5t-9.5 -29.5v-119
q0 -21 9.5 -29.5t24.5 -8.5h125q5 0 9.5 2t9.5 4z" />
    <glyph glyph-name="uni247D" unicode="&#x247d;" horiz-adv-x="900" 
d="M29 335q0 100 27.5 194.5t83.5 170.5q12 16 29 16h41q13 0 11.5 -4.5t-3.5 -7.5q-65 -87 -92 -179.5t-27 -189.5t27 -190t92 -180q2 -3 3.5 -7.5t-11.5 -4.5h-41q-17 0 -29 16q-56 76 -83.5 171t-27.5 195zM870 335q0 -100 -27.5 -195t-83.5 -171q-12 -16 -29 -16h-41
q-13 0 -11.5 4.5t3.5 7.5q65 87 92 180t27 190t-27 189.5t-92 179.5q-2 3 -3.5 7.5t11.5 4.5h41q17 0 29 -16q56 -76 83.5 -170.5t27.5 -194.5zM405 462q0 24 11 48.5t30.5 44t45.5 32t55 12.5h37q29 0 55 -12.5t45.5 -32t30.5 -44t11 -48.5v-272q0 -24 -11 -49t-30.5 -44.5
t-45.5 -32t-55 -12.5h-37q-29 0 -55 12.5t-45.5 32t-30.5 44.5t-11 49v272zM632 456q0 29 -13 46t-31 17h-45q-18 0 -31.5 -17t-13.5 -46v-261q0 -28 13.5 -45.5t31.5 -17.5h45q18 0 31 17.5t13 45.5v261zM225 510h-36q-6 0 -11 3t-5 10v54q0 13 14 13h104q26 0 26 -23v-487
q0 -18 -16 -18h-59q-17 0 -17 18v430z" />
    <glyph glyph-name="uni247E" unicode="&#x247e;" horiz-adv-x="900" 
d="M29 335q0 100 27.5 194.5t83.5 170.5q12 16 29 16h41q13 0 11.5 -4.5t-3.5 -7.5q-65 -87 -92 -179.5t-27 -189.5t27 -190t92 -180q2 -3 3.5 -7.5t-11.5 -4.5h-41q-17 0 -29 16q-56 76 -83.5 171t-27.5 195zM870 335q0 -100 -27.5 -195t-83.5 -171q-12 -16 -29 -16h-41
q-13 0 -11.5 4.5t3.5 7.5q65 87 92 180t27 190t-27 189.5t-92 179.5q-2 3 -3.5 7.5t11.5 4.5h41q17 0 29 -16q56 -76 83.5 -170.5t27.5 -194.5zM272 510h-36q-6 0 -11.5 3t-5.5 10v54q0 13 15 13h104q25 0 25 -23v-487q0 -18 -16 -18h-59q-16 0 -16 18v430zM555 510h-36
q-6 0 -11 3t-5 10v54q0 13 14 13h104q26 0 26 -23v-487q0 -18 -17 -18h-58q-17 0 -17 18v430z" />
    <glyph glyph-name="uni247F" unicode="&#x247f;" horiz-adv-x="900" 
d="M235 510h-36q-6 0 -11 3t-5 10v54q0 13 14 13h104q26 0 26 -23v-487q0 -18 -16 -18h-59q-17 0 -17 18v430zM694 62h-276q-9 0 -12.5 6.5t-3.5 14.5v123q0 46 22 77t64 51l94 47q13 6 21 15.5t8 22.5v56q0 27 -10 35t-21 8h-47q-16 0 -27 -8l-62 -38q-4 -2 -8 -0.5t-6 5.5
l-33 48q-3 3 -3 7.5t5 6.5l70 47q13 9 29 11t28 2h53q24 0 47 -9t41 -25t29 -37.5t11 -46.5v-51q0 -26 -7 -45t-19.5 -33.5t-29.5 -25.5t-36 -21l-87 -44q-17 -9 -24 -19.5t-7 -32.5v-66h200q6 0 11 -4.5t5 -9.5v-53q0 -8 -6.5 -11t-12.5 -3zM29 335q0 100 27.5 194.5
t83.5 170.5q12 16 29 16h41q13 0 11.5 -4.5t-3.5 -7.5q-65 -87 -92 -179.5t-27 -189.5t27 -190t92 -180q2 -3 3.5 -7.5t-11.5 -4.5h-41q-17 0 -29 16q-56 76 -83.5 171t-27.5 195zM870 335q0 -100 -27.5 -195t-83.5 -171q-12 -16 -29 -16h-41q-13 0 -11.5 4.5t3.5 7.5
q65 87 92 180t27 190t-27 189.5t-92 179.5q-2 3 -3.5 7.5t11.5 4.5h41q17 0 29 -16q56 -76 83.5 -170.5t27.5 -194.5z" />
    <glyph glyph-name="uni2480" unicode="&#x2480;" horiz-adv-x="900" 
d="M247 510h-36q-6 0 -11 3t-5 10v54q0 13 14 13h104q26 0 26 -23v-487q0 -18 -16 -18h-59q-17 0 -17 18v430zM589 132q17 0 27.5 9.5t10.5 29.5v82q0 26 -14 32.5t-30 6.5h-86q-7 0 -13.5 3t-6.5 11v51q0 5 5 9.5t12 4.5h79q17 0 28 10t11 38v56q0 28 -10.5 36t-21.5 8h-51
q-6 0 -13 -4l-62 -33q-7 -5 -13 -3.5t-9 6.5l-30 43q-9 12 3 20l70 42q11 8 23.5 8.5t23.5 0.5h56q25 0 49 -9t42.5 -25t29.5 -37.5t11 -45.5v-61q0 -31 -12.5 -51t-26.5 -31q20 -8 36.5 -26.5t16.5 -53.5v-90q0 -25 -11 -46.5t-29.5 -37t-42.5 -24.5t-49 -9h-82
q-10 0 -23 1t-25 9l-65 38q-11 8 -4 20l30 46q7 11 20 4l60 -34q3 -2 6 -3t8 -1h72zM29 335q0 100 27.5 194.5t83.5 170.5q12 16 29 16h41q13 0 11.5 -4.5t-3.5 -7.5q-65 -87 -92 -179.5t-27 -189.5t27 -190t92 -180q2 -3 3.5 -7.5t-11.5 -4.5h-41q-17 0 -29 16
q-56 76 -83.5 171t-27.5 195zM870 335q0 -100 -27.5 -195t-83.5 -171q-12 -16 -29 -16h-41q-13 0 -11.5 4.5t3.5 7.5q65 87 92 180t27 190t-27 189.5t-92 179.5q-2 3 -3.5 7.5t11.5 4.5h41q17 0 29 -16q56 -76 83.5 -170.5t27.5 -194.5z" />
    <glyph glyph-name="uni2481" unicode="&#x2481;" horiz-adv-x="900" 
d="M482 260h108v238q0 17 17 17h58q9 0 12 -4t3 -13v-238h47q7 0 12 -4.5t5 -9.5v-52q0 -8 -5 -11t-12 -3h-47v-102q0 -16 -16 -16h-55q-19 0 -19 16v102h-170q-20 0 -28.5 9t-8.5 26v21q0 11 3 22.5t6 24.5l80 297q2 10 18 10h61q8 0 12.5 -5t1.5 -14zM29 335
q0 100 27.5 194.5t83.5 170.5q12 16 29 16h41q13 0 11.5 -4.5t-3.5 -7.5q-65 -87 -92 -179.5t-27 -189.5t27 -190t92 -180q2 -3 3.5 -7.5t-11.5 -4.5h-41q-17 0 -29 16q-56 76 -83.5 171t-27.5 195zM870 335q0 -100 -27.5 -195t-83.5 -171q-12 -16 -29 -16h-41
q-13 0 -11.5 4.5t3.5 7.5q65 87 92 180t27 190t-27 189.5t-92 179.5q-2 3 -3.5 7.5t11.5 4.5h41q17 0 29 -16q56 -76 83.5 -170.5t27.5 -194.5zM235 510h-36q-6 0 -11 3t-5 10v54q0 13 14 13h104q26 0 26 -23v-487q0 -18 -16 -18h-59q-17 0 -17 18v430z" />
    <glyph glyph-name="uni2482" unicode="&#x2482;" horiz-adv-x="900" 
d="M245 510h-36q-6 0 -11 3t-5 10v54q0 13 14 13h104q26 0 26 -23v-487q0 -18 -16 -18h-59q-17 0 -17 18v430zM587 52h-70q-10 0 -23 1t-25 9l-61 37q-11 8 -4 20l29 45q7 11 20 4l55 -33q3 -2 7 -2.5t9 -0.5h62q11 0 23.5 7.5t12.5 33.5v103q0 26 -12.5 31.5t-23.5 5.5
h-139q-14 0 -20 7.5t-6 15.5v230q0 8 5 16t19 8h243q7 0 12 -4.5t5 -9.5v-52q0 -8 -5 -11t-12 -3h-170v-116h74q25 0 48.5 -8.5t40.5 -23.5t27.5 -36t10.5 -46v-110q0 -25 -11 -46.5t-29.5 -37.5t-42.5 -25t-49 -9zM29 335q0 100 27.5 194.5t83.5 170.5q12 16 29 16h41
q13 0 11.5 -4.5t-3.5 -7.5q-65 -87 -92 -179.5t-27 -189.5t27 -190t92 -180q2 -3 3.5 -7.5t-11.5 -4.5h-41q-17 0 -29 16q-56 76 -83.5 171t-27.5 195zM870 335q0 -100 -27.5 -195t-83.5 -171q-12 -16 -29 -16h-41q-13 0 -11.5 4.5t3.5 7.5q65 87 92 180t27 190t-27 189.5
t-92 179.5q-2 3 -3.5 7.5t11.5 4.5h41q17 0 29 -16q56 -76 83.5 -170.5t27.5 -194.5z" />
    <glyph glyph-name="uni249C" unicode="&#x249c;" horiz-adv-x="900" 
d="M29 335q0 100 27.5 194.5t83.5 170.5q12 16 29 16h41q13 0 11.5 -4.5t-3.5 -7.5q-65 -87 -92 -179.5t-27 -189.5t27 -190t92 -180q2 -3 3.5 -7.5t-11.5 -4.5h-41q-17 0 -29 16q-56 76 -83.5 171t-27.5 195zM870 335q0 -100 -27.5 -195t-83.5 -171q-12 -16 -29 -16h-41
q-13 0 -11.5 4.5t3.5 7.5q65 87 92 180t27 190t-27 189.5t-92 179.5q-2 3 -3.5 7.5t11.5 4.5h41q17 0 29 -16q56 -76 83.5 -170.5t27.5 -194.5zM330 454q-18 0 -18 17v46q0 17 18 17h186q27 0 40 -12l58 -47q11 -8 14 -16.5t3 -21.5v-224q0 -9 -5 -22.5t-16 -24.5l-41 -37
q-11 -10 -21 -11t-30 -1h-132q-9 0 -21 2t-20 8l-51 38q-13 10 -19.5 23t-6.5 26v75q0 17 7 27.5t14 16.5l54 46q11 10 20.5 12t21.5 2h100q28 0 47 -13v47q0 6 -6 11l-15 12q-4 4 -15 4h-166zM366 221q0 -5 1 -7t3 -4l14 -11q3 -2 9 -2h128q5 0 8 4t3 8v89q0 8 -5.5 12
t-12.5 4h-123q-7 0 -10 -3l-11 -10q-4 -4 -4 -13v-67z" />
    <glyph glyph-name="uni249D" unicode="&#x249d;" horiz-adv-x="900" 
d="M277 601q0 8 4 13.5t16 5.5h56q20 0 20 -19v-163q11 5 23.5 9t29.5 4h98q11 0 23 -3.5t19 -8.5l57 -44q12 -9 16 -20t4 -21v-227q0 -11 -5 -22.5t-15 -19.5l-58 -43q-5 -4 -17.5 -7t-24.5 -3h-127q-27 0 -38 8l-62 45q-10 8 -14.5 19.5t-4.5 22.5v474zM547 340q0 8 -6 13
l-13 11q-7 5 -15 5h-121q-4 0 -8.5 -1t-10.5 -3v-224q0 -9 5 -11l19 -13q4 -3 13 -3h104q4 0 9 3l19 15q5 4 5 10v198zM29 335q0 100 27.5 194.5t83.5 170.5q12 16 29 16h41q13 0 11.5 -4.5t-3.5 -7.5q-65 -87 -92 -179.5t-27 -189.5t27 -190t92 -180q2 -3 3.5 -7.5
t-11.5 -4.5h-41q-17 0 -29 16q-56 76 -83.5 171t-27.5 195zM870 335q0 -100 -27.5 -195t-83.5 -171q-12 -16 -29 -16h-41q-13 0 -11.5 4.5t3.5 7.5q65 87 92 180t27 190t-27 189.5t-92 179.5q-2 3 -3.5 7.5t11.5 4.5h41q17 0 29 -16q56 -76 83.5 -170.5t27.5 -194.5z" />
    <glyph glyph-name="uni249E" unicode="&#x249e;" horiz-adv-x="900" 
d="M29 335q0 100 27.5 194.5t83.5 170.5q12 16 29 16h41q13 0 11.5 -4.5t-3.5 -7.5q-65 -87 -92 -179.5t-27 -189.5t27 -190t92 -180q2 -3 3.5 -7.5t-11.5 -4.5h-41q-17 0 -29 16q-56 76 -83.5 171t-27.5 195zM870 335q0 -100 -27.5 -195t-83.5 -171q-12 -16 -29 -16h-41
q-13 0 -11.5 4.5t3.5 7.5q65 87 92 180t27 190t-27 189.5t-92 179.5q-2 3 -3.5 7.5t11.5 4.5h41q17 0 29 -16q56 -76 83.5 -170.5t27.5 -194.5zM265 407q0 5 1.5 18.5t12.5 24.5l70 70q16 16 42 16h114q10 0 23.5 -1.5t25.5 -9.5l71 -45q9 -6 3 -15l-32 -48q-5 -9 -15 -4
l-60 38q-5 3 -7.5 3.5t-6.5 0.5h-92q-8 0 -12 -4l-36 -37q-5 -5 -5 -16v-145q0 -3 0.5 -6.5t3.5 -6.5l34 -36q5 -6 9.5 -7t10.5 -1h91q6 0 13 4l65 42q10 6 15 -4l30 -50q7 -10 -3 -17l-72 -45q-11 -7 -23.5 -9t-23.5 -2h-119q-17 0 -26.5 4t-17.5 12l-70 70q-10 9 -12 20.5
t-2 22.5v163z" />
    <glyph glyph-name="uni249F" unicode="&#x249f;" horiz-adv-x="900" 
d="M623 127q0 -11 -4.5 -22.5t-14.5 -19.5l-62 -45q-11 -8 -38 -8h-127q-12 0 -24.5 3t-17.5 7l-58 43q-10 8 -15 19.5t-5 22.5v227q0 10 4 21t16 20l57 44q7 5 19 8.5t23 3.5h98q17 0 29.5 -4t23.5 -9v163q0 19 20 19h56q12 0 16 -5.5t4 -13.5v-474zM353 142q0 -6 5 -10
l19 -15q4 -3 9 -3h104q8 0 13 3l19 13q5 2 5 11v224q-6 2 -10.5 3t-8.5 1h-121q-8 0 -15 -5l-13 -11q-6 -5 -6 -13v-198zM29 335q0 100 27.5 194.5t83.5 170.5q12 16 29 16h41q13 0 11.5 -4.5t-3.5 -7.5q-65 -87 -92 -179.5t-27 -189.5t27 -190t92 -180q2 -3 3.5 -7.5
t-11.5 -4.5h-41q-17 0 -29 16q-56 76 -83.5 171t-27.5 195zM870 335q0 -100 -27.5 -195t-83.5 -171q-12 -16 -29 -16h-41q-13 0 -11.5 4.5t3.5 7.5q65 87 92 180t27 190t-27 189.5t-92 179.5q-2 3 -3.5 7.5t11.5 4.5h41q17 0 29 -16q56 -76 83.5 -170.5t27.5 -194.5z" />
    <glyph glyph-name="uni24A0" unicode="&#x24a0;" horiz-adv-x="900" 
d="M585 196q18 0 18 -17v-46q0 -17 -18 -17h-203q-27 0 -40 12l-58 47q-11 8 -14 16.5t-3 21.5v224q0 9 5 22.5t16 24.5l41 37q11 10 21 11t30 1h135q9 0 21 -2t20 -8l51 -38q13 -10 19.5 -23t6.5 -26v-75q0 -17 -7 -27.5t-14 -16.5l-54 -46q-11 -10 -20.5 -12t-21.5 -2
h-103q-28 0 -47 13v-47q0 -6 6 -11l15 -12q4 -4 15 -4h183zM535 429q0 5 -1 7t-3 4l-14 11q-3 2 -9 2h-131q-5 0 -8 -4t-3 -8v-89q0 -8 5.5 -12t12.5 -4h126q7 0 10 3l11 10q3 3 3.5 5.5t0.5 7.5v67zM29 335q0 100 27.5 194.5t83.5 170.5q12 16 29 16h41q13 0 11.5 -4.5
t-3.5 -7.5q-65 -87 -92 -179.5t-27 -189.5t27 -190t92 -180q2 -3 3.5 -7.5t-11.5 -4.5h-41q-17 0 -29 16q-56 76 -83.5 171t-27.5 195zM870 335q0 -100 -27.5 -195t-83.5 -171q-12 -16 -29 -16h-41q-13 0 -11.5 4.5t3.5 7.5q65 87 92 180t27 190t-27 189.5t-92 179.5
q-2 3 -3.5 7.5t11.5 4.5h41q17 0 29 -16q56 -76 83.5 -170.5t27.5 -194.5z" />
    <glyph glyph-name="uni24A1" unicode="&#x24a1;" horiz-adv-x="900" 
d="M390 314h-69q-18 0 -18 17v46q0 17 18 17h69v108q0 13 1.5 18t7.5 12l52 61q8 8 16.5 12t22.5 4h106q18 0 18 -17v-48q0 -17 -18 -17h-84q-7 0 -11 -5l-10 -12q-3 -4 -3.5 -6.5t-0.5 -7.5v-102h100q18 0 18 -17v-46q0 -17 -18 -17h-100v-273q0 -8 -4 -13.5t-16 -5.5h-57
q-20 0 -20 19v273zM29 335q0 100 27.5 194.5t83.5 170.5q12 16 29 16h41q13 0 11.5 -4.5t-3.5 -7.5q-65 -87 -92 -179.5t-27 -189.5t27 -190t92 -180q2 -3 3.5 -7.5t-11.5 -4.5h-41q-17 0 -29 16q-56 76 -83.5 171t-27.5 195zM870 335q0 -100 -27.5 -195t-83.5 -171
q-12 -16 -29 -16h-41q-13 0 -11.5 4.5t3.5 7.5q65 87 92 180t27 190t-27 189.5t-92 179.5q-2 3 -3.5 7.5t11.5 4.5h41q17 0 29 -16q56 -76 83.5 -170.5t27.5 -194.5z" />
    <glyph glyph-name="uni24A2" unicode="&#x24a2;" horiz-adv-x="900" 
d="M514 60h-190q-18 0 -18 17v46q0 17 18 17h170q12 0 17 6l15 16q2 2 4 5.5t2 13.5v50q-11 -5 -23.5 -9t-29.5 -4h-98q-11 0 -23 3.5t-19 8.5l-57 44q-12 9 -16 20t-4 21v181q0 11 5 22.5t15 19.5l58 43q5 4 17.5 7t24.5 3h127q27 0 38 -8l62 -45q10 -8 14.5 -19.5
t4.5 -22.5v-322q0 -13 -2.5 -22.5t-13.5 -21.5l-54 -55q-8 -9 -19 -12t-25 -3zM360 329q0 -9 6 -13l13 -11q7 -5 15 -5h119q4 0 8.5 1t10.5 3v178q0 8 -5 11l-19 13q-5 3 -13 3h-102q-5 0 -9 -3l-19 -15q-5 -4 -5 -10v-152zM29 335q0 100 27.5 194.5t83.5 170.5q12 16 29 16
h41q13 0 11.5 -4.5t-3.5 -7.5q-65 -87 -92 -179.5t-27 -189.5t27 -190t92 -180q2 -3 3.5 -7.5t-11.5 -4.5h-41q-17 0 -29 16q-56 76 -83.5 171t-27.5 195zM870 335q0 -100 -27.5 -195t-83.5 -171q-12 -16 -29 -16h-41q-13 0 -11.5 4.5t3.5 7.5q65 87 92 180t27 190
t-27 189.5t-92 179.5q-2 3 -3.5 7.5t11.5 4.5h41q17 0 29 -16q56 -76 83.5 -170.5t27.5 -194.5z" />
    <glyph glyph-name="uni24A3" unicode="&#x24a3;" horiz-adv-x="900" 
d="M383 365v-313q0 -8 -4 -13.5t-16 -5.5h-56q-20 0 -20 19v549q0 8 4 13.5t16 5.5h56q20 0 20 -19v-163q11 5 23.5 9t29.5 4h98q11 0 23 -3.5t19 -8.5l57 -44q12 -9 16 -20t4 -21v-302q0 -8 -4 -13.5t-16 -5.5h-56q-20 0 -20 19v288q0 7 -8 13l-13 11q-7 5 -15 5h-119
q-4 0 -8.5 -1t-10.5 -3zM29 335q0 100 27.5 194.5t83.5 170.5q12 16 29 16h41q13 0 11.5 -4.5t-3.5 -7.5q-65 -87 -92 -179.5t-27 -189.5t27 -190t92 -180q2 -3 3.5 -7.5t-11.5 -4.5h-41q-17 0 -29 16q-56 76 -83.5 171t-27.5 195zM870 335q0 -100 -27.5 -195t-83.5 -171
q-12 -16 -29 -16h-41q-13 0 -11.5 4.5t3.5 7.5q65 87 92 180t27 190t-27 189.5t-92 179.5q-2 3 -3.5 7.5t11.5 4.5h41q17 0 29 -16q56 -76 83.5 -170.5t27.5 -194.5z" />
    <glyph glyph-name="uni24A4" unicode="&#x24a4;" horiz-adv-x="900" 
d="M402 589q0 8 2.5 13.5t17.5 5.5h55q21 0 21 -19v-68q0 -7 -4 -12.5t-17 -5.5h-54q-14 0 -17.5 5.5t-3.5 12.5v68zM498 55q0 -8 -4 -13.5t-16 -5.5h-56q-20 0 -20 19v380q0 8 4 13.5t16 5.5h56q20 0 20 -19v-380zM29 335q0 100 27.5 194.5t83.5 170.5q12 16 29 16h41
q13 0 11.5 -4.5t-3.5 -7.5q-65 -87 -92 -179.5t-27 -189.5t27 -190t92 -180q2 -3 3.5 -7.5t-11.5 -4.5h-41q-17 0 -29 16q-56 76 -83.5 171t-27.5 195zM870 335q0 -100 -27.5 -195t-83.5 -171q-12 -16 -29 -16h-41q-13 0 -11.5 4.5t3.5 7.5q65 87 92 180t27 190t-27 189.5
t-92 179.5q-2 3 -3.5 7.5t11.5 4.5h41q17 0 29 -16q56 -76 83.5 -170.5t27.5 -194.5z" />
    <glyph glyph-name="uni24A5" unicode="&#x24a5;" horiz-adv-x="900" 
d="M412 609q0 8 2.5 13.5t17.5 5.5h55q21 0 21 -19v-68q0 -7 -4 -12.5t-17 -5.5h-54q-14 0 -17.5 5.5t-3.5 12.5v68zM509 151q0 -28 -6 -50t-31 -39l-91 -63q-11 -8 -21 2l-34 37q-7 8 2 17l78 70q5 5 5.5 10t0.5 15v305q0 8 4 13.5t16 5.5h56q20 0 20 -19zM29 335
q0 100 27.5 194.5t83.5 170.5q12 16 29 16h41q13 0 11.5 -4.5t-3.5 -7.5q-65 -87 -92 -179.5t-27 -189.5t27 -190t92 -180q2 -3 3.5 -7.5t-11.5 -4.5h-41q-17 0 -29 16q-56 76 -83.5 171t-27.5 195zM870 335q0 -100 -27.5 -195t-83.5 -171q-12 -16 -29 -16h-41
q-13 0 -11.5 4.5t3.5 7.5q65 87 92 180t27 190t-27 189.5t-92 179.5q-2 3 -3.5 7.5t11.5 4.5h41q17 0 29 -16q56 -76 83.5 -170.5t27.5 -194.5z" />
    <glyph glyph-name="uni24A6" unicode="&#x24a6;" horiz-adv-x="900" 
d="M297 51v550q0 8 4 13.5t16 5.5h56q20 0 20 -19v-301h48l140 171q3 5 8 7.5t12 -2.5l46 -35q11 -9 3 -20l-133 -165l160 -201q5 -8 0.5 -15t-14.5 -7h-66q-14 0 -21 9l-145 178h-37v-169q0 -7 -4 -12.5t-17 -5.5h-55q-14 0 -17.5 5.5t-3.5 12.5zM29 335q0 100 27.5 194.5
t83.5 170.5q12 16 29 16h41q13 0 11.5 -4.5t-3.5 -7.5q-65 -87 -92 -179.5t-27 -189.5t27 -190t92 -180q2 -3 3.5 -7.5t-11.5 -4.5h-41q-17 0 -29 16q-56 76 -83.5 171t-27.5 195zM870 335q0 -100 -27.5 -195t-83.5 -171q-12 -16 -29 -16h-41q-13 0 -11.5 4.5t3.5 7.5
q65 87 92 180t27 190t-27 189.5t-92 179.5q-2 3 -3.5 7.5t11.5 4.5h41q17 0 29 -16q56 -76 83.5 -170.5t27.5 -194.5z" />
    <glyph glyph-name="uni24A7" unicode="&#x24a7;" horiz-adv-x="900" 
d="M445 41l-40 31q-14 11 -16 21t-2 24v481q0 8 4 13.5t16 5.5h57q20 0 20 -19v-472q0 -5 3 -7l7 -5q4 -2 6 -2h51q17 0 17 -16v-50q0 -16 -17 -16h-61q-11 0 -22.5 1.5t-22.5 9.5zM29 335q0 100 27.5 194.5t83.5 170.5q12 16 29 16h41q13 0 11.5 -4.5t-3.5 -7.5
q-65 -87 -92 -179.5t-27 -189.5t27 -190t92 -180q2 -3 3.5 -7.5t-11.5 -4.5h-41q-17 0 -29 16q-56 76 -83.5 171t-27.5 195zM870 335q0 -100 -27.5 -195t-83.5 -171q-12 -16 -29 -16h-41q-13 0 -11.5 4.5t3.5 7.5q65 87 92 180t27 190t-27 189.5t-92 179.5q-2 3 -3.5 7.5
t11.5 4.5h41q17 0 29 -16q56 -76 83.5 -170.5t27.5 -194.5z" />
    <glyph glyph-name="uni24A8" unicode="&#x24a8;" horiz-adv-x="900" 
d="M302 441q-8 0 -15 -5l-13 -11q-8 -6 -8 -13v-282q0 -19 -20 -19h-56q-12 0 -16 5.5t-4 13.5v295q0 10 4 21t16 20l57 44q7 5 19 8.5t23 3.5h87q19 0 29 -3.5t16 -8.5l25 -23l25 21q16 14 46 14h97q11 0 23 -3t19 -9l53 -47q11 -10 15.5 -20.5t4.5 -20.5v-292
q0 -8 -4 -13.5t-16 -5.5h-56q-20 0 -20 19v282q0 7 -8 13l-13 12q-5 4 -15 4h-68q-10 0 -15 -5l-12 -10q-4 -3 -4 -9v-287q0 -8 -5 -13.5t-17 -5.5h-51q-12 0 -18 5.5t-6 13.5v277q0 8 -4 11l-19 18q-5 5 -17 5h-59zM29 335q0 100 27.5 194.5t83.5 170.5q12 16 29 16h41
q13 0 11.5 -4.5t-3.5 -7.5q-65 -87 -92 -179.5t-27 -189.5t27 -190t92 -180q2 -3 3.5 -7.5t-11.5 -4.5h-41q-17 0 -29 16q-56 76 -83.5 171t-27.5 195zM870 335q0 -100 -27.5 -195t-83.5 -171q-12 -16 -29 -16h-41q-13 0 -11.5 4.5t3.5 7.5q65 87 92 180t27 190t-27 189.5
t-92 179.5q-2 3 -3.5 7.5t11.5 4.5h41q17 0 29 -16q56 -76 83.5 -170.5t27.5 -194.5z" />
    <glyph glyph-name="uni24A9" unicode="&#x24a9;" horiz-adv-x="900" 
d="M499 451h-99q-8 0 -15 -5l-13 -11q-8 -6 -8 -13v-292q0 -19 -20 -19h-58q-12 0 -16 5.5t-4 13.5v305q0 10 4 21t16 20l57 44q7 5 19 8.5t23 3.5h133q11 0 23 -3t19 -9l53 -47q11 -10 15.5 -20.5t4.5 -20.5v-302q0 -8 -4 -13.5t-16 -5.5h-58q-20 0 -20 19v292q0 7 -8 13
l-13 12q-5 4 -15 4zM29 335q0 100 27.5 194.5t83.5 170.5q12 16 29 16h41q13 0 11.5 -4.5t-3.5 -7.5q-65 -87 -92 -179.5t-27 -189.5t27 -190t92 -180q2 -3 3.5 -7.5t-11.5 -4.5h-41q-17 0 -29 16q-56 76 -83.5 171t-27.5 195zM870 335q0 -100 -27.5 -195t-83.5 -171
q-12 -16 -29 -16h-41q-13 0 -11.5 4.5t3.5 7.5q65 87 92 180t27 190t-27 189.5t-92 179.5q-2 3 -3.5 7.5t11.5 4.5h41q17 0 29 -16q56 -76 83.5 -170.5t27.5 -194.5z" />
    <glyph glyph-name="uni24AA" unicode="&#x24aa;" horiz-adv-x="900" 
d="M267 224v202q0 18 5 29t16 21l46 42q14 12 27.5 15t27.5 3h122q14 0 27.5 -3t27.5 -15l46 -42q11 -10 16 -21t5 -29v-202q0 -18 -5 -29t-16 -21l-46 -42q-14 -12 -27.5 -15t-27.5 -3h-122q-14 0 -27.5 3t-27.5 15l-46 42q-11 10 -16 21t-5 29zM363 423v-196q0 -9 5 -14
l13 -12q5 -5 7.5 -5.5t7.5 -0.5h108q5 0 7.5 0.5t7.5 5.5l13 12q5 5 5 14v196q0 9 -5 14l-13 12q-5 5 -7.5 5.5t-7.5 0.5h-108q-5 0 -7.5 -0.5t-7.5 -5.5l-13 -12q-5 -5 -5 -14zM29 335q0 100 27.5 194.5t83.5 170.5q12 16 29 16h41q13 0 11.5 -4.5t-3.5 -7.5
q-65 -87 -92 -179.5t-27 -189.5t27 -190t92 -180q2 -3 3.5 -7.5t-11.5 -4.5h-41q-17 0 -29 16q-56 76 -83.5 171t-27.5 195zM870 335q0 -100 -27.5 -195t-83.5 -171q-12 -16 -29 -16h-41q-13 0 -11.5 4.5t3.5 7.5q65 87 92 180t27 190t-27 189.5t-92 179.5q-2 3 -3.5 7.5
t11.5 4.5h41q17 0 29 -16q56 -76 83.5 -170.5t27.5 -194.5z" />
    <glyph glyph-name="uni24AB" unicode="&#x24ab;" horiz-adv-x="900" 
d="M277 494q0 11 4.5 22.5t14.5 19.5l62 45q11 8 38 8h127q12 0 24.5 -3t17.5 -7l58 -43q10 -8 15 -19.5t5 -22.5v-195q0 -10 -4 -21t-16 -20l-57 -44q-7 -5 -19 -8.5t-23 -3.5h-98q-17 0 -29.5 4t-23.5 9v-148q0 -19 -20 -19h-56q-12 0 -16 5.5t-4 13.5v427zM547 479
q0 6 -5 10l-19 15q-5 3 -9 3h-104q-9 0 -13 -3l-19 -13q-5 -3 -5 -11v-192q6 -2 10.5 -3t8.5 -1h121q8 0 15 5l13 11q6 4 6 13v166zM29 335q0 100 27.5 194.5t83.5 170.5q12 16 29 16h41q13 0 11.5 -4.5t-3.5 -7.5q-65 -87 -92 -179.5t-27 -189.5t27 -190t92 -180
q2 -3 3.5 -7.5t-11.5 -4.5h-41q-17 0 -29 16q-56 76 -83.5 171t-27.5 195zM870 335q0 -100 -27.5 -195t-83.5 -171q-12 -16 -29 -16h-41q-13 0 -11.5 4.5t3.5 7.5q65 87 92 180t27 190t-27 189.5t-92 179.5q-2 3 -3.5 7.5t11.5 4.5h41q17 0 29 -16q56 -76 83.5 -170.5
t27.5 -194.5z" />
    <glyph glyph-name="uni24AC" unicode="&#x24ac;" horiz-adv-x="900" 
d="M622 67q0 -8 -4 -13.5t-16 -5.5h-56q-20 0 -20 19v148q-11 -5 -23.5 -9t-29.5 -4h-98q-11 0 -23 3.5t-19 8.5l-57 44q-12 9 -16 20t-4 21v195q0 11 5 22.5t15 19.5l58 43q5 4 17.5 7t24.5 3h127q27 0 38 -8l62 -45q10 -8 14.5 -19.5t4.5 -22.5v-427zM352 313q0 -9 6 -13
l13 -11q7 -5 15 -5h121q4 0 8.5 1t10.5 3v192q0 8 -5 11l-19 13q-5 3 -13 3h-104q-5 0 -9 -3l-19 -15q-5 -4 -5 -10v-166zM29 335q0 100 27.5 194.5t83.5 170.5q12 16 29 16h41q13 0 11.5 -4.5t-3.5 -7.5q-65 -87 -92 -179.5t-27 -189.5t27 -190t92 -180q2 -3 3.5 -7.5
t-11.5 -4.5h-41q-17 0 -29 16q-56 76 -83.5 171t-27.5 195zM870 335q0 -100 -27.5 -195t-83.5 -171q-12 -16 -29 -16h-41q-13 0 -11.5 4.5t3.5 7.5q65 87 92 180t27 190t-27 189.5t-92 179.5q-2 3 -3.5 7.5t11.5 4.5h41q17 0 29 -16q56 -76 83.5 -170.5t27.5 -194.5z" />
    <glyph glyph-name="uni24AD" unicode="&#x24ad;" horiz-adv-x="900" 
d="M443 424q-7 -7 -7 -17v-277q0 -19 -20 -19h-58q-12 0 -16 5.5t-4 13.5v285q0 21 20 41l61 61q9 9 19 12t21 3h128q17 0 17 -16v-49q0 -16 -17 -16h-108q-4 0 -7.5 -0.5t-7.5 -4.5zM29 335q0 100 27.5 194.5t83.5 170.5q12 16 29 16h41q13 0 11.5 -4.5t-3.5 -7.5
q-65 -87 -92 -179.5t-27 -189.5t27 -190t92 -180q2 -3 3.5 -7.5t-11.5 -4.5h-41q-17 0 -29 16q-56 76 -83.5 171t-27.5 195zM870 335q0 -100 -27.5 -195t-83.5 -171q-12 -16 -29 -16h-41q-13 0 -11.5 4.5t3.5 7.5q65 87 92 180t27 190t-27 189.5t-92 179.5q-2 3 -3.5 7.5
t11.5 4.5h41q17 0 29 -16q56 -76 83.5 -170.5t27.5 -194.5z" />
    <glyph glyph-name="uni24AE" unicode="&#x24ae;" horiz-adv-x="900" 
d="M392 114q-11 0 -22 1t-23 9l-55 36q-11 7 -4 18l28 44q7 12 17 6l51 -31q10 -5 17 -5h122q4 0 7 3l6 7q3 3 3 10v48q0 19 -12 20l-154 27q-42 7 -59.5 32t-17.5 55v48q0 14 4 23t14 17l47 42q11 9 22 10.5t22 1.5h125q11 0 19.5 -1.5t19.5 -7.5l55 -29q8 -4 5 -13
l-24 -48q-5 -10 -18 -4l-51 22q-5 2 -8 2.5t-8 0.5h-108q-4 0 -6 -2l-12 -11q-3 -2 -3 -9v-43q0 -13 12 -14l152 -27q46 -8 62.5 -33t16.5 -56v-58q0 -10 -2.5 -18t-13.5 -19l-40 -42q-12 -12 -35 -12h-151zM29 335q0 100 27.5 194.5t83.5 170.5q12 16 29 16h41
q13 0 11.5 -4.5t-3.5 -7.5q-65 -87 -92 -179.5t-27 -189.5t27 -190t92 -180q2 -3 3.5 -7.5t-11.5 -4.5h-41q-17 0 -29 16q-56 76 -83.5 171t-27.5 195zM870 335q0 -100 -27.5 -195t-83.5 -171q-12 -16 -29 -16h-41q-13 0 -11.5 4.5t3.5 7.5q65 87 92 180t27 190t-27 189.5
t-92 179.5q-2 3 -3.5 7.5t11.5 4.5h41q17 0 29 -16q56 -76 83.5 -170.5t27.5 -194.5z" />
    <glyph glyph-name="uni24AF" unicode="&#x24af;" horiz-adv-x="900" 
d="M583 134q16 0 16 -14v-50q0 -9 -4 -11.5t-12 -2.5h-85q-14 0 -25 4t-17 9l-53 44q-9 8 -13 15.5t-4 20.5v234h-64q-11 0 -14.5 3t-3.5 11v49q0 9 4 12t15 3h63v118q0 8 2.5 12.5t14.5 4.5h62q12 0 14.5 -4.5t2.5 -12.5v-118h95q10 0 14.5 -2t4.5 -13v-49q0 -8 -3.5 -11
t-14.5 -3h-96v-221q0 -7 4 -11l17 -14q4 -3 9 -3h71zM29 335q0 100 27.5 194.5t83.5 170.5q12 16 29 16h41q13 0 11.5 -4.5t-3.5 -7.5q-65 -87 -92 -179.5t-27 -189.5t27 -190t92 -180q2 -3 3.5 -7.5t-11.5 -4.5h-41q-17 0 -29 16q-56 76 -83.5 171t-27.5 195zM870 335
q0 -100 -27.5 -195t-83.5 -171q-12 -16 -29 -16h-41q-13 0 -11.5 4.5t3.5 7.5q65 87 92 180t27 190t-27 189.5t-92 179.5q-2 3 -3.5 7.5t11.5 4.5h41q17 0 29 -16q56 -76 83.5 -170.5t27.5 -194.5z" />
    <glyph glyph-name="uni24B0" unicode="&#x24b0;" horiz-adv-x="900" 
d="M273 230v270q0 8 4 13.5t16 5.5h55q20 0 20 -19v-269q0 -11 6 -17l17 -17q6 -6 16 -6h84q10 0 16 6l16 17q5 5 6 8t1 11v267q0 8 4 13.5t16 5.5h55q20 0 20 -19v-266q0 -20 -5.5 -33.5t-18.5 -24.5l-43 -45q-11 -11 -22.5 -14t-28.5 -3h-108q-17 0 -32.5 3t-26.5 14
l-42 42q-10 9 -17.5 23t-7.5 34zM29 335q0 100 27.5 194.5t83.5 170.5q12 16 29 16h41q13 0 11.5 -4.5t-3.5 -7.5q-65 -87 -92 -179.5t-27 -189.5t27 -190t92 -180q2 -3 3.5 -7.5t-11.5 -4.5h-41q-17 0 -29 16q-56 76 -83.5 171t-27.5 195zM870 335q0 -100 -27.5 -195
t-83.5 -171q-12 -16 -29 -16h-41q-13 0 -11.5 4.5t3.5 7.5q65 87 92 180t27 190t-27 189.5t-92 179.5q-2 3 -3.5 7.5t11.5 4.5h41q17 0 29 -16q56 -76 83.5 -170.5t27.5 -194.5z" />
    <glyph glyph-name="uni24B1" unicode="&#x24b1;" horiz-adv-x="900" 
d="M413 104q-18 0 -27.5 9t-13.5 20l-119 357q-2 8 2.5 13.5t15.5 5.5h55q18 0 23 -14l100 -309l101 309q2 7 6 10.5t17 3.5h53q10 0 16.5 -5t3.5 -14l-121 -357q-5 -15 -14 -22t-32 -7h-66zM29 335q0 100 27.5 194.5t83.5 170.5q12 16 29 16h41q13 0 11.5 -4.5t-3.5 -7.5
q-65 -87 -92 -179.5t-27 -189.5t27 -190t92 -180q2 -3 3.5 -7.5t-11.5 -4.5h-41q-17 0 -29 16q-56 76 -83.5 171t-27.5 195zM870 335q0 -100 -27.5 -195t-83.5 -171q-12 -16 -29 -16h-41q-13 0 -11.5 4.5t3.5 7.5q65 87 92 180t27 190t-27 189.5t-92 179.5q-2 3 -3.5 7.5
t11.5 4.5h41q17 0 29 -16q56 -76 83.5 -170.5t27.5 -194.5z" />
    <glyph glyph-name="uni24B2" unicode="&#x24b2;" horiz-adv-x="900" 
d="M295 104q-18 0 -27.5 11.5t-13.5 25.5l-90 349q-2 8 1.5 13.5t12.5 5.5h53q20 0 24 -17l73 -294l60 189q8 27 37 27h52q17 0 25.5 -7.5t11.5 -18.5l57 -190l72 297q2 7 6 10.5t17 3.5h53q10 0 14 -5.5t2 -13.5l-91 -352q-5 -17 -14.5 -25.5t-34.5 -8.5h-58
q-19 0 -27.5 11t-11.5 22l-47 173l-51 -170q-5 -18 -16.5 -27t-35.5 -9h-53zM29 335q0 100 27.5 194.5t83.5 170.5q12 16 29 16h41q13 0 11.5 -4.5t-3.5 -7.5q-65 -87 -92 -179.5t-27 -189.5t27 -190t92 -180q2 -3 3.5 -7.5t-11.5 -4.5h-41q-17 0 -29 16q-56 76 -83.5 171
t-27.5 195zM870 335q0 -100 -27.5 -195t-83.5 -171q-12 -16 -29 -16h-41q-13 0 -11.5 4.5t3.5 7.5q65 87 92 180t27 190t-27 189.5t-92 179.5q-2 3 -3.5 7.5t11.5 4.5h41q17 0 29 -16q56 -76 83.5 -170.5t27.5 -194.5z" />
    <glyph glyph-name="uni24B3" unicode="&#x24b3;" horiz-adv-x="900" 
d="M335 518q14 0 20 -10l87 -138l87 140q3 5 7.5 6.5t9.5 1.5h66q9 0 11.5 -5t-1.5 -11l-107 -182q26 -47 53 -94t53 -94q10 -19 -8 -19h-65q-7 0 -10 1t-6 6l-91 155l-92 -155q-3 -5 -6 -6t-10 -1h-65q-9 0 -11.5 5.5t2.5 13.5l108 189l-108 181q-4 6 -1.5 11t11.5 5h66z
M29 335q0 100 27.5 194.5t83.5 170.5q12 16 29 16h41q13 0 11.5 -4.5t-3.5 -7.5q-65 -87 -92 -179.5t-27 -189.5t27 -190t92 -180q2 -3 3.5 -7.5t-11.5 -4.5h-41q-17 0 -29 16q-56 76 -83.5 171t-27.5 195zM870 335q0 -100 -27.5 -195t-83.5 -171q-12 -16 -29 -16h-41
q-13 0 -11.5 4.5t3.5 7.5q65 87 92 180t27 190t-27 189.5t-92 179.5q-2 3 -3.5 7.5t11.5 4.5h41q17 0 29 -16q56 -76 83.5 -170.5t27.5 -194.5z" />
    <glyph glyph-name="uni24B4" unicode="&#x24b4;" horiz-adv-x="900" 
d="M544 573q0 9 4.5 13.5t16.5 4.5h54q20 0 20 -18v-403q0 -12 -2.5 -21.5t-13.5 -20.5l-52 -54q-8 -8 -19 -11t-24 -3h-184q-14 0 -14 12v56q0 12 14 12h167q4 0 7 0.5t6 4.5l17 18q3 4 3 8v60q-10 -7 -20.5 -10t-25.5 -3h-89q-11 0 -22 2t-19 8l-53 41q-13 9 -17.5 19.5
t-4.5 23.5v261q0 9 4.5 13.5t16.5 4.5h54q20 0 20 -18v-248q0 -9 4 -12l12 -9q4 -3 6.5 -3.5t9.5 -0.5h108q7 0 11.5 5t4.5 12v256zM29 335q0 100 27.5 194.5t83.5 170.5q12 16 29 16h41q13 0 11.5 -4.5t-3.5 -7.5q-65 -87 -92 -179.5t-27 -189.5t27 -190t92 -180
q2 -3 3.5 -7.5t-11.5 -4.5h-41q-17 0 -29 16q-56 76 -83.5 171t-27.5 195zM870 335q0 -100 -27.5 -195t-83.5 -171q-12 -16 -29 -16h-41q-13 0 -11.5 4.5t3.5 7.5q65 87 92 180t27 190t-27 189.5t-92 179.5q-2 3 -3.5 7.5t11.5 4.5h41q17 0 29 -16q56 -76 83.5 -170.5
t27.5 -194.5z" />
    <glyph glyph-name="uni24B5" unicode="&#x24b5;" horiz-adv-x="900" 
d="M382 199h211q17 0 17 -16v-43q0 -16 -17 -16h-283q-10 0 -15.5 4t-5.5 15v56q0 11 6 25.5t16 23.5l194 191q3 3 3.5 5t0.5 4v6h-197q-17 0 -17 16v42q0 16 17 16h264q17 0 21.5 -5.5t4.5 -16.5v-55q0 -16 -1.5 -22.5t-9.5 -14.5l-205 -201q-4 -4 -4 -9v-5zM29 335
q0 100 27.5 194.5t83.5 170.5q12 16 29 16h41q13 0 11.5 -4.5t-3.5 -7.5q-65 -87 -92 -179.5t-27 -189.5t27 -190t92 -180q2 -3 3.5 -7.5t-11.5 -4.5h-41q-17 0 -29 16q-56 76 -83.5 171t-27.5 195zM870 335q0 -100 -27.5 -195t-83.5 -171q-12 -16 -29 -16h-41
q-13 0 -11.5 4.5t3.5 7.5q65 87 92 180t27 190t-27 189.5t-92 179.5q-2 3 -3.5 7.5t11.5 4.5h41q17 0 29 -16q56 -76 83.5 -170.5t27.5 -194.5z" />
    <glyph glyph-name="uni24D0" unicode="&#x24d0;" horiz-adv-x="900" 
d="M91 327q0 -75 28 -141t77 -116t114 -79t139 -29t139.5 29t114 79t77 116t28.5 141q0 74 -28.5 140t-77 115.5t-114 78.5t-139.5 29t-139 -29t-114 -78.5t-77 -115.5t-28 -140zM877 327q0 -88 -34 -166t-92 -136t-136 -91.5t-166 -33.5q-89 0 -167 33.5t-135.5 91.5
t-91 136t-33.5 166t33.5 165t91 135t135.5 91.5t167 33.5q88 0 166 -33.5t136 -91.5t92 -135t34 -165zM330 454q-18 0 -18 17v46q0 17 18 17h186q27 0 40 -12l58 -47q11 -8 14 -16.5t3 -21.5v-224q0 -9 -5 -22.5t-16 -24.5l-41 -37q-11 -10 -21 -11t-30 -1h-132q-9 0 -21 2
t-20 8l-51 38q-13 10 -19.5 23t-6.5 26v75q0 17 7 27.5t14 16.5l54 46q11 10 20.5 12t21.5 2h100q28 0 47 -13v47q0 6 -6 11l-15 12q-4 4 -15 4h-166zM366 221q0 -5 1 -7t3 -4l14 -11q3 -2 9 -2h128q5 0 8 4t3 8v89q0 8 -5.5 12t-12.5 4h-123q-7 0 -10 -3l-11 -10
q-4 -4 -4 -13v-67z" />
    <glyph glyph-name="uni24D1" unicode="&#x24d1;" horiz-adv-x="900" 
d="M277 601q0 8 4 13.5t16 5.5h56q20 0 20 -19v-163q11 5 23.5 9t29.5 4h98q11 0 23 -3.5t19 -8.5l57 -44q12 -9 16 -20t4 -21v-227q0 -11 -5 -22.5t-15 -19.5l-58 -43q-5 -4 -17.5 -7t-24.5 -3h-127q-27 0 -38 8l-62 45q-10 8 -14.5 19.5t-4.5 22.5v474zM547 340q0 8 -6 13
l-13 11q-7 5 -15 5h-121q-4 0 -8.5 -1t-10.5 -3v-224q0 -9 5 -11l19 -13q4 -3 13 -3h104q4 0 9 3l19 15q5 4 5 10v198zM91 327q0 -75 28 -141t77 -116t114 -79t139 -29t139.5 29t114 79t77 116t28.5 141q0 74 -28.5 140t-77 115.5t-114 78.5t-139.5 29t-139 -29t-114 -78.5
t-77 -115.5t-28 -140zM877 327q0 -88 -34 -166t-92 -136t-136 -91.5t-166 -33.5q-89 0 -167 33.5t-135.5 91.5t-91 136t-33.5 166t33.5 165t91 135t135.5 91.5t167 33.5q88 0 166 -33.5t136 -91.5t92 -135t34 -165z" />
    <glyph glyph-name="uni24D2" unicode="&#x24d2;" horiz-adv-x="900" 
d="M91 326q0 -75 28 -141t77 -116t114 -79t139 -29t139.5 29t114 79t77 116t28.5 141q0 74 -28.5 140t-77 115.5t-114 78.5t-139.5 29t-139 -29t-114 -78.5t-77 -115.5t-28 -140zM877 326q0 -88 -34 -166t-92 -136t-136 -91.5t-166 -33.5q-89 0 -167 33.5t-135.5 91.5
t-91 136t-33.5 166t33.5 165t91 135t135.5 91.5t167 33.5q88 0 166 -33.5t136 -91.5t92 -135t34 -165zM265 407q0 5 1.5 18.5t12.5 24.5l70 70q16 16 42 16h114q10 0 23.5 -1.5t25.5 -9.5l71 -45q9 -6 3 -15l-32 -48q-5 -9 -15 -4l-60 38q-5 3 -7.5 3.5t-6.5 0.5h-92
q-8 0 -12 -4l-36 -37q-5 -5 -5 -16v-145q0 -3 0.5 -6.5t3.5 -6.5l34 -36q5 -6 9.5 -7t10.5 -1h91q6 0 13 4l65 42q10 6 15 -4l30 -50q7 -10 -3 -17l-72 -45q-11 -7 -23.5 -9t-23.5 -2h-119q-17 0 -26.5 4t-17.5 12l-70 70q-10 9 -12 20.5t-2 22.5v163z" />
    <glyph glyph-name="uni24D3" unicode="&#x24d3;" horiz-adv-x="900" 
d="M91 327q0 -75 28 -141t77 -116t114 -79t139 -29t139.5 29t114 79t77 116t28.5 141q0 74 -28.5 140t-77 115.5t-114 78.5t-139.5 29t-139 -29t-114 -78.5t-77 -115.5t-28 -140zM877 327q0 -88 -34 -166t-92 -136t-136 -91.5t-166 -33.5q-89 0 -167 33.5t-135.5 91.5
t-91 136t-33.5 166t33.5 165t91 135t135.5 91.5t167 33.5q88 0 166 -33.5t136 -91.5t92 -135t34 -165zM623 127q0 -11 -4.5 -22.5t-14.5 -19.5l-62 -45q-11 -8 -38 -8h-127q-12 0 -24.5 3t-17.5 7l-58 43q-10 8 -15 19.5t-5 22.5v227q0 10 4 21t16 20l57 44q7 5 19 8.5
t23 3.5h98q17 0 29.5 -4t23.5 -9v163q0 19 20 19h56q12 0 16 -5.5t4 -13.5v-474zM353 142q0 -6 5 -10l19 -15q4 -3 9 -3h104q8 0 13 3l19 13q5 2 5 11v224q-6 2 -10.5 3t-8.5 1h-121q-8 0 -15 -5l-13 -11q-6 -5 -6 -13v-198z" />
    <glyph glyph-name="uni24D4" unicode="&#x24d4;" horiz-adv-x="900" 
d="M91 327q0 -75 28 -141t77 -116t114 -79t139 -29t139.5 29t114 79t77 116t28.5 141q0 74 -28.5 140t-77 115.5t-114 78.5t-139.5 29t-139 -29t-114 -78.5t-77 -115.5t-28 -140zM877 327q0 -88 -34 -166t-92 -136t-136 -91.5t-166 -33.5q-89 0 -167 33.5t-135.5 91.5
t-91 136t-33.5 166t33.5 165t91 135t135.5 91.5t167 33.5q88 0 166 -33.5t136 -91.5t92 -135t34 -165zM585 196q18 0 18 -17v-46q0 -17 -18 -17h-203q-27 0 -40 12l-58 47q-11 8 -14 16.5t-3 21.5v224q0 9 5 22.5t16 24.5l41 37q11 10 21 11t30 1h135q9 0 21 -2t20 -8
l51 -38q13 -10 19.5 -23t6.5 -26v-75q0 -17 -7 -27.5t-14 -16.5l-54 -46q-11 -10 -20.5 -12t-21.5 -2h-103q-28 0 -47 13v-47q0 -6 6 -11l15 -12q4 -4 15 -4h183zM535 429q0 5 -1 7t-3 4l-14 11q-3 2 -9 2h-131q-5 0 -8 -4t-3 -8v-89q0 -8 5.5 -12t12.5 -4h126q7 0 10 3
l11 10q3 3 3.5 5.5t0.5 7.5v67z" />
    <glyph glyph-name="uni24D5" unicode="&#x24d5;" horiz-adv-x="900" 
d="M877 327q0 -88 -34 -166t-92 -136t-136 -91.5t-166 -33.5q-89 0 -167 33.5t-135.5 91.5t-91 136t-33.5 166t33.5 165t91 135t135.5 91.5t167 33.5q88 0 166 -33.5t136 -91.5t92 -135t34 -165zM91 327q0 -75 28 -141t77 -116t114 -79t139 -29t139.5 29t114 79t77 116
t28.5 141q0 74 -28.5 140t-77 115.5t-114 78.5t-139.5 29t-139 -29t-114 -78.5t-77 -115.5t-28 -140zM390 314h-69q-18 0 -18 17v46q0 17 18 17h69v108q0 13 1.5 18t7.5 12l52 61q8 8 16.5 12t22.5 4h106q18 0 18 -17v-48q0 -17 -18 -17h-84q-7 0 -11 -5l-10 -12
q-3 -4 -3.5 -6.5t-0.5 -7.5v-102h100q18 0 18 -17v-46q0 -17 -18 -17h-100v-273q0 -8 -4 -13.5t-16 -5.5h-57q-20 0 -20 19v273z" />
    <glyph glyph-name="uni24D6" unicode="&#x24d6;" horiz-adv-x="900" 
d="M877 327q0 -88 -34 -166t-92 -136t-136 -91.5t-166 -33.5q-89 0 -167 33.5t-135.5 91.5t-91 136t-33.5 166t33.5 165t91 135t135.5 91.5t167 33.5q88 0 166 -33.5t136 -91.5t92 -135t34 -165zM91 327q0 -75 28 -141t77 -116t114 -79t139 -29t139.5 29t114 79t77 116
t28.5 141q0 74 -28.5 140t-77 115.5t-114 78.5t-139.5 29t-139 -29t-114 -78.5t-77 -115.5t-28 -140zM514 60h-190q-18 0 -18 17v46q0 17 18 17h170q12 0 17 6l15 16q2 2 4 5.5t2 13.5v50q-11 -5 -23.5 -9t-29.5 -4h-98q-11 0 -23 3.5t-19 8.5l-57 44q-12 9 -16 20t-4 21
v181q0 11 5 22.5t15 19.5l58 43q5 4 17.5 7t24.5 3h127q27 0 38 -8l62 -45q10 -8 14.5 -19.5t4.5 -22.5v-322q0 -13 -2.5 -22.5t-13.5 -21.5l-54 -55q-8 -9 -19 -12t-25 -3zM360 329q0 -9 6 -13l13 -11q7 -5 15 -5h119q4 0 8.5 1t10.5 3v178q0 8 -5 11l-19 13q-5 3 -13 3
h-102q-5 0 -9 -3l-19 -15q-5 -4 -5 -10v-152z" />
    <glyph glyph-name="uni24D7" unicode="&#x24d7;" horiz-adv-x="900" 
d="M877 327q0 -88 -34 -166t-92 -136t-136 -91.5t-166 -33.5q-89 0 -167 33.5t-135.5 91.5t-91 136t-33.5 166t33.5 165t91 135t135.5 91.5t167 33.5q88 0 166 -33.5t136 -91.5t92 -135t34 -165zM91 327q0 -75 28 -141t77 -116t114 -79t139 -29t139.5 29t114 79t77 116
t28.5 141q0 74 -28.5 140t-77 115.5t-114 78.5t-139.5 29t-139 -29t-114 -78.5t-77 -115.5t-28 -140zM383 365v-313q0 -8 -4 -13.5t-16 -5.5h-56q-20 0 -20 19v549q0 8 4 13.5t16 5.5h56q20 0 20 -19v-163q11 5 23.5 9t29.5 4h98q11 0 23 -3.5t19 -8.5l57 -44q12 -9 16 -20
t4 -21v-302q0 -8 -4 -13.5t-16 -5.5h-56q-20 0 -20 19v288q0 7 -8 13l-13 11q-7 5 -15 5h-119q-4 0 -8.5 -1t-10.5 -3z" />
    <glyph glyph-name="uni24D8" unicode="&#x24d8;" horiz-adv-x="900" 
d="M91 327q0 -75 28 -141t77 -116t114 -79t139 -29t139.5 29t114 79t77 116t28.5 141q0 74 -28.5 140t-77 115.5t-114 78.5t-139.5 29t-139 -29t-114 -78.5t-77 -115.5t-28 -140zM877 327q0 -88 -34 -166t-92 -136t-136 -91.5t-166 -33.5q-89 0 -167 33.5t-135.5 91.5
t-91 136t-33.5 166t33.5 165t91 135t135.5 91.5t167 33.5q88 0 166 -33.5t136 -91.5t92 -135t34 -165zM402 589q0 8 2.5 13.5t17.5 5.5h55q21 0 21 -19v-68q0 -7 -4 -12.5t-17 -5.5h-54q-14 0 -17.5 5.5t-3.5 12.5v68zM498 55q0 -8 -4 -13.5t-16 -5.5h-56q-20 0 -20 19v380
q0 8 4 13.5t16 5.5h56q20 0 20 -19v-380z" />
    <glyph glyph-name="uni24D9" unicode="&#x24d9;" horiz-adv-x="900" 
d="M91 327q0 -75 28 -141t77 -116t114 -79t139 -29t139.5 29t114 79t77 116t28.5 141q0 74 -28.5 140t-77 115.5t-114 78.5t-139.5 29t-139 -29t-114 -78.5t-77 -115.5t-28 -140zM877 327q0 -88 -34 -166t-92 -136t-136 -91.5t-166 -33.5q-89 0 -167 33.5t-135.5 91.5
t-91 136t-33.5 166t33.5 165t91 135t135.5 91.5t167 33.5q88 0 166 -33.5t136 -91.5t92 -135t34 -165zM412 609q0 8 2.5 13.5t17.5 5.5h55q21 0 21 -19v-68q0 -7 -4 -12.5t-17 -5.5h-54q-14 0 -17.5 5.5t-3.5 12.5v68zM509 151q0 -28 -6 -50t-31 -39l-91 -63q-11 -8 -21 2
l-34 37q-7 8 2 17l78 70q5 5 5.5 10t0.5 15v305q0 8 4 13.5t16 5.5h56q20 0 20 -19z" />
    <glyph glyph-name="uni24DA" unicode="&#x24da;" horiz-adv-x="900" 
d="M877 327q0 -88 -34 -166t-92 -136t-136 -91.5t-166 -33.5q-89 0 -167 33.5t-135.5 91.5t-91 136t-33.5 166t33.5 165t91 135t135.5 91.5t167 33.5q88 0 166 -33.5t136 -91.5t92 -135t34 -165zM297 51v550q0 8 4 13.5t16 5.5h56q20 0 20 -19v-301h48l140 171q3 5 8 7.5
t12 -2.5l46 -35q11 -9 3 -20l-133 -165l160 -201q2 -6 2 -7q60 51 94.5 123t34.5 156q0 74 -28.5 140t-77 115.5t-114 78.5t-139.5 29t-139 -29t-114 -78.5t-77 -115.5t-28 -140q0 -75 28 -141t77 -116t114 -79t139 -29q60 0 113.5 19t98.5 52h-64q-14 0 -21 9l-145 178h-37
v-169q0 -7 -4 -12.5t-17 -5.5h-55q-14 0 -17.5 5.5t-3.5 12.5z" />
    <glyph glyph-name="uni24DB" unicode="&#x24db;" horiz-adv-x="900" 
d="M91 327q0 -75 28 -141t77 -116t114 -79t139 -29t139.5 29t114 79t77 116t28.5 141q0 74 -28.5 140t-77 115.5t-114 78.5t-139.5 29t-139 -29t-114 -78.5t-77 -115.5t-28 -140zM877 327q0 -88 -34 -166t-92 -136t-136 -91.5t-166 -33.5q-89 0 -167 33.5t-135.5 91.5
t-91 136t-33.5 166t33.5 165t91 135t135.5 91.5t167 33.5q88 0 166 -33.5t136 -91.5t92 -135t34 -165zM445 41l-40 31q-14 11 -16 21t-2 24v481q0 8 4 13.5t16 5.5h57q20 0 20 -19v-472q0 -5 3 -7l7 -5q4 -2 6 -2h51q17 0 17 -16v-50q0 -16 -17 -16h-61q-11 0 -22.5 1.5
t-22.5 9.5z" />
    </font>
</defs>
</svg>
